<svg width="51" height="52" viewBox="0 0 51 52" fill="none" xmlns="http://www.w3.org/2000/svg">
<g id="skill-icons:aws-light" clip-path="url(#clip0_1_5439)">
<g id="Group">
<path id="Vector" d="M39.0469 0.5H11.9531C5.3516 0.5 0 5.8516 0 12.4531V39.5469C0 46.1484 5.3516 51.5 11.9531 51.5H39.0469C45.6484 51.5 51 46.1484 51 39.5469V12.4531C51 5.8516 45.6484 0.5 39.0469 0.5Z" fill="#F4F2ED"/>
<path id="Vector_2" d="M16.8828 22.8047C16.8828 23.2896 16.9352 23.6827 17.0268 23.9712C17.1431 24.2957 17.2834 24.6111 17.4464 24.9149C17.5119 25.0196 17.538 25.1244 17.538 25.2163C17.538 25.3474 17.4593 25.4784 17.289 25.6093L16.4632 26.16C16.3453 26.2385 16.2273 26.2779 16.1226 26.2779C15.9915 26.2779 15.8604 26.2124 15.7293 26.0944C15.5528 25.9046 15.3948 25.6983 15.2575 25.4784C15.1111 25.2266 14.9755 24.9686 14.8511 24.7051C13.8289 25.911 12.5445 26.5139 10.9979 26.5138C9.89697 26.5138 9.01882 26.1992 8.37653 25.5701C7.73445 24.941 7.40674 24.1022 7.40674 23.0538C7.40674 21.9395 7.8 21.0353 8.59946 20.3537C9.39893 19.6722 10.4606 19.3314 11.8105 19.3314C12.2561 19.3314 12.7149 19.3708 13.1998 19.4363C13.6847 19.5019 14.1828 19.6067 14.7071 19.7246V18.7678C14.7071 17.7717 14.4973 17.077 14.0911 16.6708C13.6716 16.2644 12.9639 16.0679 11.9547 16.0679C11.4959 16.0679 11.0242 16.1203 10.5393 16.2383C10.0544 16.3562 9.58241 16.5005 9.12361 16.6839C8.97457 16.7505 8.82138 16.8074 8.665 16.8543C8.57336 16.8806 8.50762 16.8937 8.45523 16.8937C8.27195 16.8937 8.17991 16.7626 8.17991 16.4873V15.845C8.17991 15.6354 8.2062 15.4781 8.27175 15.3864C8.33729 15.2948 8.45523 15.2029 8.63871 15.1111C9.09744 14.8752 9.64795 14.6787 10.2902 14.5214C10.9323 14.3509 11.6138 14.2724 12.3348 14.2724C13.8945 14.2724 15.0346 14.6262 15.7687 15.3338C16.4895 16.0417 16.8565 17.1164 16.8565 18.5582V22.8047H16.8828ZM11.5616 24.7969C11.9939 24.7969 12.4396 24.7182 12.9115 24.5608C13.3833 24.4037 13.8027 24.1152 14.1567 23.7221C14.3662 23.4731 14.5236 23.1978 14.6021 22.8832C14.6806 22.5687 14.7332 22.1885 14.7332 21.7431V21.1925C14.3358 21.0958 13.9333 21.0214 13.5275 20.9697C13.1188 20.918 12.7073 20.8918 12.2954 20.891C11.4172 20.891 10.7751 21.0616 10.3426 21.4154C9.91012 21.7692 9.70034 22.2672 9.70034 22.9227C9.70034 23.5386 9.85773 23.9973 10.1852 24.3118C10.5 24.6395 10.9588 24.7969 11.5616 24.7969ZM22.0858 26.2124C21.8499 26.2124 21.6925 26.1729 21.5877 26.0813C21.4829 26.0026 21.3911 25.8191 21.3126 25.5701L18.2327 15.4388C18.1538 15.1766 18.1145 15.0063 18.1145 14.9145C18.1145 14.7049 18.2193 14.5868 18.4291 14.5868H19.7135C19.9625 14.5868 20.133 14.6262 20.2247 14.7178C20.3295 14.7965 20.4081 14.98 20.4868 15.229L22.6886 23.9056L24.7334 15.229C24.7989 14.9669 24.8774 14.7967 24.9824 14.7178C25.0872 14.6394 25.2707 14.587 25.5066 14.587H26.555C26.8041 14.587 26.9746 14.6262 27.0794 14.7178C27.1842 14.7965 27.276 14.98 27.3284 15.229L29.3993 24.0104L31.6666 15.229C31.7453 14.9669 31.8371 14.7967 31.9288 14.7178C32.0336 14.6394 32.2041 14.587 32.44 14.587H33.6588C33.8686 14.587 33.9865 14.6917 33.9865 14.9145C33.9865 14.9802 33.9733 15.0456 33.9602 15.1242C33.9472 15.2029 33.921 15.3075 33.8686 15.452L30.7099 25.5832C30.6312 25.8454 30.5394 26.0158 30.4346 26.0944C30.3298 26.1729 30.1593 26.2255 29.9366 26.2255H28.8094C28.5604 26.2255 28.39 26.1861 28.2853 26.0944C28.1803 26.0026 28.0886 25.8323 28.0362 25.5701L26.0046 17.1164L23.9863 25.5569C23.9208 25.8191 23.8421 25.9894 23.7373 26.0813C23.6323 26.1729 23.4488 26.2124 23.2129 26.2124H22.0858ZM38.9277 26.5662C38.2462 26.5662 37.5647 26.4875 36.9092 26.3303C36.254 26.1729 35.7428 26.0026 35.4019 25.806C35.1924 25.688 35.0481 25.5569 34.9957 25.439C34.9447 25.3233 34.918 25.1984 34.917 25.072V24.4037C34.917 24.1283 35.0218 23.9973 35.2185 23.9973C35.2972 23.9973 35.3758 24.0104 35.4543 24.0367C35.533 24.0628 35.651 24.1152 35.7821 24.1678C36.245 24.3713 36.7283 24.5251 37.2238 24.6264C37.7372 24.7306 38.2596 24.7833 38.7835 24.7838C39.6092 24.7838 40.2513 24.6395 40.697 24.3513C41.1426 24.0628 41.3785 23.6434 41.3785 23.1061C41.3785 22.7392 41.2606 22.4376 41.0247 22.1885C40.7888 21.9395 40.3432 21.7168 39.7009 21.507L37.8005 20.9173C36.8437 20.6159 36.1359 20.1703 35.7034 19.5806C35.2709 19.0038 35.0481 18.3614 35.0481 17.68C35.0481 17.1297 35.1661 16.6447 35.4019 16.2251C35.6378 15.8058 35.9524 15.4388 36.3456 15.1505C36.7389 14.8489 37.1846 14.6262 37.7087 14.4688C38.233 14.3114 38.7835 14.2461 39.3602 14.2461C39.6485 14.2461 39.9499 14.2592 40.2384 14.2985C40.5398 14.3377 40.8149 14.3901 41.0902 14.4427C41.3524 14.5083 41.6014 14.5738 41.8373 14.6525C42.0732 14.731 42.2567 14.8096 42.3877 14.8884C42.5712 14.9932 42.7023 15.098 42.781 15.2159C42.8596 15.3208 42.8989 15.465 42.8989 15.6486V16.2646C42.8989 16.5397 42.7942 16.6839 42.5975 16.6839C42.4925 16.6839 42.3222 16.6315 42.0995 16.5265C41.3524 16.1859 40.5136 16.0156 39.5829 16.0156C38.8359 16.0156 38.2462 16.1335 37.8398 16.3825C37.4334 16.6315 37.2238 17.0116 37.2238 17.5489C37.2238 17.9159 37.3549 18.2305 37.6171 18.4795C37.8792 18.7285 38.3641 18.9775 39.0588 19.2003L40.9199 19.79C41.8634 20.0916 42.5451 20.5109 42.9513 21.0484C43.3575 21.5859 43.5542 22.2017 43.5542 22.8832C43.5542 23.4468 43.4362 23.958 43.2135 24.4037C42.9776 24.8493 42.6631 25.2424 42.2567 25.5569C41.8505 25.8846 41.3654 26.1205 40.802 26.2911C40.2121 26.4745 39.5961 26.5662 38.9277 26.5662Z" fill="#252F3E"/>
<path id="Vector_3" fill-rule="evenodd" clip-rule="evenodd" d="M41.4051 32.9354C37.093 36.1203 30.8282 37.8111 25.4413 37.8111C17.8921 37.8111 11.0896 35.0192 5.95196 30.3796C5.54555 30.0127 5.91271 29.5146 6.39761 29.8029C11.9548 33.027 18.8095 34.98 25.9001 34.98C30.684 34.98 35.9398 33.9839 40.776 31.9393C41.4968 31.6116 42.1127 32.411 41.4051 32.9354Z" fill="#FF9900"/>
<path id="Vector_4" fill-rule="evenodd" clip-rule="evenodd" d="M43.2007 30.8914C42.6502 30.1836 39.5572 30.5505 38.1547 30.7209C37.7353 30.7735 37.6698 30.4063 38.0499 30.1312C40.5138 28.4012 44.5637 28.8992 45.0357 29.4758C45.5074 30.0656 44.9046 34.1156 42.5978 36.0554C42.2438 36.3568 41.9032 36.1994 42.0603 35.8063C42.5847 34.5088 43.7511 31.5859 43.2007 30.8914Z" fill="#FF9900"/>
</g>
</g>
<defs>
<clipPath id="clip0_1_5439">
<rect width="51" height="51" fill="white" transform="translate(0 0.5)"/>
</clipPath>
</defs>
</svg>
