<svg width="26" height="26" viewBox="0 0 26 26" fill="none" xmlns="http://www.w3.org/2000/svg">
<g id="devicon:figma" clip-path="url(#clip0_1_5421)">
<path id="Vector" d="M9.24219 26.2031C11.6594 26.2031 13.6094 24.2531 13.6094 21.8359V17.4688H9.24219C6.825 17.4688 4.875 19.4188 4.875 21.8359C4.875 24.2531 6.825 26.2031 9.24219 26.2031Z" fill="#0ACF83"/>
<path id="Vector_2" d="M4.875 13.1016C4.875 10.6844 6.825 8.73438 9.24219 8.73438H13.6094V17.4688H9.24219C6.825 17.4688 4.875 15.5187 4.875 13.1016Z" fill="#A259FF"/>
<path id="Vector_3" d="M4.875 4.36719C4.875 1.95 6.825 0 9.24219 0H13.6094V8.73438H9.24219C6.825 8.73438 4.875 6.78437 4.875 4.36719Z" fill="#F24E1E"/>
<path id="Vector_4" d="M13.6094 0H17.9766C20.3937 0 22.3438 1.95 22.3438 4.36719C22.3438 6.78437 20.3937 8.73438 17.9766 8.73438H13.6094V0Z" fill="#FF7262"/>
<path id="Vector_5" d="M22.3438 13.1016C22.3438 15.5187 20.3937 17.4688 17.9766 17.4688C15.5594 17.4688 13.6094 15.5187 13.6094 13.1016C13.6094 10.6844 15.5594 8.73438 17.9766 8.73438C20.3937 8.73438 22.3438 10.6844 22.3438 13.1016Z" fill="#1ABCFE"/>
</g>
<defs>
<clipPath id="clip0_1_5421">
<rect width="26" height="26" fill="white"/>
</clipPath>
</defs>
</svg>
