<svg width="55" height="56" viewBox="0 0 55 56" fill="none" xmlns="http://www.w3.org/2000/svg">
<g id="cib:ibm">
<path id="Vector" d="M0 37.4997H10.6975V39.0277H0V37.4997ZM0 34.5606H10.6975V36.092H0V34.5606ZM3.04391 31.625H7.63641V33.165H3.04391V31.625ZM3.04391 28.6997H7.63641V30.2397H3.04391V28.6997ZM3.04391 25.7606H7.63641V27.3006H3.04391V25.7606ZM3.04391 22.825H7.63641V24.365H3.04391V22.825ZM0 19.8997H10.6975V21.4397H0V19.8997ZM0 16.9727H10.6975V18.5006H0V16.9727ZM12.2186 36.092H28.6636C28.9403 35.6177 29.1569 35.1003 29.2806 34.5606H12.2186V36.092ZM27.3831 28.6997H15.2814V30.2397H28.6739C28.3335 29.6602 27.9011 29.1401 27.3934 28.6997H27.3831ZM15.2711 25.7606V27.3006H27.3831C27.9039 26.8727 28.3233 26.3519 28.6739 25.7606H15.2711ZM28.6636 19.8997H12.2186V21.4397H29.2703C29.138 20.9015 28.9339 20.3835 28.6636 19.8997ZM23.6156 16.9727H12.2186V18.5006H27.5361C26.467 17.5179 25.0678 16.9725 23.6156 16.9727ZM15.2711 22.825H19.855V24.365H15.2711V22.825ZM24.4475 24.365H29.2377C29.3746 23.8631 29.444 23.3452 29.4439 22.825H24.4475V24.365ZM15.2711 31.625H19.855V33.165H15.2711V31.625ZM24.4475 31.625V33.165H29.4439C29.4439 32.6356 29.37 32.1183 29.2377 31.625H24.4475ZM12.2186 39.0208L23.6053 39.0277C25.1367 39.0277 26.5134 38.4485 27.5447 37.4997H12.2186V39.0208ZM30.5611 37.4997H38.1872V39.0277H30.5611V37.4997ZM30.5611 34.5606H38.1872V36.092H30.5611V34.5606ZM33.605 31.625H38.1889V33.165H33.605V31.625ZM33.605 28.6997H38.1889V30.2397H33.605V28.6997ZM40.3202 19.8997H30.5628V21.4397H40.8478L40.3202 19.8997ZM39.3061 16.9727H30.5611V18.5006H39.8355L39.3061 16.9727ZM47.355 37.4997H55V39.0277H47.355V37.4997ZM47.355 34.5606H55V36.092H47.355V34.5606ZM47.355 31.625H51.9389V33.165H47.355V31.625ZM47.355 28.6997H51.9389V30.2397H47.355V28.6997ZM47.355 27.3006H51.9389V25.7606H43.2094L42.7711 27.005L42.3431 25.7606H33.605V27.3006H38.1889V25.8861L38.6822 27.3006H46.872L47.355 25.8861V27.3006ZM51.9389 22.825H44.2234L43.6941 24.365H51.9389V22.825ZM46.255 16.9727L45.7256 18.5006H55V16.9727H46.255ZM42.7711 39.0208L43.3005 37.4997H42.2434L42.7711 39.0208ZM41.7605 36.092H43.7903L44.3386 34.5606H41.2225L41.7605 36.092ZM40.7292 33.165H44.8216L45.3578 31.625H40.193L40.7292 33.165ZM39.71 30.2397H45.8511L46.3684 28.6997H39.1823L39.71 30.2397ZM33.605 24.365H41.8602L41.3308 22.825H33.605V24.365ZM44.715 21.4397H55V19.8997H45.2323L44.715 21.4397Z" fill="black"/>
</g>
</svg>
