<svg width="111" height="24" viewBox="0 0 111 24" fill="none" xmlns="http://www.w3.org/2000/svg">
<g id="logos:meta" clip-path="url(#clip0_1_5454)">
<path id="Vector" d="M3.63677 15.5449C3.63677 16.8563 3.91904 17.8632 4.28781 18.4723C4.77127 19.2702 5.49255 19.6084 6.22814 19.6084C7.17641 19.6084 8.04403 19.3682 9.71597 17.0091C11.0556 15.1183 12.6341 12.4644 13.6959 10.8007L15.4943 7.98186C16.7437 6.0242 18.1897 3.84805 19.8475 2.37295C21.2014 1.16877 22.6616 0.5 24.131 0.5C26.5982 0.5 28.9482 1.95829 30.7466 4.69352C32.7149 7.68927 33.6703 11.4624 33.6703 15.3562C33.6703 17.671 33.223 19.3717 32.4619 20.7155C31.7265 22.0149 30.2935 23.3133 27.8825 23.3133V19.6084C29.9468 19.6084 30.4619 17.6733 30.4619 15.4588C30.4619 12.3032 29.7406 8.80123 28.1517 6.29887C27.0244 4.52389 25.5632 3.43936 23.9554 3.43936C22.2167 3.43936 20.8175 4.77734 19.2448 7.16248C18.4089 8.42969 17.5506 9.97401 16.5869 11.7167L15.5261 13.6339C13.395 17.4882 12.8552 18.3661 11.7898 19.8149C9.92236 22.3518 8.3276 23.3136 6.22814 23.3136C3.73758 23.3136 2.16277 22.2133 1.18761 20.5556C0.390885 19.2045 0 17.432 0 15.4124L3.63677 15.5449Z" fill="#0081FB"/>
<path id="Vector_2" d="M2.86768 4.95514C4.53484 2.33337 6.94129 0.5 9.7009 0.5C11.2991 0.5 12.888 0.982558 14.5472 2.36433C16.362 3.87547 18.2965 6.36345 20.7096 10.4639L21.5746 11.9354C23.6637 15.4852 24.8522 17.3115 25.5477 18.1726C26.4422 19.2786 27.0687 19.6084 27.8826 19.6084C29.9467 19.6084 30.4618 17.6733 30.4618 15.4588L33.6702 15.3562C33.6702 17.671 33.2229 19.3717 32.4618 20.7155C31.7264 22.0149 30.2933 23.3133 27.8824 23.3133C26.3836 23.3133 25.056 22.9814 23.5876 21.5684C22.459 20.4839 21.1393 18.5572 20.1241 16.8254L17.1045 11.6798C15.5891 9.09735 14.1994 7.17199 13.3951 6.29998C12.5297 5.36229 11.4175 4.22998 9.64236 4.22998C8.20565 4.22998 6.98552 5.25857 5.96462 6.83163L2.86768 4.95514Z" fill="url(#paint0_linear_1_5454)"/>
<path id="Vector_3" d="M9.64226 4.2302C8.20555 4.2302 6.98541 5.25857 5.96452 6.83163C4.52065 9.05423 3.63677 12.3653 3.63677 15.5449C3.63677 16.8563 3.91904 17.8632 4.28781 18.4723L1.18718 20.5556C0.391102 19.2045 0 17.432 0 15.4124C0 11.7395 0.98816 7.91131 2.86757 4.95514C4.53474 2.33337 6.94118 0.5 9.70079 0.5L9.64226 4.2302Z" fill="url(#paint1_linear_1_5454)"/>
<path id="Vector_4" d="M40.7397 1.2207H44.9467L52.0997 14.4214L59.254 1.2207H63.3694V22.9115H59.9375V6.28734L53.6639 17.7993H50.4442L44.1719 6.28734V22.9115H40.74L40.7397 1.2207ZM74.1228 9.3083C71.6617 9.3083 70.1792 11.1976 69.8246 13.5376H78.1777C78.0056 11.1271 76.6426 9.3083 74.1228 9.3083ZM66.4222 14.8703C66.4222 9.94699 69.5412 6.36364 74.1826 6.36364C78.7479 6.36364 81.4735 9.90143 81.4735 15.133V16.0946H69.8246C70.2378 18.6399 71.8935 20.3552 74.5631 20.3552C76.6929 20.3552 78.0243 19.6921 79.2864 18.4798L81.1097 20.7577C79.3918 22.3688 77.2069 23.298 74.4412 23.298C69.417 23.298 66.4219 19.5608 66.4219 14.8703M85.6349 9.61836H82.476V6.75198H85.6351V2.01133H88.9463V6.75198H93.7457V9.61858H88.9463V16.8846C88.9463 19.3653 89.7237 20.2468 91.6345 20.2468C92.5069 20.2468 93.0069 20.1703 93.7457 20.0449V22.8805C92.8254 23.1457 91.9472 23.2675 90.9965 23.2675C87.4217 23.2675 85.6351 21.2752 85.6351 17.2871L85.6349 9.61836ZM107.688 12.4062C107.023 10.6934 105.54 9.43215 103.36 9.43215C100.526 9.43215 98.7125 11.4829 98.7125 14.8239C98.7125 18.0808 100.382 20.2309 103.224 20.2309C105.458 20.2309 107.052 18.9051 107.688 17.2555V12.4062ZM111 22.911H107.749V20.6491C106.841 21.9809 105.187 23.2985 102.51 23.2985C98.2031 23.2985 95.3249 19.6207 95.3249 14.8239C95.3249 9.98171 98.2722 6.36386 102.692 6.36386C104.877 6.36386 106.591 7.25511 107.749 8.82795V6.75198H111L111 22.911Z" fill="#FCFCFC"/>
</g>
<defs>
<linearGradient id="paint0_linear_1_5454" x1="430.345" y1="1276.54" x2="2746.17" y2="1391.2" gradientUnits="userSpaceOnUse">
<stop stop-color="#0064E1"/>
<stop offset="0.4" stop-color="#0064E1"/>
<stop offset="0.83" stop-color="#0073EE"/>
<stop offset="1" stop-color="#0082FB"/>
</linearGradient>
<linearGradient id="paint1_linear_1_5454" x1="526.899" y1="1660.74" x2="526.899" y2="788.824" gradientUnits="userSpaceOnUse">
<stop stop-color="#0082FB"/>
<stop offset="1" stop-color="#0064E0"/>
</linearGradient>
<clipPath id="clip0_1_5454">
<rect width="111" height="23" fill="white" transform="translate(0 0.5)"/>
</clipPath>
</defs>
</svg>
