<svg width="51" height="52" viewBox="0 0 51 52" fill="none" xmlns="http://www.w3.org/2000/svg">
<g id="logos:nextjs-icon" clip-path="url(#clip0_1_5427)">
<g id="Mask group">
<mask id="mask0_1_5427" style="mask-type:luminance" maskUnits="userSpaceOnUse" x="0" y="0" width="51" height="52">
<g id="Group">
<path id="Vector" d="M25.5 51.5C39.5833 51.5 51 40.0833 51 26C51 11.9167 39.5833 0.5 25.5 0.5C11.4167 0.5 0 11.9167 0 26C0 40.0833 11.4167 51.5 25.5 51.5Z" fill="white"/>
</g>
</mask>
<g mask="url(#mask0_1_5427)">
<g id="Group_2">
<path id="Vector_2" d="M25.5 51.5C39.5833 51.5 51 40.0833 51 26C51 11.9167 39.5833 0.5 25.5 0.5C11.4167 0.5 0 11.9167 0 26C0 40.0833 11.4167 51.5 25.5 51.5Z" fill="black"/>
<path id="Vector_3" d="M42.3605 45.1314L19.59 15.8008H15.2998V36.1922H18.7319V20.1597L39.6663 47.2068C40.6095 46.5757 41.5096 45.8824 42.3605 45.1314Z" fill="url(#paint0_linear_1_5427)"/>
<path id="Vector_4" d="M32.5835 15.8008H35.9836V36.2008H32.5835V15.8008Z" fill="url(#paint1_linear_1_5427)"/>
</g>
</g>
</g>
</g>
<defs>
<linearGradient id="paint0_linear_1_5427" x1="1520.77" y1="1786.63" x2="2424.43" y2="2906.68" gradientUnits="userSpaceOnUse">
<stop stop-color="white"/>
<stop offset="1" stop-color="white" stop-opacity="0"/>
</linearGradient>
<linearGradient id="paint1_linear_1_5427" x1="202.587" y1="15.8008" x2="196.834" y2="1513.91" gradientUnits="userSpaceOnUse">
<stop stop-color="white"/>
<stop offset="1" stop-color="white" stop-opacity="0"/>
</linearGradient>
<clipPath id="clip0_1_5427">
<rect width="51" height="51" fill="white" transform="translate(0 0.5)"/>
</clipPath>
</defs>
</svg>
