<svg width="99" height="18" viewBox="0 0 99 18" fill="none" xmlns="http://www.w3.org/2000/svg">
<g id="logos:sendgrid" clip-path="url(#clip0_1_5447)">
<path id="Vector" d="M34.2467 11.3769C34.6583 10.4553 35.5209 9.82806 36.6586 9.82806C37.796 9.82806 38.6392 10.3573 38.9923 11.3769L34.2467 11.3769ZM41.6983 12.5537C41.6983 9.72964 39.6391 7.47468 36.6389 7.47468C35.969 7.47333 35.3054 7.60429 34.6862 7.86005C34.067 8.11581 33.5044 8.49133 33.0306 8.96506C32.5569 9.43878 32.1814 10.0014 31.9257 10.6206C31.67 11.2398 31.539 11.9034 31.5404 12.5734C31.5404 15.397 33.6585 17.6717 36.7176 17.6717C38.8361 17.6717 40.3599 16.6498 41.2173 15.1847L39.0864 13.9141C38.6344 14.7815 37.7666 15.3187 36.7371 15.3187C35.3252 15.3187 34.4427 14.6125 34.1289 13.534L41.6983 13.534L41.6983 12.5537ZM96.392 12.5537C96.392 11.1025 95.3329 9.9259 93.8822 9.9259C92.3918 9.9259 91.2542 11.0435 91.2542 12.5537C91.2542 14.0634 92.3918 15.2009 93.882 15.2009C95.3329 15.2009 96.3918 14.0048 96.3918 12.5537M88.6265 12.5734C88.6265 9.10257 91.1755 7.47468 93.3914 7.47468C94.666 7.47468 95.6661 7.94532 96.3133 8.63155L96.3133 3.16064L99 3.16064L99 17.4756L96.3135 17.4756L96.3135 16.3775C95.6663 17.1425 94.6272 17.6717 93.3526 17.6717C91.2738 17.6717 88.6265 16.0245 88.6265 12.5734ZM86.6529 6.17859C86.8639 6.17859 87.0729 6.13702 87.2678 6.05625C87.4628 5.97547 87.64 5.85708 87.7892 5.70783C87.9384 5.55858 88.0567 5.3814 88.1375 5.18641C88.2182 4.99142 88.2597 4.78243 88.2597 4.57139C88.263 4.35828 88.2239 4.14665 88.1446 3.9488C88.0653 3.75096 87.9475 3.57086 87.798 3.41898C87.6484 3.26711 87.4702 3.1465 87.2736 3.06418C87.077 2.98185 86.866 2.93945 86.6529 2.93945C86.4397 2.93945 86.2287 2.98185 86.0321 3.06418C85.8355 3.1465 85.6573 3.26711 85.5077 3.41898C85.3582 3.57086 85.2404 3.75096 85.1611 3.9488C85.0818 4.14665 85.0427 4.35828 85.046 4.57139C85.046 4.78243 85.0875 4.99142 85.1682 5.18641C85.249 5.3814 85.3673 5.55858 85.5165 5.70783C85.6657 5.85708 85.8429 5.97547 86.0379 6.05625C86.2328 6.13702 86.4418 6.17859 86.6529 6.17859ZM85.3096 7.67094L87.9959 7.67094L87.9959 17.4756L85.3096 17.4756L85.3096 10.279L84.3347 10.279L85.3096 7.67094ZM78.153 7.67094L80.8198 7.67094L80.8198 9.27892C81.3101 8.25914 82.1926 7.67094 83.526 7.67094L84.6046 7.67094L83.6305 10.2788L82.8984 10.2788C81.467 10.2788 80.8395 11.0242 80.8395 12.8478L80.8395 17.4756L78.153 17.4756L78.153 7.67094ZM63.0394 10.318C63.0394 6.23931 66.1183 2.96457 70.3538 2.96457C72.4725 2.96457 74.2541 3.72738 75.5442 4.94303C76.0669 5.43596 76.512 6.00522 76.8642 6.63144L74.472 8.0826C73.5895 6.4549 72.2364 5.61166 70.3735 5.61166C67.7653 5.61166 65.7455 7.74925 65.7455 10.318C65.7455 12.9458 67.7263 15.0244 70.4714 15.0244C72.5502 15.0244 74.0207 13.8478 74.5306 12.024L70.04 12.024L70.04 9.4162L77.472 9.4162L77.472 10.5143C77.472 14.3577 74.7268 17.6717 70.4714 17.6717C66.0005 17.6717 63.0394 14.2792 63.0394 10.318ZM59.8012 12.5537C59.8012 11.1025 58.7424 9.9259 57.2914 9.9259C55.801 9.9259 54.6637 11.0435 54.6637 12.5537C54.6637 14.0634 55.801 15.2009 57.2914 15.2009C58.7424 15.2009 59.8012 14.0048 59.8012 12.5537ZM52.0359 12.5734C52.0359 9.10257 54.585 7.47468 56.8011 7.47468C58.0755 7.47468 59.0757 7.94532 59.7227 8.63155L59.7227 3.16064L62.4093 3.16064L62.4093 17.4756L59.7229 17.4756L59.7229 16.3775C59.0757 17.1425 58.0364 17.6717 56.7618 17.6717C54.6832 17.6717 52.0359 16.0245 52.0359 12.5734ZM42.3264 7.67094L44.9934 7.67094L44.9934 8.76903C45.6208 7.96485 46.5818 7.47468 47.6994 7.47468C50.0134 7.47468 51.4058 8.9651 51.4058 11.4946L51.4058 17.4756L48.68 17.4756L48.68 11.8477C48.68 10.5338 48.0721 9.76909 46.8759 9.76909C45.8562 9.76909 45.0129 10.4748 45.0129 12.1221L45.0129 17.4756L42.3264 17.4756L42.3264 7.67094ZM20.3911 15.1029L22.8816 13.1419C23.5875 14.3577 24.7053 15.0637 25.9798 15.0637C27.3724 15.0637 28.1176 14.1616 28.1176 13.1811C28.1176 12.0045 26.6857 11.6323 25.1563 11.1613C23.2347 10.5731 21.0971 9.82787 21.0971 7.08236C21.0971 4.78815 23.0976 2.96438 25.8622 2.96438C28.1961 2.96438 29.5293 3.84687 30.6865 5.04319L28.4312 6.7492C27.843 5.8669 26.9997 5.39607 25.8817 5.39607C24.6073 5.39607 23.9211 6.08249 23.9211 6.98452C23.9211 8.0826 25.2937 8.4554 26.8232 8.9651C28.7645 9.59255 30.9609 10.4553 30.9609 13.2008C30.9609 15.4755 29.1567 17.6717 25.9995 17.6717C23.4112 17.6717 21.6857 16.5738 20.3911 15.1029Z" fill="#212F38"/>
<path id="Vector_2" d="M17.1773 0.298828L17.1773 11.7503L11.4515 11.7503L11.4515 17.4757L0.000193373 17.4757L4.45503e-09 6.02459L5.72576 6.02459L5.72576 0.298828L17.1773 0.298828Z" fill="#9DD6E3"/>
<path id="Vector_3" d="M0.000244145 17.4758L5.726 17.4758L5.726 11.75L0.000244141 11.75L0.000244145 17.4758Z" fill="#3F72AB"/>
<path id="Vector_4" d="M11.4516 11.7503L17.1773 11.7503L17.1773 6.02439L11.4516 6.02439L11.4516 11.7503ZM5.72583 6.02459L11.4516 6.02439L11.4516 0.298828L5.72583 0.298828L5.72583 6.02459Z" fill="#00A9D1"/>
<path id="Vector_5" d="M5.72583 11.7492L11.4516 11.7492L11.4516 6.02344L5.72583 6.02344L5.72583 11.7492Z" fill="#2191C4"/>
<path id="Vector_6" d="M11.4514 6.02459L17.1772 6.02459L17.1772 0.298828L11.4514 0.298828L11.4514 6.02459Z" fill="#3F72AB"/>
</g>
<defs>
<clipPath id="clip0_1_5447">
<rect width="99" height="17.4023" fill="white" transform="translate(0 0.298828)"/>
</clipPath>
</defs>
</svg>
