<svg width="157" height="24" viewBox="0 0 157 24" fill="none" xmlns="http://www.w3.org/2000/svg">
<path d="M13.9287 13.3772C15.6401 13.3864 16.9909 12.002 16.9878 10.2356C16.9848 8.46913 15.6462 7.07249 13.9409 7.0572C12.2814 7.04192 10.9031 8.49052 10.9062 10.2478C10.9092 11.9898 12.2417 13.3681 13.9287 13.3772ZM13.9776 14.181C11.8994 14.2238 10.1911 12.491 10.1452 10.2997C10.1055 8.12073 11.8108 6.27484 13.892 6.25039C15.9915 6.21983 17.7183 7.98015 17.758 10.1805C17.7977 12.3657 16.123 14.1382 13.9776 14.181Z" fill="#16799A"/>
<path d="M21.8164 20.1609L22.0578 20.1547C22.0639 20.1547 22.07 20.1517 22.0731 20.1456C22.2106 19.9255 22.4337 19.7147 22.4612 19.4793C22.504 19.134 22.2595 18.914 21.908 18.9262C21.5658 18.9384 21.3152 19.1554 21.3732 19.5038C21.416 19.7391 21.6513 19.9378 21.8011 20.1547C21.8041 20.1609 21.8102 20.1609 21.8164 20.1609ZM20.8323 8.54764C20.1599 9.14358 19.4876 9.73952 18.8122 10.3324C18.8061 10.3385 18.7969 10.3385 18.7878 10.3324L18.6808 10.2499C18.6716 10.2407 18.6716 10.2316 18.6747 10.2254C18.7511 10.0604 18.7969 9.85871 18.9192 9.74563C19.5548 9.14969 20.2119 8.5782 20.9026 7.96086C20.9087 7.9517 20.9209 7.95475 20.9301 7.96086C21.6299 8.79824 22.3145 9.60811 22.996 10.4241C23.5492 11.0873 24.087 11.7688 24.6494 12.4258C24.8633 12.6734 24.9 12.8843 24.7686 13.196C24.0657 14.8371 23.3841 16.4905 22.6904 18.1347C22.5621 18.4403 22.4765 18.6756 22.7087 19.0209C23.0357 19.5038 22.7607 20.1731 22.2412 20.3992C21.7736 20.6009 21.2113 20.3137 21.0523 19.7911C20.8751 19.2135 21.196 18.6939 21.7644 18.5258C21.9692 18.4678 22.2075 18.2783 22.2931 18.0827C22.993 16.4813 23.6653 14.8677 24.3224 13.2479C24.3927 13.0768 24.3988 12.7712 24.301 12.6459C23.2161 11.2951 22.1036 9.96873 20.9973 8.63932C20.9637 8.59959 20.9118 8.58125 20.8567 8.54764C20.8476 8.54153 20.8384 8.54153 20.8323 8.54764Z" fill="white"/>
<path d="M18.9442 0.259923L18.7272 0.256866C18.7211 0.256866 18.715 0.259923 18.7119 0.262979C18.553 0.498299 18.2627 0.742788 18.281 0.956716C18.3024 1.18592 18.6111 1.38152 18.8036 1.59239C18.8128 1.5985 18.8219 1.5985 18.828 1.59239C19.0267 1.39068 19.3415 1.2012 19.369 0.978108C19.3934 0.761124 19.1123 0.507468 18.9595 0.269091C18.9564 0.262979 18.9503 0.259923 18.9442 0.259923ZM21.9544 1.57711C21.9667 1.58016 21.9728 1.58933 21.9697 1.5985C21.8108 2.58257 21.6702 3.4994 21.5083 4.41318C21.4807 4.56293 21.3768 4.74018 21.2546 4.82269C20.1177 5.58367 18.9686 6.3263 17.8348 7.06893C17.8256 7.07505 17.8165 7.07199 17.8104 7.06893C16.7224 6.21017 16.1509 5.47365 16.3495 5.04273C16.3556 5.03051 16.3709 5.03051 16.3801 5.03968C16.6215 5.31167 16.8569 5.55922 17.0708 5.8251C17.2908 6.10015 17.4925 6.39048 17.7003 6.67164C17.7065 6.68081 17.7156 6.68081 17.7248 6.6747C18.8983 5.90761 19.9191 5.24444 20.9306 4.57209C21.0315 4.50486 21.1354 4.38261 21.1568 4.27259C21.2974 3.49329 21.4166 2.71092 21.548 1.898C21.548 1.88883 21.5419 1.8766 21.5327 1.8766C20.9795 1.72686 20.4753 1.57405 19.9649 1.4732C19.8243 1.44569 19.6257 1.54043 19.5065 1.64128C19.1398 1.95301 18.7639 2.05386 18.3452 1.78798C17.9387 1.53432 17.7951 1.0973 17.9784 0.703058C18.1129 0.409672 18.4552 0.122397 18.7578 0.0429388C19.2162 -0.0823615 19.5279 0.23853 19.7235 0.696946C19.7938 0.868088 19.9924 1.04229 20.1697 1.0973C20.7351 1.28066 21.3188 1.41208 21.9544 1.57711Z" fill="white"/>
<path d="M21.1691 17.6633C21.1691 17.6694 21.166 17.6755 21.163 17.6786C20.9735 17.81 20.7749 18.0484 20.6068 18.027C20.4295 18.0025 20.2828 17.7367 20.1239 17.5686C20.1178 17.5625 20.1178 17.5502 20.1239 17.5441C20.2828 17.376 20.4326 17.1102 20.6068 17.0888C20.7779 17.0704 20.9766 17.3119 21.163 17.4463C21.1691 17.4494 21.1721 17.4555 21.1721 17.4616C21.1691 17.5288 21.1691 17.5961 21.1691 17.6633ZM22.254 13.7423C22.309 13.5742 22.3121 13.2961 22.2143 13.18C21.5694 12.419 20.8879 11.6886 20.2034 10.9307C20.1972 10.9215 20.185 10.9215 20.1759 10.9307C19.5249 11.5694 18.9106 12.1623 18.3147 12.7735C18.2383 12.8499 18.2413 13.0089 18.2108 13.1372C18.2077 13.1464 18.2138 13.1556 18.2199 13.1586C18.2658 13.18 18.3116 13.1983 18.3575 13.2167C18.3636 13.2197 18.3727 13.2197 18.3789 13.2136C18.9565 12.6544 19.5371 12.092 20.1636 11.4869C20.1728 11.4808 20.182 11.4808 20.1911 11.4869C20.7321 12.089 21.2577 12.6421 21.7436 13.232C21.8506 13.3634 21.8781 13.6537 21.82 13.8279C21.5572 14.6194 21.2363 15.3926 20.9643 16.1842C20.8665 16.4714 20.7657 16.6548 20.4326 16.7312C19.9772 16.8382 19.748 17.3974 19.913 17.8192C20.0933 18.2837 20.567 18.4976 20.9918 18.3112C21.4411 18.1126 21.5725 17.6114 21.3708 17.104C21.2852 16.8871 21.2485 16.5876 21.3188 16.3736C21.6061 15.4874 21.9545 14.6255 22.254 13.7423Z" fill="white"/>
<path d="M26.5906 13.9136C26.3889 13.8891 26.2177 13.5804 26.0343 13.3879C26.0282 13.3787 26.0282 13.3665 26.0343 13.3604C26.2208 13.1679 26.3919 12.8592 26.5936 12.8378C26.7892 12.8164 27.0184 13.0945 27.2323 13.2473C27.2385 13.2504 27.2415 13.2565 27.2415 13.2626C27.2415 13.3421 27.2415 13.4185 27.2385 13.4979C27.2385 13.504 27.2354 13.5102 27.2323 13.5132C27.0154 13.663 26.7861 13.938 26.5906 13.9136ZM27.2385 12.8256C26.939 12.5139 26.942 12.2082 27.0398 11.8415C27.159 11.4014 27.0856 11.0469 26.7067 10.7352C26.2605 10.3715 25.8724 9.93145 25.4537 9.52498C24.1579 8.25975 22.8621 6.99758 21.5541 5.72318C21.548 5.71707 21.5358 5.71402 21.5296 5.72013C20.4631 6.49332 19.424 7.23596 18.3971 7.99999C18.3146 8.06111 18.3207 8.2567 18.2871 8.39117C18.3268 8.40645 18.3696 8.42479 18.4124 8.44007C18.4185 8.44312 18.4246 8.44312 18.4307 8.43701C19.4454 7.70354 20.46 6.97008 21.4991 6.22133C21.5052 6.21522 21.5174 6.21522 21.5235 6.22133C23.1402 7.8044 24.7324 9.35995 26.3247 10.9186C26.8626 11.4442 26.7831 12.196 26.181 12.6392C25.7807 12.9356 25.689 13.4307 25.9671 13.8372C26.2147 14.2008 26.7373 14.2895 27.0948 14.0266C27.4738 13.7455 27.5746 13.1801 27.2385 12.8256Z" fill="white"/>
<path d="M6.16657 19.6107C6.16657 19.5342 6.16657 19.4548 6.16657 19.3784C6.16657 19.3692 6.16351 19.3662 6.16046 19.36C5.94347 19.2103 5.71732 18.9291 5.51867 18.9536C5.31697 18.975 5.14583 19.2836 4.96246 19.4762C4.95635 19.4823 4.95635 19.4945 4.96246 19.5006C5.14583 19.6962 5.31391 20.0018 5.51867 20.0293C5.71121 20.0538 5.94347 19.7757 6.1574 19.629C6.16351 19.6259 6.16657 19.6168 6.16657 19.6107ZM6.56081 8.51392C6.55164 8.5078 6.54247 8.5078 6.5333 8.51697C5.37504 9.91361 4.23511 11.2766 3.11657 12.658C3.02794 12.765 3.02183 13.0217 3.0799 13.1653C3.76141 14.837 4.45515 16.5026 5.16722 18.1559C5.24057 18.321 5.45755 18.4829 5.63175 18.5257C6.08405 18.6327 6.3591 18.8864 6.41717 19.357C6.47218 19.8276 6.27964 20.173 5.86707 20.3808C5.4545 20.5886 5.09387 20.4327 4.82494 20.121C4.53155 19.7757 4.54989 19.3692 4.74242 18.9444C4.82799 18.7549 4.86467 18.4738 4.79132 18.2904C4.11592 16.6187 3.42218 14.9531 2.71011 13.2967C2.55425 12.9392 2.55425 12.6947 2.82319 12.3799C4.05785 10.9282 5.26502 9.45214 6.51191 7.94242C6.52108 7.93325 6.5333 7.93325 6.54247 7.94242C7.24232 8.68811 8.06441 9.25349 8.69092 10.0114C8.55033 10.155 8.60534 10.1 8.46476 10.2437C7.83826 9.67524 7.21176 9.1068 6.56081 8.51392Z" fill="white"/>
<path d="M0.772439 12.8388C0.971086 12.8174 1.19724 13.0955 1.41117 13.2483C1.41728 13.2513 1.42033 13.2574 1.42033 13.2636C1.42033 13.343 1.42033 13.4225 1.42033 13.4989C1.42033 13.505 1.41728 13.5111 1.41117 13.5142C1.19724 13.6639 0.964974 13.939 0.769383 13.9145C0.567679 13.8901 0.399593 13.5814 0.216226 13.3889C0.207059 13.3797 0.207059 13.3705 0.216226 13.3614C0.399593 13.1688 0.570735 12.8601 0.772439 12.8388ZM8.9567 7.97649C8.03681 7.27969 7.09553 6.6104 6.17564 5.91056C5.94338 5.7333 5.81502 5.77303 5.62248 5.96251C3.99358 7.56697 2.36467 9.17142 0.70826 10.7453C0.356808 11.0815 0.277349 11.4299 0.396537 11.8547C0.506557 12.2367 0.479052 12.5331 0.191777 12.8418C-0.119945 13.178 -0.0313182 13.7311 0.310966 14.0031C0.781607 14.379 1.57925 14.1315 1.59453 13.398C1.6037 13.0924 1.46006 12.8051 1.2278 12.6187C0.592128 12.0992 0.564623 11.4268 1.16362 10.8523C1.5273 10.5039 1.89097 10.1524 2.25465 9.79793C3.46793 8.61521 4.6812 7.42944 5.91281 6.22534C5.92198 6.21922 5.93115 6.21922 5.93726 6.22534C6.97634 6.98325 7.98486 7.72588 8.99643 8.46546C9.00254 8.46852 9.00865 8.47158 9.01477 8.46852C9.06672 8.44407 9.11867 8.41962 9.17063 8.39517C9.1798 8.38906 9.18285 8.37684 9.1798 8.36767C9.1095 8.23014 9.06366 8.05594 8.9567 7.97649Z" fill="white"/>
<path d="M6.73764 17.0224C6.93323 17.001 7.16244 17.2791 7.37636 17.4288C7.38247 17.4319 7.38553 17.4411 7.38553 17.4472C7.38247 17.5236 7.38248 17.603 7.38248 17.6794C7.38248 17.6886 7.37942 17.6917 7.37636 17.6978C7.15938 17.8445 6.93017 18.1226 6.73458 18.0981C6.53288 18.0706 6.36173 17.765 6.17837 17.5694C6.17226 17.5633 6.17226 17.5511 6.17837 17.545C6.36173 17.3524 6.53593 17.0407 6.73764 17.0224ZM7.25717 10.9346C7.24801 10.9254 7.23884 10.9254 7.22967 10.9346C6.56038 11.6803 5.94916 12.3863 5.31043 13.0586C5.07206 13.3092 5.07511 13.5201 5.19124 13.8226C5.52436 14.6692 5.83914 15.5249 6.12641 16.3928C6.19059 16.5915 6.16614 16.8696 6.08057 17.0652C5.86359 17.5694 5.97361 18.0676 6.41063 18.2876C6.85377 18.5138 7.33969 18.3029 7.52917 17.8017C7.69725 17.3524 7.43749 16.8879 6.93934 16.6954C6.79265 16.6373 6.61234 16.5181 6.55733 16.3806C6.21199 15.5157 5.89415 14.6417 5.58854 13.7615C5.5427 13.6301 5.55187 13.4009 5.63438 13.3062C6.14475 12.698 6.68568 12.1112 7.24495 11.4847C7.25106 11.4786 7.26634 11.4786 7.27246 11.4847C7.80727 12.0104 8.30236 12.5085 8.81885 12.9822C8.91664 13.0739 9.0939 13.0769 9.23753 13.1136C9.2467 13.1167 9.25587 13.1106 9.25893 13.1014C9.27726 13.0525 9.2956 13.0005 9.31394 12.9486C9.31394 12.9425 9.31394 12.9333 9.30782 12.9272C8.63548 12.2762 7.96314 11.6222 7.25717 10.9346Z" fill="white"/>
<path d="M8.47647 0.262862C8.54676 0.259806 8.61705 0.25675 8.68734 0.253694C8.69345 0.253694 8.69956 0.25675 8.70262 0.259806C8.87071 0.489014 9.16715 0.727391 9.15492 0.944375C9.13659 1.17053 8.83403 1.37834 8.64455 1.59227C8.63844 1.59838 8.62622 1.59838 8.6201 1.59227C8.4184 1.39362 8.10057 1.21637 8.07 0.993273C8.0425 0.776289 8.31449 0.513464 8.46119 0.272031C8.46424 0.265919 8.47036 0.262862 8.47647 0.262862ZM11.2942 5.18626C11.1597 5.2107 10.9855 5.18931 10.8969 5.27183C10.5424 5.60494 10.2032 5.9564 9.88228 6.32313C9.68669 6.55234 9.52777 6.57373 9.27717 6.40259C8.38478 5.79748 7.47712 5.21987 6.58168 4.62087C6.45638 4.5353 6.30969 4.39167 6.28218 4.25109C6.13549 3.49011 6.02547 2.72609 5.88794 1.89483C5.88794 1.88566 5.89406 1.87343 5.90322 1.87343C6.41054 1.73591 6.85062 1.632 7.28153 1.50059C7.56269 1.41502 7.76745 1.42418 8.00888 1.67173C8.4184 2.09042 9.03268 2.00179 9.35051 1.54337C9.66529 1.09412 9.53083 0.418724 9.07852 0.143674C8.58038 -0.161937 7.97527 0.0305982 7.76745 0.620427C7.64826 0.962712 7.45878 1.09107 7.14706 1.1583C6.60002 1.27749 6.05603 1.4303 5.47231 1.58005C5.46314 1.58005 5.45703 1.59227 5.45703 1.60144C5.619 2.56411 5.7657 3.49623 5.9399 4.42223C5.97046 4.5842 6.10493 4.77062 6.24245 4.85925C7.36404 5.61105 8.49786 6.34146 9.6164 7.07188C9.62251 7.07799 9.63168 7.07493 9.63779 7.06882C10.2062 6.48205 10.7563 5.91055 11.3095 5.34212C11.3125 5.33601 11.3156 5.32989 11.3156 5.32378L11.2942 5.18626Z" fill="white"/>
<path d="M17.758 10.1822C17.758 12.4071 16.0465 14.2071 13.9317 14.2071C11.8199 14.2071 10.1055 12.4071 10.1055 10.1822C10.1055 7.9574 11.8199 6.1543 13.9317 6.1543C16.0465 6.1543 17.758 7.9574 17.758 10.1822Z" fill="white"/>
<path d="M15.5056 8.57595C15.5484 8.62179 15.579 8.67986 15.6187 8.72265C15.6523 8.76237 15.7043 8.78988 15.7379 8.83572C15.8051 8.93352 15.8357 9.07715 15.8999 9.18412C15.9518 9.2758 16.0649 9.33998 16.0924 9.44389C16.1382 9.61197 16.1199 9.63948 16.2727 9.49584C16.3033 9.46528 16.3277 9.44389 16.3644 9.39805C16.4011 9.34304 16.4591 9.30025 16.5019 9.25135C16.5661 9.18412 16.6425 9.12911 16.667 9.04965C16.6792 9.00686 16.7036 8.79905 16.6914 8.75321C16.6792 8.70431 16.5875 8.64013 16.5325 8.65541C16.5172 8.61568 16.4897 8.5729 16.4653 8.53928C16.4133 8.58206 16.4286 8.63707 16.3522 8.6493C16.2666 8.66458 16.2391 8.6004 16.2024 8.53928C16.1413 8.4476 16.0466 8.33758 16.0405 8.23367C16.1169 8.25506 16.1841 8.27645 16.2391 8.33452C16.2758 8.37425 16.2941 8.43232 16.343 8.45982C16.398 8.49038 16.4958 8.49955 16.5386 8.44148C16.5783 8.53928 16.6547 8.58512 16.7586 8.55762C16.8228 8.54234 16.8839 8.45065 16.9542 8.51177C16.994 8.54539 17.0245 8.66152 17.0704 8.71042C17.2537 8.91518 17.324 9.16578 17.3913 9.43472C17.4157 9.52946 17.4493 9.62725 17.4554 9.72505C17.4585 9.78311 17.4371 9.84729 17.4585 9.9023C17.6144 9.88702 17.4677 9.23913 17.4432 9.15661C17.4035 9.00075 17.3974 8.91212 17.4126 8.74709C17.4188 8.6768 17.4249 8.60346 17.4218 8.53011C16.9298 7.37796 15.9365 6.51613 14.7355 6.24414C14.7966 6.28693 14.8761 6.34194 14.8791 6.3725C14.8883 6.46418 14.7691 6.41223 14.7263 6.41223C14.6377 6.40917 14.6438 6.45196 14.5766 6.47946C14.5949 6.31443 14.2465 6.2747 14.1365 6.31443C14.0448 6.34805 13.9837 6.42445 13.9042 6.47029C13.7942 6.53447 13.6781 6.48863 13.5681 6.59254C13.6292 6.60476 13.6781 6.63532 13.7361 6.65366C13.7698 6.66283 13.8125 6.65366 13.837 6.672C13.892 6.70867 13.8767 6.77896 13.9562 6.74534C14.0081 6.72701 14.0479 6.63838 14.0601 6.60171C14.0662 6.58948 14.0448 6.57114 14.0601 6.54058C14.0723 6.52225 14.1518 6.47946 14.1701 6.47335C14.1304 6.5742 14.2068 6.62004 14.2893 6.59254C14.2832 6.63532 14.2496 6.64755 14.2282 6.69033C14.2098 6.72701 14.219 6.78202 14.2007 6.80952C14.1426 6.89509 14.0876 6.80646 14.0234 6.81258C13.947 6.81869 13.9348 6.89204 13.8431 6.85536C13.785 6.83091 13.7361 6.76368 13.6964 6.72089C13.6597 6.75757 13.6628 6.81258 13.6231 6.85536C13.565 6.91343 13.4886 6.93177 13.4153 6.95621C13.2991 6.99289 13.1524 7.02039 13.0271 7.04179C12.9691 7.15181 13.1402 7.13347 13.131 7.24043C13.128 7.28016 13.1188 7.27099 13.1005 7.2985C13.0944 7.30767 13.0149 7.36573 12.9966 7.38101C12.9507 7.32906 12.9049 7.31072 12.8407 7.31684C12.7979 7.31989 12.6818 7.33823 12.6451 7.36268C12.5076 7.4513 12.587 7.63773 12.584 7.76303C12.6543 7.78748 12.7032 7.75997 12.7704 7.75691C12.801 7.75386 12.8101 7.74163 12.8377 7.74469C12.859 7.74775 12.8713 7.78136 12.8927 7.78748C12.9599 7.79359 13.0424 7.72635 13.0821 7.68051C13.128 7.63161 13.1494 7.52465 13.1983 7.48798C13.2319 7.46353 13.2349 7.47881 13.2747 7.46658C13.3205 7.4513 13.4703 7.43908 13.4061 7.3474C13.4764 7.36268 13.6475 7.40852 13.6414 7.28016C13.7178 7.26488 13.8339 7.45742 13.8828 7.51548C13.9378 7.58272 14.0479 7.62856 14.0112 7.73552C14.0448 7.7019 14.0601 7.64078 14.0662 7.59188C14.0754 7.51243 14.0937 7.53382 14.0234 7.48492C13.9867 7.46047 13.6689 7.3474 13.8401 7.25877C13.8981 7.23126 13.9959 7.326 14.054 7.33823C14.1518 7.35656 14.216 7.34128 14.271 7.45742C14.2985 7.51854 14.3046 7.60105 14.3199 7.66523C14.3565 7.79359 14.3871 7.77831 14.5093 7.75691C14.4054 7.7233 14.4024 7.57966 14.5002 7.5491C14.5246 7.53993 14.6377 7.55521 14.6683 7.58577C14.6958 7.61328 14.6774 7.66523 14.7019 7.69579C14.7386 7.74775 14.8119 7.74775 14.8639 7.77525C14.9005 7.79359 14.9341 7.83637 14.9769 7.84249C15.0594 7.85471 15.1145 7.7233 15.1695 7.70496C15.2978 7.66523 15.2764 7.81498 15.2581 7.925C15.2398 8.03502 15.1328 8.16338 15.0258 8.18171C14.9341 8.19394 14.8058 8.15727 14.7172 8.14198C14.6071 8.12059 14.5185 8.06558 14.4207 8.02585C14.2649 7.96473 14.3107 8.0503 14.3199 8.16338C14.2282 8.14198 14.1457 8.07781 14.054 8.05336C13.9959 8.03808 13.944 8.03196 13.8859 8.01363C13.8401 7.99529 13.7637 7.99224 13.7239 7.9739C13.62 7.92806 13.6903 7.94639 13.6811 7.8486C13.675 7.75997 13.675 7.7997 13.5925 7.77831C13.5283 7.75997 13.4672 7.72635 13.3939 7.73552C13.293 7.74469 13.2013 7.80276 13.1035 7.80887C12.9507 7.81498 12.8224 7.8272 12.6757 7.86388C12.584 7.88527 12.5809 7.94028 12.529 8.04113C12.4984 8.09614 12.4679 8.1267 12.422 8.16643C12.3487 8.23367 12.312 8.30396 12.2417 8.38342C12.2081 8.42315 12.1531 8.52705 12.1164 8.55456C12.0797 8.58512 12.04 8.56067 11.9972 8.58206C11.9269 8.61568 11.8689 8.78682 11.8322 8.85406C11.7863 8.9488 11.7191 9.04659 11.7191 9.15661C11.7222 9.29108 11.7588 9.38888 11.7252 9.51418C11.7069 9.5753 11.6702 9.58141 11.6947 9.66698C11.7313 9.78617 11.7894 9.75867 11.8658 9.81368C11.9605 9.88397 11.9269 10.0276 12.0369 10.1285C12.1409 10.2201 12.202 10.2965 12.3273 10.2782C12.4129 10.266 12.4648 10.2568 12.5534 10.2721C12.6451 10.2843 12.6421 10.2874 12.7368 10.2538C12.8927 10.1987 13.0699 10.1468 13.2349 10.1896C13.3358 10.2171 13.3633 10.3118 13.4428 10.3607C13.5283 10.4157 13.5925 10.3974 13.5833 10.5502C13.5681 10.5563 13.5619 10.5563 13.5467 10.5624C13.5375 10.7305 13.5467 10.923 13.6475 11.0667C13.7423 11.2011 13.8767 11.25 13.8951 11.4304C13.9042 11.522 13.8981 11.5893 13.8737 11.681C13.8614 11.736 13.8156 11.8368 13.8034 11.901C13.7912 11.9591 13.7881 12.118 13.8187 12.1669C13.8523 12.2158 13.9165 12.2311 13.944 12.2983C13.9592 12.3411 13.9745 12.4175 13.9837 12.4572C14.0143 12.6131 14.0234 12.7445 14.1029 12.8912C14.1732 13.0256 14.271 13.0837 14.3046 13.2335C14.4391 13.2457 14.598 13.209 14.7263 13.1846C14.7416 13.1815 14.8333 13.1723 14.8394 13.1632C14.873 13.1326 14.8516 13.0745 14.8852 13.0409C14.9097 13.0134 14.9464 13.0409 14.9708 13.0195C14.9983 12.9981 15.0105 12.9554 15.0289 12.9248C15.0778 12.827 15.1083 12.7231 15.1847 12.6436C15.255 12.5672 15.3467 12.4939 15.4078 12.4083C15.4415 12.3655 15.472 12.3136 15.4995 12.2738C15.5179 12.2463 15.5362 12.2677 15.5515 12.2311C15.5668 12.1852 15.5148 12.0844 15.5026 12.0416C15.5912 12.008 15.6554 12.0019 15.7196 11.9224C15.7532 11.8766 15.7623 11.8215 15.7837 11.7757C15.8021 11.7451 15.8296 11.7115 15.8418 11.681C15.8846 11.5771 15.8907 11.4456 15.8632 11.3356C15.8357 11.2317 15.7868 11.1614 15.8051 11.0483C15.8265 10.8925 15.9274 10.7886 16.0038 10.6602C16.0435 10.593 16.0618 10.5502 16.1169 10.5105C16.181 10.4616 16.2269 10.4463 16.2758 10.3699C16.4011 10.1743 16.56 9.89925 16.5294 9.65476C16.4683 9.60892 16.4591 9.66393 16.4072 9.68532C16.3461 9.71588 16.1382 9.777 16.0771 9.75561C15.9885 9.72505 16.0129 9.64253 15.9732 9.5753C15.9304 9.50195 15.8296 9.43777 15.7746 9.36443C15.7104 9.28191 15.6248 9.20245 15.582 9.10772C15.5301 9.00075 15.5179 8.89073 15.4445 8.79905C15.3375 8.66764 15.2428 8.51789 15.2581 8.33146C15.3406 8.40787 15.4292 8.49038 15.5056 8.57595Z" fill="#BD7500"/>
<path d="M14.8126 7.23774C14.6964 7.07576 14.7209 7.45472 14.7209 7.50362C14.782 7.48834 14.8004 7.45472 14.8706 7.44861C14.889 7.44861 14.9379 7.45778 14.9593 7.45778C14.9776 7.45778 14.9959 7.43333 15.0235 7.43333C15.0632 7.43638 15.1212 7.47917 15.161 7.48834C15.2007 7.49751 15.2954 7.54029 15.3229 7.53724C15.3963 7.52807 15.3994 7.46389 15.3443 7.43027C15.2741 7.38443 15.2099 7.43333 15.1518 7.35081C15.1121 7.28969 15.0571 6.98408 14.9929 7.22246C14.9746 7.28358 15.0112 7.33859 14.9226 7.32025C14.8982 7.3172 14.8554 7.26219 14.8126 7.23774Z" fill="#BD7500"/>
<path d="M15.6347 7.19632C15.6011 7.19632 15.5369 7.22077 15.5278 7.2605C15.5125 7.32162 15.5522 7.31246 15.5889 7.34302C15.65 7.39192 15.7142 7.45609 15.7448 7.53555C15.76 7.56917 15.7723 7.61195 15.7845 7.64557C15.7906 7.66697 15.8028 7.74948 15.815 7.7617C15.8364 7.7831 16.0229 7.7831 16.0595 7.79227C16.0718 7.69447 15.922 7.65168 15.8915 7.57223C15.8823 7.54472 15.9037 7.49582 15.8915 7.47443C15.8701 7.44387 15.8242 7.44693 15.7937 7.42553C15.7539 7.39803 15.6684 7.32774 15.6622 7.27578C15.6592 7.23605 15.7111 7.23911 15.702 7.20244C15.6897 7.15965 15.65 7.16576 15.6347 7.19632Z" fill="#BD7500"/>
<path d="M16.3437 11.631C16.2887 11.6279 16.2856 11.686 16.2704 11.7318C16.2673 11.7441 16.252 11.8174 16.2459 11.8205C16.2153 11.8418 16.2123 11.8021 16.1878 11.8113C16.142 11.8235 16.0228 11.8418 15.9923 11.8755C15.9128 11.9702 16.0289 11.9947 16.0412 12.0711C16.0595 12.1872 15.9464 12.1444 15.9006 12.2116C15.8792 12.2453 15.8608 12.4347 15.8731 12.4745C16.0839 12.5753 16.1451 12.2116 16.2062 12.0772C16.2398 12.0038 16.4201 11.6432 16.3437 11.631Z" fill="#BD7500"/>
<path d="M10.9856 12.6305C10.9551 12.5388 10.842 12.4869 10.7961 12.4044C10.7595 12.3341 10.7289 12.1996 10.7228 12.1201C10.8237 12.1079 10.8695 12.0437 10.8328 11.9521C10.7961 11.8512 10.735 11.7595 10.732 11.6464C10.7259 11.5548 10.7381 11.46 10.7289 11.3622C10.7259 11.298 10.732 11.2461 10.7534 11.185C10.7748 11.1238 10.8237 11.0688 10.8053 10.9985C10.7778 10.8885 10.6586 10.7968 10.5761 10.7357C10.5058 10.6777 10.4172 10.6318 10.3775 10.5432C10.3347 10.4484 10.3347 10.3293 10.3041 10.2284C10.2858 10.1734 10.246 10.1306 10.2308 10.0756C10.2033 9.98087 10.2338 9.89224 10.2033 9.79444C10.1819 9.73026 10.1605 9.6722 10.1452 9.61719C10.1207 9.80055 10.1055 9.99003 10.1055 10.1826C10.1055 11.1605 10.4386 12.059 10.9917 12.7589C10.9887 12.7161 10.9979 12.6672 10.9856 12.6305Z" fill="#BD7500"/>
<path d="M14.818 14.0432C12.6573 14.0432 10.9062 12.2003 10.9062 9.92659C10.9062 8.33741 11.7619 6.95911 13.0149 6.27148C11.3462 6.70545 10.1055 8.29157 10.1055 10.1833C10.1055 12.4082 11.8199 14.2082 13.9317 14.2082C14.3198 14.2082 14.6957 14.1471 15.0472 14.0371C14.9708 14.0401 14.8944 14.0432 14.818 14.0432Z" fill="white"/>
<path d="M122.183 21.8446L123.307 18.1895H124.078L125.214 21.8446L126.486 18.1895H127.403L125.642 23.2626H124.787L123.723 19.7909H123.662L122.598 23.2626H121.755L119.982 18.1895H120.899L122.183 21.8446Z" fill="#BD7500"/>
<path d="M132.488 18.1895V18.9963H129.774V20.341H132.207V21.0989H129.774V22.4558H132.574V23.2626H128.931V18.1895H132.488Z" fill="#BD7500"/>
<path d="M136.611 23.2626H134.398V18.1895H136.367C136.709 18.1895 137.002 18.2353 137.247 18.3239C137.497 18.4064 137.687 18.5165 137.809 18.654C138.035 18.9168 138.151 19.2102 138.151 19.5341C138.151 19.9345 138.023 20.2309 137.772 20.4265C137.681 20.4938 137.62 20.5335 137.589 20.5488C137.555 20.5671 137.494 20.5946 137.406 20.6343C137.723 20.7016 137.971 20.8422 138.151 21.0622C138.338 21.2761 138.433 21.5389 138.433 21.8568C138.433 22.2082 138.313 22.5169 138.078 22.7858C137.791 23.1037 137.302 23.2626 136.611 23.2626ZM135.242 20.2921H136.33C136.947 20.2921 137.259 20.0842 137.259 19.6686C137.259 19.4241 137.186 19.2499 137.039 19.143C136.892 19.0391 136.66 18.984 136.342 18.984H135.242V20.2921ZM135.242 22.468H136.587C136.904 22.468 137.143 22.4191 137.308 22.3213C137.479 22.2235 137.565 22.0371 137.565 21.759C137.565 21.3128 137.201 21.0866 136.477 21.0866H135.242V22.468Z" fill="#BD7500"/>
<path d="M142.956 23.2626V18.1895H143.8V22.4558H146.122V23.2626H142.956Z" fill="#BD7500"/>
<path d="M149.17 18.984V23.2626H148.315V18.984H146.774V18.1895H150.711V18.984H149.17Z" fill="#BD7500"/>
<path d="M154.105 18.1895C155.01 18.1895 155.706 18.4156 156.195 18.8618C156.684 19.3019 156.929 19.9192 156.929 20.7077C156.929 21.4901 156.69 22.1135 156.22 22.578C155.746 23.0364 155.022 23.2626 154.044 23.2626H152.369V18.1895H154.105ZM156.073 20.7199C156.073 19.5647 155.404 18.984 154.068 18.984H153.213V22.4558H154.166C154.777 22.4558 155.245 22.3091 155.572 22.0157C155.905 21.7223 156.073 21.2914 156.073 20.7199Z" fill="#BD7500"/>
<path d="M33.8598 2.96443C33.5725 3.19975 33.4289 3.51147 33.4289 3.8996C33.4289 4.28772 33.6031 4.59333 33.9545 4.82254C34.3029 5.05175 35.1097 5.32374 36.375 5.63241C37.6402 5.94413 38.6212 6.41172 39.3211 7.03516C40.0179 7.65861 40.3693 8.56628 40.3693 9.76121C40.3693 10.9562 39.9201 11.9249 39.0246 12.6676C38.1292 13.4102 36.9495 13.7831 35.4887 13.7831C33.38 13.7831 31.4791 13.0007 29.7891 11.439L31.5616 9.26612C32.998 10.5222 34.3243 11.1517 35.5468 11.1517C36.0908 11.1517 36.5217 11.0356 36.8334 10.8003C37.1451 10.565 37.301 10.2471 37.301 9.84679C37.301 9.44643 37.136 9.1286 36.8028 8.89328C36.4728 8.65796 35.8188 8.41958 34.8408 8.17815C33.2914 7.81142 32.1545 7.33161 31.4394 6.73872C30.7212 6.14889 30.3606 5.21984 30.3606 3.95766C30.3606 2.69243 30.8159 1.71753 31.7236 1.02991C32.6312 0.34534 33.7651 0 35.125 0C36.0144 0 36.9037 0.152805 37.7961 0.458416C38.6854 0.764027 39.4586 1.19494 40.1187 1.75421L38.6151 3.9271C37.4568 3.05 36.265 2.61297 35.0303 2.61297C34.5352 2.61297 34.144 2.72911 33.8598 2.96443Z" fill="white"/>
<path d="M49.8988 6.73975C50.2563 6.3394 50.4336 5.75568 50.4336 4.98554C50.4336 4.21846 50.2013 3.67142 49.7368 3.34747C49.2723 3.02352 48.551 2.86155 47.5731 2.86155H45.8769V7.3418H47.8787C48.8719 7.3418 49.5442 7.1401 49.8988 6.73975ZM52.0808 1.49852C53.016 2.29311 53.4836 3.5125 53.4836 5.15974C53.4836 6.80393 53.0038 8.00804 52.0441 8.76901C51.0845 9.53304 49.6206 9.91505 47.6495 9.91505H45.8769V13.6313H42.9033V0.306641H47.6128C49.6573 0.306641 51.1487 0.703935 52.0808 1.49852Z" fill="white"/>
<path d="M64.0815 0.306641H67.0551V13.6313H64.0815V8.39005H58.7822V13.6313H55.8086V0.306641H58.7822V5.87182H64.0815V0.306641Z" fill="white"/>
<path d="M70.335 0.306641H73.3086V13.6313H70.335V0.306641Z" fill="white"/>
<path d="M84.5818 9.97006C85.3122 9.28549 85.679 8.2892 85.679 6.97813C85.679 5.67011 85.3122 4.6616 84.5818 3.95869C83.8514 3.25273 82.7298 2.89822 81.217 2.89822H79.5576V11H81.4463C82.8062 11 83.8514 10.6577 84.5818 9.97006ZM86.7639 2.05168C88.0352 3.213 88.6709 4.83274 88.6709 6.90173C88.6709 8.97377 88.0505 10.6118 86.8128 11.819C85.572 13.0292 83.6833 13.6313 81.1406 13.6313H76.584V0.306641H81.2934C83.668 0.306641 85.4925 0.887301 86.7639 2.05168Z" fill="white"/>
<path d="M100.853 0.306641V2.95629H94.2177V5.70067H100.183V8.23725H94.2177V11H101.06V13.6313H91.2441V0.306641H100.853Z" fill="white"/>
<path d="M110.936 6.3119C111.305 5.98184 111.489 5.45619 111.489 4.738C111.489 4.01981 111.299 3.52778 110.917 3.2619C110.535 2.99602 109.869 2.86155 108.915 2.86155H106.685V6.80699H108.857C109.875 6.80699 110.566 6.64196 110.936 6.3119ZM114.52 4.72883C114.52 6.86505 113.674 8.24336 111.984 8.8668L115.358 13.6313H111.7L108.744 9.38023H106.685V13.6313H103.711V0.306641H108.763C110.835 0.306641 112.311 0.655037 113.194 1.35489C114.077 2.05474 114.52 3.17938 114.52 4.72883Z" fill="white"/>
<path d="M122.579 4.27041L120.902 8.14251H124.239L122.579 4.27041ZM126.601 13.6313L125.36 10.7524H119.777L118.536 13.6313H115.373L121.131 0.306641H124.01L129.764 13.6313H126.601Z" fill="white"/>
<path d="M134.331 2.96443C134.043 3.19975 133.903 3.51147 133.903 3.8996C133.903 4.28772 134.077 4.59333 134.425 4.82254C134.777 5.05175 135.584 5.32374 136.846 5.63241C138.111 5.94413 139.092 6.41172 139.792 7.03516C140.492 7.65861 140.84 8.56628 140.84 9.76121C140.84 10.9562 140.394 11.9249 139.495 12.6676C138.6 13.4102 137.423 13.7831 135.959 13.7831C133.851 13.7831 131.95 13.0007 130.26 11.439L132.035 9.26307C133.469 10.5222 134.798 11.1517 136.017 11.1517C136.565 11.1517 136.992 11.0356 137.304 10.8003C137.616 10.565 137.772 10.2471 137.772 9.84679C137.772 9.44643 137.607 9.1286 137.277 8.89328C136.947 8.65796 136.289 8.41958 135.312 8.17815C133.762 7.81142 132.628 7.33161 131.91 6.73872C131.192 6.14889 130.834 5.21984 130.834 3.95766C130.834 2.69243 131.287 1.71753 132.197 1.02991C133.105 0.34534 134.239 0 135.599 0C136.488 0 137.377 0.152805 138.267 0.458416C139.156 0.764027 139.932 1.19494 140.592 1.75421L139.086 3.9271C137.931 3.05 136.736 2.61297 135.504 2.61297C135.009 2.61297 134.618 2.72911 134.331 2.96443Z" fill="white"/>
<path d="M145.49 2.96443C145.205 3.19975 145.062 3.51147 145.062 3.8996C145.062 4.28772 145.236 4.59333 145.587 4.82254C145.936 5.05175 146.743 5.32374 148.008 5.63241C149.273 5.94413 150.254 6.41172 150.951 7.03516C151.651 7.65861 151.999 8.56628 151.999 9.76121C151.999 10.9562 151.553 11.9249 150.657 12.6676C149.762 13.4102 148.582 13.7831 147.122 13.7831C145.013 13.7831 143.112 13.0007 141.422 11.439L143.194 9.26307C144.631 10.5222 145.957 11.1517 147.177 11.1517C147.724 11.1517 148.154 11.0356 148.466 10.8003C148.775 10.565 148.931 10.2471 148.931 9.84679C148.931 9.44643 148.766 9.1286 148.436 8.89328C148.106 8.65796 147.452 8.41958 146.474 8.17815C144.921 7.81142 143.787 7.33161 143.069 6.73872C142.351 6.14889 141.993 5.21984 141.993 3.95766C141.993 2.69243 142.446 1.71753 143.356 1.02991C144.264 0.34534 145.398 0 146.758 0C147.647 0 148.54 0.152805 149.426 0.458416C150.318 0.764027 151.091 1.19494 151.755 1.75421L150.248 3.9271C149.09 3.05 147.895 2.61297 146.663 2.61297C146.168 2.61297 145.777 2.72911 145.49 2.96443Z" fill="white"/>
</svg>
