<svg width="1440" height="1024" viewBox="0 0 1440 1024" fill="none" xmlns="http://www.w3.org/2000/svg">
<path d="M211.653 1018.73C197.604 943.376 251.94 877.831 337.347 866.848C398.169 859.062 471.221 876.108 524.664 856.589C589.779 832.927 602.419 766.963 624.518 715.169C652.252 650.233 696.961 615.975 793.454 620.6C864.968 623.977 938.659 651.179 1005 637.136C1127.03 611.328 1117.42 483.7 1104.16 388.688C1090.81 293.011 1073.98 192.314 1146.48 126.317C1205.86 72.1804 1289.6 58.6742 1388.43 63.8969C1435.94 66.3681 1480.43 65.3656 1529.93 84.2893" stroke="#196D19" stroke-miterlimit="10"/>
<path d="M1536.45 87.084C1486.32 68.6795 1440.9 69.4644 1392.82 67.108C1357.44 65.3324 1324.01 66.0257 1292.83 69.9471C1235.68 77.0861 1186.31 95.6131 1147.48 131.12C1135.55 142.189 1125.84 154.158 1118.27 166.904C1079.89 231.991 1095.02 316.817 1105.57 397.816C1118.21 494.441 1122.96 621.741 998.971 646.748C932.151 660.353 858.432 633.668 786.695 629.502C722.825 625.989 680.981 638.785 651.192 665.764C636.1 679.433 624.301 696.794 614.004 717.406C589.66 766.575 574.009 829.41 508.54 852.342C492.29 858.015 474.476 860.589 455.782 861.702C412.135 864.168 364.187 858.486 322.273 864.84C237.892 877.392 184.9 943.542 199.507 1019.14" stroke="#158CF9" stroke-miterlimit="10"/>
<path d="M1542.6 89.8479C1491.85 71.9642 1445.64 72.5022 1396.85 70.2899C1361.04 68.6006 1326.97 69.29 1295.43 73.4257C1237.51 80.8705 1187.1 99.7733 1148.19 135.744C1136.05 147.006 1126.41 159.111 1118.92 172.266C1080.49 238.667 1096.98 324.81 1107.1 406.953C1119.2 505.314 1118.8 632.067 992.849 656.271C925.822 669.377 851.868 643.118 779.924 638.435C716.329 634.44 673.648 645.912 642.809 671.216C627.12 683.926 614.59 700.361 603.415 719.807C576.958 766.316 558.292 826.012 492.41 848.363C476.075 853.922 458.113 856.528 439.406 857.643C395.813 860.508 348.284 855.826 306.916 862.891C223.712 877.258 171.993 943.89 187.159 1019.73" stroke="#0B8A0F" stroke-miterlimit="10"/>
<path d="M1548.77 92.6146C1497.39 75.2532 1450.46 75.6657 1400.89 73.476C1364.65 71.8733 1330.15 72.6518 1298.05 76.9093C1239.28 84.5385 1188.03 103.911 1148.84 140.527C1136.64 151.953 1126.86 164.372 1119.31 177.693C1080.83 245.411 1098.75 332.996 1108.29 416.042C1119.72 516.169 1114.29 642.073 986.589 665.838C919.223 678.473 845.169 652.612 772.944 647.288C709.553 642.688 666.39 653.17 634.428 676.674C618.213 688.544 604.877 703.929 592.96 722.177C564.253 766.05 542.63 822.449 476.199 844.246C459.705 849.568 441.731 852.178 423.023 853.568C379.412 856.711 332.376 853.152 291.628 861.051C209.728 876.937 159.357 944.173 174.947 1020.28" stroke="#2589EC" stroke-miterlimit="10"/>
<path d="M1554.88 95.273C1502.88 78.4351 1455.02 78.6289 1405.01 76.526C1368.34 75.0101 1333.41 75.8781 1300.75 80.2577C1241.19 88.194 1189.11 108.037 1149.64 145.026C1137.36 156.616 1127.38 169.23 1119.83 182.839C1081.1 251.784 1100.59 340.784 1109.7 424.978C1120.51 526.726 1110.05 652.051 980.535 675.254C912.755 687.296 838.54 661.986 766.243 656.112C702.922 650.935 659.203 660.302 626.116 682.002C609.375 693.032 595.368 707.336 582.436 724.441C551.403 765.549 526.966 818.889 460.049 839.981C443.47 845.187 425.349 847.829 406.701 849.344C363.145 852.887 316.53 850.332 276.404 859.068C195.673 876.504 146.518 944.375 162.803 1020.69" stroke="#2D88E6" stroke-miterlimit="10"/>
<path d="M1561.2 97.9966C1508.57 81.6831 1459.92 81.6288 1409.27 79.7932C1372.17 78.3645 1336.67 79.3512 1303.58 83.8244C1243.17 91.9467 1190.12 112.291 1150.43 149.778C1137.95 161.562 1128.1 174.435 1120.43 188.362C1081.65 258.631 1102.5 348.959 1111.1 434.184C1121.23 537.71 1105.88 662.43 974.256 684.856C906.208 696.548 831.893 671.637 759.314 665.12C696.271 659.457 651.922 667.586 617.572 687.507C600.096 697.602 585.49 710.944 571.678 726.876C538.524 765.308 511.061 815.49 443.656 835.875C426.992 840.966 408.858 843.612 390.271 845.251C346.696 849.074 300.637 847.497 260.863 857.128C181.24 876.27 133.572 944.72 150.283 1021.31" stroke="#3586DF" stroke-miterlimit="10"/>
<path d="M1569.3 98.4414C1516.05 82.6534 1466.66 82.473 1415.23 80.6608C1377.7 79.3194 1341.77 80.3962 1308.12 84.9923C1246.93 93.4235 1192.96 114.12 1152.92 152.134C1140.36 164.083 1130.32 177.152 1122.64 191.369C1083.69 262.996 1106.11 354.748 1113.99 440.914C1123.58 546.194 1103.06 670.367 969.666 692.078C901.277 703.297 826.861 678.787 754.001 671.625C691.236 665.475 646.121 672.391 610.779 690.473C592.775 699.723 577.361 712.009 562.668 726.765C527.119 762.573 496.897 809.533 429.076 829.333C412.118 834.214 394.107 836.835 375.445 838.629C331.926 842.854 286.289 842.285 247.137 852.757C168.759 873.579 122.372 942.518 139.644 1019.35" stroke="#3D85D9" stroke-miterlimit="10"/>
<path d="M1573.6 103.534C1519.72 88.2734 1469.4 87.8732 1417.53 86.1487C1379.57 84.895 1343.21 86.062 1308.99 90.7811C1246.95 99.3991 1192.14 120.569 1151.96 159.204C1139.33 171.319 1129.16 184.706 1121.41 199.09C1082.41 272.046 1106.19 365.128 1113.65 452.45C1122.48 559.39 1097.05 682.951 961.695 704.126C893.102 714.842 818.527 690.885 745.387 683.078C682.767 676.469 637.157 682.112 600.551 698.406C581.946 706.688 565.797 718.037 550.222 731.615C512.412 764.763 479.22 808.398 410.986 827.61C393.943 832.375 375.784 835.029 357.184 836.948C313.647 841.454 268.507 842.018 229.98 853.331C152.778 875.714 107.613 945.291 125.446 1022.36" stroke="#4583D3" stroke-miterlimit="10"/>
<path d="M1579.76 106.199C1525.32 91.5897 1474.14 90.8176 1421.55 89.2395C1383.16 88.0737 1346.23 89.3603 1311.58 94.1738C1248.62 103.131 1192.97 124.777 1152.51 163.79C1139.67 176.1 1129.56 189.624 1121.76 204.452C1082.51 278.646 1107.86 373.157 1114.81 461.516C1123.09 570.216 1092.61 693.198 955.281 713.561C886.348 723.802 811.674 700.248 738.327 691.916C675.915 684.695 629.612 689.243 592.012 703.689C572.743 711.151 555.92 721.411 539.596 733.778C499.45 764.138 463.431 804.688 394.709 823.189C377.58 827.838 359.409 830.496 340.735 832.569C297.254 837.48 252.538 839.056 214.562 851.091C138.611 875.16 94.7303 945.226 113.2 1022.66" stroke="#4D81CC" stroke-miterlimit="10"/>
<path d="M1585.96 108.957C1530.89 94.8769 1478.98 93.9777 1425.61 92.4235C1386.78 91.3458 1349.43 92.7233 1314.28 97.7833C1250.47 106.929 1193.98 129.051 1153.16 168.594C1140.26 181.07 1130.01 194.914 1122.29 209.881C1082.99 285.411 1109.7 381.259 1116.21 470.778C1123.82 581.269 1088.41 703.64 949.181 723.313C879.907 733.077 805.073 710.08 731.509 700.947C669.379 693.236 622.235 696.441 583.579 709.186C563.707 715.676 546.147 724.994 528.94 736.178C486.392 763.896 447.605 801.201 378.469 819.113C361.182 823.522 342.937 826.335 324.324 828.535C280.827 833.728 236.609 836.442 199.26 849.322C124.426 875.111 82.0416 945.76 101 1023.32" stroke="#5580C6" stroke-miterlimit="10"/>
<path d="M1592.32 111.678C1536.62 98.1295 1483.78 97.0093 1429.9 95.6959C1390.64 94.7067 1352.78 96.0523 1317.28 101.33C1252.68 110.788 1195.28 133.265 1154.32 173.434C1141.34 186.076 1130.9 200.118 1123.17 215.377C1083.69 292.274 1111.98 389.557 1117.91 479.996C1124.89 592.132 1084.49 714.043 943.225 733.055C873.611 742.342 798.679 719.75 724.909 710.089C662.926 701.917 615.285 703.84 575.497 714.758C555.096 720.395 536.725 728.649 518.633 738.646C473.743 763.565 432.123 797.771 362.498 814.969C345.126 819.261 326.796 821.956 308.244 824.281C264.804 829.88 221.073 833.46 184.289 847.339C110.635 874.7 69.4776 945.992 88.9993 1023.79" stroke="#5D7EC0" stroke-miterlimit="10"/>
<path d="M1598.57 114.459C1542.24 101.442 1488.6 100.072 1434.15 98.8766C1394.31 98.0053 1356.02 99.4422 1320.09 104.816C1254.63 114.463 1196.32 137.572 1155.07 178.123C1141.96 191.085 1131.58 205.267 1123.73 220.848C1084.2 299.089 1113.86 397.718 1119.36 489.327C1125.37 603.049 1079.97 724.504 936.719 742.702C866.837 751.633 791.807 729.447 717.682 719.011C655.982 710.347 607.572 711.044 566.651 720.132C545.51 724.822 526.536 732.101 507.558 740.91C460.186 763.054 415.791 794.003 345.752 810.608C328.221 814.66 309.816 817.511 291.325 819.964C247.868 825.846 204.636 830.569 168.406 845.175C96.0075 874.235 56.1398 946.02 76.2993 1024.19" stroke="#657DB9" stroke-miterlimit="10"/>
<path d="M1604.74 117.125C1547.79 104.642 1493.42 103.143 1438.17 101.973C1397.91 101.191 1359.18 102.719 1322.68 108.218C1256.44 118.178 1197.21 141.645 1155.61 182.73C1142.43 195.86 1131.85 210.24 1124 226.115C1084.35 305.578 1115.46 405.677 1120.3 498.362C1125.97 613.954 1075.57 734.95 930.339 752.33C860.253 760.753 785.064 739.126 710.659 728.038C649.242 718.88 600.2 718.32 558.009 725.601C536.264 729.312 516.341 735.551 496.686 743.262C446.831 762.624 399.733 790.431 329.205 806.32C311.588 810.254 293.171 813.109 274.607 815.718C231.207 822.008 188.402 827.753 152.8 843.21C81.6599 873.972 43.1583 946.374 63.6723 1024.7" stroke="#6D7BB3" stroke-miterlimit="10"/>
<path d="M1610.96 119.897C1553.37 107.949 1498.07 106.228 1442.25 105.177C1401.55 104.484 1362.39 106.104 1325.33 111.728C1258.22 121.878 1198.16 145.825 1156.42 187.538C1143.17 200.836 1132.45 215.536 1124.53 231.582C1084.7 312.418 1117.39 413.957 1121.72 507.686C1126.84 625.052 1071.35 745.459 924.219 762.143C853.796 770.086 778.449 749.021 703.903 737.249C642.637 727.626 592.963 725.805 549.774 731.218C527.499 734.071 506.763 739.237 486.357 745.725C434.017 762.298 384.214 786.955 313.274 802.249C295.436 806.094 277.071 808.8 258.506 811.689C215.091 818.264 172.789 825.156 137.818 841.465C67.7291 873.837 30.5967 946.854 51.8112 1025.39" stroke="#757AAD" stroke-miterlimit="10"/>
<path d="M1617.25 122.685C1559.03 111.273 1502.92 109.301 1446.38 108.398C1405.18 107.671 1365.52 109.536 1328.02 115.257C1260.06 125.599 1199.01 150.059 1157.05 192.281C1143.73 205.748 1132.8 220.649 1124.89 236.989C1085.02 319.18 1119.08 422.075 1122.9 516.86C1127.33 636.044 1066.89 755.841 917.84 771.83C847.149 779.415 771.63 758.635 696.804 746.207C635.822 736.088 585.303 732.911 541.051 736.604C518.17 738.474 496.619 742.566 475.399 747.981C420.57 761.761 368.057 783.264 296.626 797.838C278.629 801.442 260.189 804.305 241.613 807.198C198.181 814.06 156.379 822.102 121.965 839.144C53.136 873.226 17.2987 946.741 39.0165 1025.68" stroke="#7E78A6" stroke-miterlimit="10"/>
<path d="M1623.64 125.41C1564.87 114.659 1507.82 112.464 1450.84 111.652C1409.2 111.015 1369.11 112.972 1331.04 118.819C1262.29 129.477 1200.4 154.421 1158.01 197.058C1144.48 210.723 1133.7 225.888 1125.66 242.554C1085.6 326.128 1121.17 430.35 1124.48 526.189C1128.27 647.038 1062.81 766.374 911.781 781.542C840.75 788.645 765.209 768.399 690.103 755.313C629.271 744.727 578.255 740.254 532.867 742.101C509.317 743.139 487.088 746.124 464.978 750.34C407.584 761.196 352.434 779.661 280.378 793.544C262.296 797.029 243.844 799.897 225.33 802.917C181.956 810.189 140.646 819.108 106.801 837.159C39.2348 872.954 4.69515 946.966 26.9789 1026.15" stroke="#8676A0" stroke-miterlimit="10"/>
<path d="M1629.92 128.193C1570.51 117.981 1512.66 115.533 1454.96 114.871C1412.89 114.323 1372.37 116.374 1333.73 122.347C1264.11 133.198 1201.37 158.627 1158.77 201.775C1145.17 215.609 1134.18 230.975 1126.28 247.907C1086.1 332.716 1123.2 438.544 1125.99 535.441C1129.1 658.112 1058.61 776.988 905.587 791.332C834.29 798.077 758.652 778.241 683.194 764.373C622.649 753.289 570.862 747.577 524.336 747.572C500.18 747.623 477.134 749.529 454.209 752.667C394.248 760.594 336.383 775.89 263.912 789.174C245.745 792.541 227.071 795.318 208.693 798.591C165.304 806.15 124.497 816.224 91.2838 835.133C24.7724 872.552 -8.32013 947.31 14.456 1026.62" stroke="#8E7599" stroke-miterlimit="10"/>
<path d="M1636.11 130.858C1576.07 121.187 1517.42 118.486 1459 117.973C1416.49 117.516 1375.4 119.689 1336.33 125.76C1265.93 136.927 1202.13 162.748 1159.39 206.53C1145.72 220.534 1134.59 236.224 1126.63 253.329C1086.27 339.527 1124.87 446.687 1127.01 544.671C1129.56 669.136 1054.04 787.549 898.899 801.098C827.399 807.329 751.467 788.089 675.867 773.531C615.473 761.978 562.978 754.87 515.388 753.134C490.626 752.196 466.701 753.174 443.157 755.048C380.764 760.009 320.12 772.283 247.235 784.967C228.909 788.09 210.297 790.996 191.846 794.426C148.516 802.397 108.139 813.505 75.4855 833.151C10.241 872.29 -21.5501 947.546 1.8667 1027.23" stroke="#967393" stroke-miterlimit="10"/>
<path d="M1642.37 133.625C1581.7 124.495 1522.18 121.694 1463.11 121.178C1420.17 120.812 1378.57 122.954 1339.21 129.37C1267.95 140.731 1203.37 167.164 1160.34 211.334C1146.46 225.537 1135.4 241.369 1127.38 258.925C1086.98 346.485 1126.96 455.008 1128.66 554.177C1130.44 680.346 1050.02 798.264 892.886 810.988C821.121 816.858 745.094 798.031 669.216 782.811C609.112 770.759 555.981 762.377 507.253 758.782C481.821 757.005 457.141 756.746 432.781 757.538C367.816 759.556 304.527 768.772 231.154 780.729C212.742 783.733 193.984 786.673 175.595 790.232C132.25 798.492 92.3784 810.759 60.3593 831.267C-3.61642 872.13 -34.1045 947.885 -10.2571 1027.84" stroke="#9E728D" stroke-miterlimit="10"/>
<path d="M1648.82 136.378C1587.52 127.79 1527.2 124.736 1467.54 124.341C1424.16 124.065 1382.12 126.301 1342.2 132.845C1270.01 144.555 1204.51 171.353 1161.26 216.038C1147.31 230.412 1136.12 246.571 1128.03 264.301C1087.44 353.26 1129.01 463.248 1130.12 563.359C1131.21 691.366 1045.6 808.854 886.613 820.721C814.508 826.105 738.322 807.846 662.228 791.809C602.412 779.255 548.435 769.501 498.64 764.167C472.6 761.397 447.102 760.052 421.923 759.758C354.383 758.828 288.446 764.979 214.583 776.21C195.875 779 177.315 782.038 158.778 785.632C115.492 794.306 76.0513 807.613 44.6666 828.986C-18.04 871.578 -47.15 947.96 -22.7349 1028.17" stroke="#A67086" stroke-miterlimit="10"/>
<path d="M1654.71 139.092C1592.78 131.051 1531.67 127.742 1471.31 127.497C1427.5 127.311 1384.9 129.669 1344.55 136.308C1271.51 148.207 1205.18 175.482 1161.67 220.816C1147.64 235.355 1136.25 251.71 1128.16 269.731C1087.47 359.897 1130.49 471.335 1131.15 572.596C1131.68 702.357 1041.19 819.302 880.105 830.361C807.75 835.38 731.411 817.418 655.266 800.816C595.616 787.794 541.151 776.733 490.3 769.658C463.658 765.894 437.347 763.46 411.355 762.079C341.316 758.04 272.606 761.146 198.418 771.891C179.629 774.56 160.988 777.477 142.593 781.322C99.3011 790.282 60.438 804.593 29.5595 826.852C-32.0723 871.062 -59.7944 948.038 -34.8147 1028.46" stroke="#AE6E80" stroke-miterlimit="10"/>
<path d="M1659.82 141.568C1597.3 134.077 1535.35 130.668 1474.44 130.542C1430.22 130.445 1387.21 132.892 1346.31 139.65C1272.53 151.851 1205.31 179.459 1161.61 225.256C1147.46 240.104 1136.14 256.583 1127.93 274.913C1087.21 366.348 1131.6 479.037 1131.75 581.254C1131.65 712.559 1036.03 828.936 873.182 839.116C800.529 843.637 724.211 826.231 647.831 808.978C588.505 795.464 533.298 783.162 481.334 774.224C454.172 769.589 426.983 765.943 400.113 763.35C327.673 756.324 256.215 756.379 181.581 766.379C162.717 768.924 143.939 771.871 125.617 775.841C82.4105 785.203 44.0028 800.538 13.7791 823.637C-46.7539 869.434 -73.1491 946.827 -47.6106 1027.41" stroke="#B66D7A" stroke-miterlimit="10"/>
<path d="M1664.99 144.168C1601.94 137.352 1539.15 133.565 1477.69 133.557C1433.07 133.549 1389.65 136.085 1348.2 142.962C1273.59 155.34 1205.5 183.559 1161.54 229.694C1147.33 244.695 1135.81 261.358 1127.61 279.966C1086.74 372.698 1132.7 486.732 1132.2 589.932C1131.55 722.901 1031.07 838.648 866.19 848.007C793.451 852.126 716.808 835.211 640.256 817.153C581.117 803.178 525.368 789.449 472.23 778.802C444.339 773.204 416.556 768.564 388.945 764.729C314.031 754.592 239.899 751.72 164.82 760.975C145.808 763.271 127.104 766.342 108.72 770.466C65.5239 780.106 27.6462 796.589 -1.92221 820.529C-61.0079 867.976 -86.1383 945.937 -60.0413 1026.68" stroke="#BE6B73" stroke-miterlimit="10"/>
<path d="M1670.17 146.766C1606.52 140.5 1542.96 136.458 1480.82 136.599C1435.78 136.68 1391.81 139.334 1349.96 146.3C1274.6 158.981 1205.63 187.532 1161.34 234.159C1147.07 249.315 1135.42 266.286 1127.3 285.018C1086.41 379.019 1133.73 494.303 1132.72 598.458C1131.52 733.092 1026.12 848.365 859.264 856.749C786.228 860.372 709.607 844.012 632.821 825.304C573.869 810.866 517.578 795.712 463.401 783.326C434.917 776.734 406.33 771.005 377.915 766.082C300.6 752.958 223.721 747.034 148.196 755.545C129.11 757.717 110.195 760.693 91.8838 764.941C48.7732 774.984 11.3511 792.491 -17.6363 817.147C-75.6112 866.459 -99.2035 944.929 -72.5479 1025.84" stroke="#C66A6D" stroke-miterlimit="10"/>
<path d="M1675.47 149.332C1611.22 143.616 1546.83 139.474 1484.07 139.609C1438.62 139.779 1394.24 142.522 1351.83 149.607C1275.66 162.466 1205.88 191.473 1161.47 238.686C1147 254.025 1135.43 271.12 1127.18 290.161C1086.07 385.333 1134.96 501.96 1133.51 607.193C1131.41 743.426 1021.17 858.347 852.402 865.601C779.217 868.976 702.408 853.077 625.376 833.44C566.823 818.636 509.716 802.115 454.428 787.866C425.35 780.28 396.097 773.434 366.741 767.452C286.952 751.217 207.325 742.242 131.504 750.255C112.343 752.303 93.4281 755.279 75.0547 759.682C31.9554 770.002 -4.93661 788.657 -33.4054 814.182C-90.0069 865.02 -112.272 943.905 -85.1943 1025" stroke="#CE6867" stroke-miterlimit="10"/>
<path d="M1680.58 151.82C1615.73 146.655 1550.57 142.259 1487.12 142.542C1441.26 142.801 1396.47 145.633 1353.52 152.836C1276.6 165.997 1205.87 195.49 1161.21 243.041C1146.67 258.534 1134.97 275.937 1126.74 295.256C1085.6 391.696 1135.93 509.696 1133.9 615.759C1131.25 753.656 1015.94 867.853 845.21 874.409C771.729 877.287 694.806 861.974 617.676 841.657C559.31 826.391 501.736 808.569 445.335 792.456C415.739 784.001 385.607 775.942 355.447 768.871C273.259 749.65 190.884 737.623 114.617 744.891C95.3086 746.691 76.3307 749.821 58.1679 754.318C15.154 765.041 -21.2195 784.565 -49.0957 811.085C-104.387 863.603 -125.386 943.057 -97.6138 1024.29" stroke="#D66760" stroke-miterlimit="10"/>
<path d="M1685.74 154.405C1572.91 146.452 1458.56 138.548 1355.47 156.256C1252.39 173.965 1160.17 220.741 1126.62 300.39C1085.33 398.128 1137.16 517.349 1134.62 624.366C1131.2 763.835 1011.04 877.402 838.482 883.232C709.458 887.485 570.59 838.744 436.493 796.965C302.396 755.186 157.634 719.085 41.393 748.902C-86.9207 782.037 -152.573 901.046 -110.133 1023.42" stroke="#295829" stroke-miterlimit="10"/>
<path d="M-104.177 1020.56C-142.066 906.74 -85.2247 797.097 27.4412 757.497C34.8576 754.906 42.4223 752.563 50.2836 750.718C162.114 722.674 299.962 754.849 429.175 793.531C433.645 794.808 438.052 796.24 442.522 797.517C575.532 837.903 713.355 884.548 840.247 878.655C1009.98 870.494 1125.85 756.194 1131.76 618.414C1132.48 600.705 1131.87 582.581 1130.43 564.357C1123.34 474.196 1097.61 380.774 1133.98 302.109C1152.18 262.916 1184.86 231.956 1226.07 208.555C1265.93 186.008 1313.88 170.553 1364.19 161.891C1466.63 144.026 1579.53 150.157 1689.13 155.176" stroke="#D56960" stroke-miterlimit="10"/>
<path d="M-98.3764 1017.73C-134.37 904.911 -76.078 797.5 36.2933 759.051C43.5774 756.486 51.221 754.265 59.0872 752.417C170.325 725.039 306.988 756.675 435.186 794.085C439.658 795.364 443.994 796.672 448.466 797.951C580.464 837.067 717.106 881.642 841.93 873.951C1008.97 863.423 1120.47 748.26 1128.83 612.321C1129.97 594.78 1129.59 577.008 1128.64 559.077C1124.1 470.505 1102.77 379.955 1141.35 303.815C1160.65 265.885 1193.81 235.911 1235.21 213.287C1275.2 191.393 1322.99 176.38 1373.04 167.485C1474.86 149.463 1586.16 153.846 1692.6 156.049" stroke="#CD6E67" stroke-miterlimit="10"/>
<path d="M-92.4229 1014.87C-126.518 903.054 -66.5638 797.976 45.2999 760.586C52.6627 758.142 60.174 755.948 67.9079 754.127C178.626 727.542 314.025 758.513 441.206 794.648C445.681 795.928 449.945 797.113 454.42 798.393C585.54 836.205 720.998 878.706 843.476 869.272C1007.83 856.373 1114.94 740.347 1125.75 606.253C1127.18 588.911 1127.29 571.433 1126.84 553.795C1124.79 466.692 1107.86 379.021 1148.51 305.442C1168.77 268.807 1202.62 239.919 1244.15 217.948C1284.33 196.834 1331.96 181.984 1381.55 173.041C1482.73 154.862 1592.65 157.587 1695.78 156.719" stroke="#C4726D" stroke-miterlimit="10"/>
<path d="M-86.643 1012.03C-118.838 901.218 -57.4295 798.379 54.2021 761.989C61.4325 759.571 69.0228 757.498 76.7615 755.675C186.96 729.883 321.098 760.189 447.337 795.172C451.741 796.328 456.081 797.639 460.348 798.825C590.38 835.238 724.729 875.785 845.135 864.545C1006.58 849.172 1109.39 732.4 1122.85 599.965C1124.64 582.947 1125.17 565.637 1125.3 548.417C1125.81 462.907 1113.2 377.992 1156.01 307.102C1177.38 271.734 1211.71 243.836 1253.29 222.674C1293.6 202.215 1341.06 187.808 1390.34 178.785C1490.89 160.447 1599.21 161.417 1699.18 157.72" stroke="#BC7773" stroke-miterlimit="10"/>
<path d="M-80.6997 1009.15C-110.992 899.345 -48.1287 798.752 63.2063 763.519C70.5154 761.223 77.9732 759.176 85.5795 757.38C195.257 732.384 328.13 762.023 453.351 795.725C457.62 796.913 462.026 798.07 466.295 799.258C595.31 834.392 728.537 872.701 846.804 859.805C1005.55 842.049 1103.84 724.436 1119.88 593.82C1121.96 577.001 1123 559.985 1123.62 543.06C1126.69 459.146 1118.5 377.12 1163.3 308.675C1185.64 274.608 1220.59 247.673 1262.38 227.293C1302.8 207.49 1350.17 193.372 1399.13 184.27C1499.04 165.774 1605.9 164.954 1702.7 158.421" stroke="#B37B7A" stroke-miterlimit="10"/>
<path d="M-74.802 1006.24C-103.19 897.43 -38.7951 799.211 72.1686 765.012C79.3451 762.743 86.8817 760.819 94.5671 759.145C203.723 734.946 335.467 763.887 459.606 796.461C463.877 797.65 468.211 798.684 472.483 799.872C600.406 833.6 732.659 869.917 848.71 855.235C1004.76 835.089 1098.65 716.602 1117.15 587.837C1119.52 571.218 1120.91 554.527 1122.04 537.896C1127.61 455.456 1123.83 376.324 1170.71 310.454C1194.16 277.66 1229.52 251.875 1271.57 232.122C1312.12 212.978 1359.39 199.15 1407.97 190.124C1507.38 171.437 1612.5 168.883 1706.06 159.383" stroke="#AB7F80" stroke-miterlimit="10"/>
<path d="M-68.9868 1003.4C-95.4672 895.603 -29.6146 799.638 81.1142 766.446C88.3695 764.298 95.7735 762.401 103.464 760.725C212.097 737.325 342.647 765.721 465.691 796.885C469.89 797.949 474.227 798.984 478.501 800.174C605.543 832.588 736.471 866.842 850.441 850.34C1003.58 827.704 1093.14 708.465 1114.16 581.4C1116.82 564.98 1118.71 548.584 1120.34 532.248C1128.48 451.41 1129.04 375.053 1178.08 311.889C1202.64 280.37 1238.48 255.584 1280.52 236.519C1321.19 218.035 1368.3 204.652 1416.62 195.391C1515.32 176.419 1618.92 172.221 1709.43 159.842" stroke="#A28486" stroke-miterlimit="10"/>
<path d="M-63.063 1000.5C-87.6339 893.709 -20.11 800.098 90.1087 767.975C97.3684 765.824 104.714 764.079 112.271 762.43C220.381 739.83 349.662 767.556 471.684 797.431C475.885 798.497 480.225 799.533 484.427 800.598C610.375 831.6 740.251 863.726 851.938 845.586C1002.37 820.548 1087.53 700.43 1111.01 575.221C1114.03 559.127 1116.35 542.901 1118.47 526.861C1129.33 447.598 1134.18 374.176 1185.36 313.444C1210.89 283.233 1247.43 259.541 1289.59 241.137C1330.45 223.439 1377.4 210.222 1425.26 200.911C1523.32 181.778 1625.45 175.777 1712.58 160.447" stroke="#9A888D" stroke-miterlimit="10"/>
<path d="M-57.1702 997.608C-79.9041 891.69 -10.8425 800.461 99.0057 769.377C106.207 767.379 113.483 765.506 121.119 763.979C228.708 742.18 356.721 769.234 477.797 797.945C481.927 798.887 486.131 799.953 490.399 800.865C615.33 830.577 744.156 860.573 853.622 840.632C1001.35 813.185 1081.97 692.207 1108.04 568.822C1111.35 552.927 1114.18 536.996 1116.87 521.377C1130.23 443.591 1139.52 373.077 1192.86 315.058C1219.5 286.126 1256.52 263.435 1298.88 245.817C1339.87 228.781 1386.65 216.01 1434.2 206.617C1531.62 187.321 1632.22 179.668 1716.23 161.318" stroke="#918C93" stroke-miterlimit="10"/>
<path d="M-51.4741 994.6C-72.2195 889.817 -1.69521 800.855 107.917 770.784C115.122 768.782 122.34 767.062 129.918 765.689C236.907 744.568 363.722 771.074 483.774 798.491C487.906 799.434 492.038 800.376 496.171 801.318C620.005 829.611 747.789 857.752 855.093 835.852C1000.12 806.272 1076.17 684.157 1104.86 562.603C1108.59 546.879 1111.64 531.305 1114.98 515.952C1130.92 439.777 1144.42 372.084 1199.99 316.632C1227.61 289.014 1265.18 267.453 1307.66 250.498C1348.78 234.126 1395.46 221.647 1442.69 212.173C1539.47 192.715 1638.61 183.25 1719.22 161.934" stroke="#899199" stroke-miterlimit="10"/>
<path d="M-45.5958 991.651C-64.4251 887.875 7.56442 801.182 116.877 772.281C124.025 770.433 131.384 768.68 138.829 767.335C245.293 747.018 370.836 772.85 489.938 799.096C494.073 800.039 498.133 800.857 502.268 801.8C625.08 828.798 751.81 854.796 856.888 831.087C999.124 798.961 1070.84 676.079 1101.91 556.262C1106.02 540.864 1109.49 525.461 1113.19 510.435C1131.72 435.871 1149.66 371.1 1207.32 318.249C1236.05 291.917 1274.11 271.362 1316.79 255.198C1358.03 239.49 1404.69 227.429 1451.45 217.905C1547.6 198.283 1645.12 187.031 1722.68 162.806" stroke="#8095A0" stroke-miterlimit="10"/>
<path d="M-39.5129 988.741C-56.4232 885.995 17.099 801.722 126.027 773.876C133.177 772.025 140.477 770.426 147.926 769.079C253.854 749.575 378.185 774.852 496.176 799.669C500.238 800.487 504.375 801.431 508.437 802.249C630.352 827.913 755.877 851.791 858.578 826.305C998.083 791.761 1065.23 668.041 1098.91 550.086C1103.3 534.893 1107.28 519.79 1111.48 505.066C1132.51 432.006 1154.9 370.176 1214.65 319.945C1244.49 294.908 1283.1 275.492 1325.9 259.997C1367.47 245.056 1413.68 233.225 1460.26 223.592C1555.75 203.811 1651.79 190.742 1725.94 163.541" stroke="#789AA6" stroke-miterlimit="10"/>
<path d="M-33.1433 985.925C-48.1323 884.26 26.9684 802.296 135.486 775.522C142.576 773.826 149.878 772.225 157.191 770.907C262.559 752.229 385.714 776.787 502.504 800.319C506.568 801.137 510.631 801.956 514.694 802.774C635.473 826.998 759.767 848.744 860.415 821.559C997.018 784.642 1059.71 660.114 1095.99 544.08C1100.67 529.099 1105.15 514.304 1109.85 499.888C1133.46 428.496 1160.21 369.517 1222.11 322.06C1252.91 298.363 1292.13 279.941 1334.98 265.282C1376.66 251.021 1422.83 239.62 1468.93 229.943C1563.76 210.015 1658.16 195.164 1729.23 165.063" stroke="#003800" stroke-miterlimit="10"/>
<path d="M-26.6174 983.025C-39.6842 882.447 36.856 802.829 145.035 777.257C152.127 775.559 159.367 774.114 166.683 772.795C271.487 754.944 393.325 778.811 509.124 801.152C513.188 801.971 517.178 802.663 521.243 803.482C640.957 826.39 764.152 845.969 862.532 816.989C996.366 777.669 1054.53 652.212 1093.47 538.234C1098.44 523.466 1103.29 509.01 1108.7 494.999C1134.89 425.281 1166.01 369.158 1230.11 324.326C1262.03 301.941 1301.79 284.673 1344.67 270.569C1386.46 256.989 1432.38 245.922 1478.14 236.172C1572.29 216.098 1665.19 199.434 1732.96 166.337" stroke="#66A2B3" stroke-miterlimit="10"/>
<path d="M-20.0952 980.13C-31.2387 880.641 46.8153 803.499 154.505 778.878C161.536 777.336 168.778 775.889 176.033 774.726C280.272 757.704 400.791 780.879 515.523 801.901C519.514 802.594 523.505 803.287 527.433 804.136C646.006 825.599 768.177 843.137 864.287 812.359C995.276 770.508 1048.91 644.406 1090.38 532.235C1095.71 517.806 1100.98 503.534 1106.76 489.863C1135.46 421.695 1171.1 368.685 1237.27 326.511C1270.29 305.44 1310.38 289.23 1353.58 275.904C1395.48 263.007 1441.29 252.246 1486.72 242.423C1580.19 222.203 1671.51 203.881 1735.98 167.783" stroke="#5EA7B9" stroke-miterlimit="10"/>
<path d="M-13.7297 977.248C-22.949 878.847 56.5458 804.056 164.035 780.608C171.067 779.065 178.248 777.774 185.504 776.609C289.18 760.418 408.381 782.9 522.121 802.729C526.112 803.422 529.967 804.145 533.884 804.712C651.53 824.825 772.252 840.126 866.304 807.645C994.383 763.416 1043.56 636.508 1087.63 526.269C1093.25 512.055 1099.02 498.093 1105.3 484.731C1136.58 418.239 1176.58 368.092 1244.83 328.578C1278.82 308.852 1319.52 293.642 1362.77 281.155C1404.85 269.067 1450.54 258.611 1495.49 248.745C1588.29 228.379 1677.97 208.269 1739.35 169.264" stroke="#55ABC0" stroke-miterlimit="10"/>
<path d="M-7.19419 974.334C-14.3505 876.997 66.5837 804.563 173.519 782.226C180.489 780.838 187.672 779.546 194.792 778.411C297.901 763.051 415.781 784.839 528.451 803.346C532.369 803.913 536.224 804.637 540.143 805.204C656.645 823.868 776.34 837.122 867.982 802.871C993.211 756.108 1037.99 628.526 1084.52 520.258C1090.43 506.257 1096.71 492.606 1103.49 479.556C1137.28 414.618 1181.73 367.465 1252.12 330.743C1287.21 312.334 1328.46 298.282 1371.82 286.479C1414.01 275.075 1459.45 264.955 1504.06 255.017C1596.32 234.475 1684.35 212.577 1742.29 170.597" stroke="#4DB0C6" stroke-miterlimit="10"/>
<path d="M-0.688884 971.378C-5.91918 875.134 76.5303 805.184 183.049 783.928C190.022 782.539 197.069 781.277 204.265 780.267C306.946 765.709 423.441 786.959 534.967 804.017C538.886 804.584 542.668 805.182 546.587 805.749C662.021 823.091 780.615 834.169 869.984 798.116C992.437 748.939 1032.62 620.585 1081.75 514.257C1088.16 500.567 1094.58 487.16 1102 474.391C1138.38 411.135 1187.27 366.978 1259.67 332.797C1295.73 315.736 1337.58 302.686 1381.12 291.694C1423.42 280.975 1468.82 271.288 1513.09 261.277C1604.6 240.462 1691.05 216.901 1745.9 172.007" stroke="#44B4CC" stroke-miterlimit="10"/>
<path d="M5.67168 968.41C2.3681 873.266 86.2565 805.681 192.569 785.604C199.544 784.214 206.529 783.108 213.802 782.224C315.839 768.374 431.083 789.055 541.612 804.914C545.532 805.481 549.24 805.953 553.16 806.52C667.448 822.41 784.8 831.341 872.103 793.581C991.564 741.897 1027.35 612.873 1079 508.366C1085.7 494.892 1092.63 481.797 1100.49 469.496C1139.45 407.927 1192.72 366.645 1267.19 335.136C1304.35 319.396 1346.61 307.537 1390.26 297.231C1432.66 287.199 1477.81 277.849 1521.74 267.766C1612.57 246.806 1697.51 221.424 1748.92 173.551" stroke="#3CB8D3" stroke-miterlimit="10"/>
<path d="M12.1592 965.434C10.7835 871.384 96.1884 806.288 202.011 787.168C208.923 785.934 215.91 784.827 223.047 783.973C324.517 770.956 438.439 790.942 547.898 805.475C551.606 805.947 555.528 806.514 559.236 806.985C672.455 821.55 788.556 828.047 873.808 788.861C990.342 734.506 1021.8 604.93 1075.92 502.396C1082.91 489.136 1090.34 476.353 1098.71 464.364C1140.18 404.353 1197.9 366.073 1274.65 337.332C1312.93 322.913 1355.66 312.089 1399.49 302.596C1442 293.249 1487.1 284.333 1530.7 274.177C1620.84 253.071 1704.14 225.895 1752.45 175.102" stroke="#33BDD9" stroke-miterlimit="10"/>
<path d="M18.5639 962.456C19.1162 869.512 105.958 806.79 211.433 788.884C218.347 787.65 225.272 786.699 232.41 785.844C333.308 773.664 446.039 792.922 554.284 806.158C557.993 806.629 561.84 807.07 565.549 807.541C677.831 820.748 792.547 825.123 875.519 784.134C989.128 727.396 1016.11 597.031 1072.83 496.454C1080.19 483.537 1088.04 470.94 1096.91 459.265C1140.96 400.947 1203.13 365.677 1281.89 339.489C1321.13 326.425 1364.54 316.734 1408.4 307.802C1451.1 299.271 1496.01 290.537 1539.12 280.34C1628.59 259.09 1710.44 230.218 1755.23 176.316" stroke="#2BC1DF" stroke-miterlimit="10"/>
<path d="M25.0633 959.402C27.5445 867.564 116.038 807.312 221.092 790.494C227.944 789.416 234.87 788.464 241.872 787.639C342.198 776.297 453.601 794.856 560.845 806.89C564.555 807.361 568.328 807.676 572.038 808.147C683.171 819.897 796.854 822.215 877.544 779.42C988.368 720.265 1010.88 589.107 1069.99 490.391C1077.63 477.691 1085.85 465.437 1095.36 454.044C1142 397.42 1208.55 365.035 1289.45 341.654C1329.87 330.042 1373.68 321.262 1417.58 313.176C1460.38 305.333 1505.11 297.065 1547.81 286.669C1636.59 265.275 1716.79 234.608 1758.48 177.786" stroke="#0A810A" stroke-miterlimit="10"/>
<path d="M31.5336 956.263C35.9443 865.533 125.877 807.659 230.508 791.93C237.361 790.851 244.226 790.056 251.229 789.23C350.982 778.726 461.055 796.586 567.223 807.29C570.859 807.635 574.495 807.98 578.344 808.421C688.401 818.84 800.762 818.875 879.383 774.37C987.207 712.701 1005.31 580.878 1067.02 484.121C1074.96 471.638 1083.75 459.824 1093.55 448.649C1142.84 393.564 1213.7 364.224 1296.68 343.526C1338.21 333.24 1382.42 325.656 1426.57 318.23C1469.47 311.077 1514.09 303.118 1556.52 292.777C1644.62 271.238 1723.3 238.745 1761.54 178.936" stroke="#189418" stroke-miterlimit="10"/>
<path d="M37.8593 953.191C44.2005 863.568 135.573 808.072 239.857 793.56C246.648 792.637 253.514 791.842 260.593 791.142C359.774 781.477 468.593 798.765 573.685 808.137C577.322 808.482 580.958 808.827 584.658 809.015C693.566 817.976 804.894 815.949 881.232 769.635C986.268 705.544 999.755 572.956 1064.21 478.128C1072.43 465.862 1081.73 454.362 1092.1 443.627C1143.98 390.238 1219.3 363.914 1304.36 345.902C1346.85 336.974 1391.67 330.4 1436 323.79C1479.01 317.327 1523.37 309.707 1565.46 299.294C1652.88 277.611 1729.9 243.32 1765.04 180.585" stroke="#2A982A" stroke-miterlimit="10"/>
<path d="M44.3867 950.103C52.6584 861.594 145.542 808.61 249.464 795.032C256.257 794.109 263.199 793.44 270.003 792.801C368.608 783.977 476.094 800.564 580.244 808.573C583.807 808.791 587.444 809.136 591.007 809.354C698.973 816.952 809.051 812.765 882.965 764.675C985.209 698.166 994.213 564.792 1061.13 471.963C1069.72 460.042 1079.44 448.729 1090.32 438.31C1144.79 386.622 1224.49 363.193 1311.61 347.87C1355.22 340.272 1400.58 334.865 1444.87 328.977C1488.06 323.332 1532.3 316.023 1574.05 305.539C1660.78 283.712 1736.28 247.595 1767.97 181.87" stroke="#284D28" stroke-miterlimit="10"/>
<path d="M50.8977 946.969C61.1004 859.577 155.559 808.95 258.991 796.623C362.424 784.297 476.524 802.015 586.581 809.156C696.851 816.394 810.679 811.381 884.748 759.799C996.952 682.041 988.289 521.259 1088.58 433.082C1173.99 358.074 1320.44 349.6 1453.93 334.234C1587.42 318.868 1728.82 284.846 1771.08 183.225" stroke="#267626" stroke-miterlimit="10"/>
</svg>
