<svg width="1642" height="957" viewBox="0 0 1642 957" fill="none" xmlns="http://www.w3.org/2000/svg">
<path d="M339.653 956.731C325.604 881.376 379.94 815.831 465.347 804.848C526.169 797.062 599.221 814.108 652.664 794.589C717.779 770.927 730.419 704.963 752.518 653.169C780.252 588.233 824.961 553.975 921.454 558.6C992.968 561.977 1066.66 589.179 1133 575.136C1255.03 549.328 1245.42 421.7 1232.16 326.688C1218.81 231.011 1201.98 130.314 1274.48 64.3173C1333.86 10.1804 1417.6 -3.32577 1516.43 1.89688C1563.94 4.36814 1608.43 3.36562 1657.93 22.2893" stroke="#196D19" stroke-miterlimit="10"/>
<path d="M1664.45 25.084C1614.32 6.67949 1568.9 7.46444 1520.82 5.108C1485.44 3.33237 1452.01 4.0257 1420.83 7.9471C1363.68 15.0861 1314.31 33.6131 1275.48 69.1199C1263.55 80.1894 1253.84 92.1582 1246.27 104.904C1207.89 169.991 1223.02 254.817 1233.57 335.816C1246.21 432.441 1250.96 559.741 1126.97 584.748C1060.15 598.353 986.432 571.668 914.695 567.502C850.825 563.989 808.981 576.785 779.192 603.764C764.1 617.433 752.301 634.794 742.004 655.406C717.66 704.575 702.009 767.41 636.54 790.342C620.29 796.015 602.476 798.589 583.782 799.702C540.135 802.168 492.187 796.486 450.273 802.84C365.892 815.392 312.9 881.542 327.507 957.139" stroke="#158CF9" stroke-miterlimit="10"/>
<path d="M1670.6 27.8479C1619.85 9.96424 1573.64 10.5022 1524.85 8.2899C1489.04 6.60062 1454.97 7.29004 1423.44 11.4257C1365.51 18.8705 1315.1 37.7733 1276.19 73.7443C1264.05 85.0063 1254.41 97.1105 1246.92 110.266C1208.49 176.667 1224.98 262.81 1235.1 344.953C1247.2 443.314 1246.8 570.067 1120.85 594.271C1053.82 607.377 979.868 581.118 907.924 576.435C844.329 572.44 801.649 583.912 770.81 609.216C755.12 621.926 742.59 638.361 731.416 657.807C704.959 704.316 686.293 764.012 620.411 786.363C604.075 791.922 586.114 794.528 567.407 795.643C523.814 798.508 476.284 793.826 434.916 800.891C351.713 815.258 299.993 881.89 315.159 957.727" stroke="#0B8A0F" stroke-miterlimit="10"/>
<path d="M1676.77 30.6146C1625.39 13.2532 1578.46 13.6657 1528.89 11.476C1492.65 9.87329 1458.15 10.6518 1426.05 14.9093C1367.28 22.5385 1316.03 41.9109 1276.84 78.5268C1264.64 89.9526 1254.86 102.372 1247.3 115.693C1208.83 183.411 1226.75 270.996 1236.29 354.042C1247.71 454.169 1242.29 580.073 1114.59 603.838C1047.22 616.473 973.168 590.612 900.943 585.288C837.553 580.688 794.39 591.17 762.427 614.674C746.212 626.544 732.877 641.929 720.959 660.177C692.252 704.05 670.629 760.449 604.199 782.246C587.705 787.568 569.731 790.178 551.023 791.568C507.411 794.711 460.375 791.152 419.628 799.051C337.727 814.937 287.356 882.173 302.947 958.278" stroke="#2589EC" stroke-miterlimit="10"/>
<path d="M1682.89 33.273C1630.88 16.4351 1583.02 16.6289 1533.01 14.526C1496.34 13.0101 1461.41 13.8781 1428.75 18.2577C1369.19 26.194 1317.11 46.0371 1277.64 83.0262C1265.36 94.6161 1255.38 107.23 1247.83 120.839C1209.1 189.784 1228.59 278.784 1237.7 362.978C1248.51 464.726 1238.06 590.051 1108.54 613.254C1040.76 625.296 966.541 599.986 894.243 594.112C830.922 588.935 787.204 598.302 754.116 620.002C737.375 631.032 723.369 645.336 710.437 662.441C679.403 703.549 654.967 756.889 588.049 777.981C571.471 783.187 553.349 785.829 534.701 787.344C491.145 790.887 444.53 788.332 404.405 797.068C323.673 814.504 274.518 882.375 290.803 958.691" stroke="#2D88E6" stroke-miterlimit="10"/>
<path d="M1689.2 35.9966C1636.58 19.6831 1587.92 19.6288 1537.27 17.7932C1500.17 16.3645 1464.67 17.3512 1431.58 21.8244C1371.17 29.9467 1318.12 50.2913 1278.43 87.7776C1265.95 99.5615 1256.1 112.435 1248.43 126.362C1209.65 196.631 1230.5 286.959 1239.1 372.184C1249.23 475.71 1233.88 600.43 1102.26 622.856C1034.21 634.548 959.893 609.637 887.315 603.12C824.271 597.457 779.923 605.586 745.573 625.507C728.096 635.602 713.491 648.944 699.679 664.876C666.524 703.308 639.062 753.49 571.656 773.875C554.992 778.966 536.858 781.612 518.271 783.251C474.697 787.074 428.638 785.497 388.863 795.128C309.24 814.27 261.573 882.72 278.283 959.308" stroke="#3586DF" stroke-miterlimit="10"/>
<path d="M1697.3 36.4414C1644.05 20.6534 1594.66 20.473 1543.23 18.6608C1505.7 17.3194 1469.77 18.3962 1436.12 22.9923C1374.93 31.4235 1320.96 52.1197 1280.92 90.1338C1268.36 102.083 1258.32 115.152 1250.64 129.369C1211.69 200.996 1234.11 292.748 1241.99 378.914C1251.58 484.194 1231.06 608.367 1097.67 630.078C1029.28 641.297 954.861 616.787 882.001 609.625C819.236 603.475 774.121 610.391 738.779 628.473C720.775 637.723 705.361 650.009 690.668 664.765C655.119 700.573 624.897 747.533 557.076 767.333C540.118 772.214 522.107 774.835 503.445 776.629C459.926 780.854 414.289 780.285 375.137 790.757C296.759 811.579 250.372 880.518 267.644 957.349" stroke="#3D85D9" stroke-miterlimit="10"/>
<path d="M1701.6 41.5341C1647.72 26.2734 1597.4 25.8732 1545.53 24.1487C1507.57 22.895 1471.21 24.062 1436.99 28.7811C1374.95 37.3991 1320.14 58.5693 1279.96 97.2043C1267.33 109.319 1257.16 122.706 1249.41 137.09C1210.41 210.046 1234.19 303.128 1241.65 390.45C1250.48 497.39 1225.05 620.951 1089.7 642.126C1021.1 652.842 946.527 628.885 873.387 621.078C810.767 614.469 765.157 620.112 728.551 636.406C709.946 644.688 693.797 656.037 678.222 669.615C640.412 702.763 607.22 746.398 538.986 765.61C521.943 770.375 503.784 773.029 485.184 774.948C441.647 779.454 396.507 780.018 357.98 791.331C280.778 813.714 235.613 883.291 253.446 960.363" stroke="#4583D3" stroke-miterlimit="10"/>
<path d="M1707.76 44.1995C1653.32 29.5897 1602.14 28.8176 1549.55 27.2395C1511.16 26.0737 1474.23 27.3603 1439.58 32.1738C1376.62 41.1312 1320.97 62.777 1280.51 101.79C1267.67 114.1 1257.56 127.624 1249.76 142.452C1210.51 216.646 1235.86 311.157 1242.81 399.516C1251.09 508.216 1220.61 631.198 1083.28 651.561C1014.35 661.802 939.674 638.248 866.327 629.916C803.915 622.695 757.612 627.243 720.012 641.689C700.743 649.151 683.92 659.411 667.596 671.778C627.45 702.138 591.431 742.688 522.709 761.189C505.58 765.838 487.409 768.496 468.735 770.569C425.254 775.48 380.538 777.056 342.562 789.091C266.611 813.16 222.73 883.226 241.2 960.665" stroke="#4D81CC" stroke-miterlimit="10"/>
<path d="M1713.96 46.9567C1658.89 32.8769 1606.98 31.9777 1553.61 30.4235C1514.78 29.3458 1477.43 30.7233 1442.29 35.7833C1378.47 44.9288 1321.98 67.0511 1281.16 106.594C1268.26 119.07 1258.02 132.914 1250.29 147.881C1210.99 223.411 1237.7 319.259 1244.22 408.778C1251.82 519.269 1216.41 641.64 1077.18 661.313C1007.91 671.077 933.074 648.08 859.51 638.947C797.38 631.236 750.236 634.441 711.579 647.186C691.708 653.676 674.148 662.994 656.941 674.178C614.393 701.896 575.606 739.201 506.47 757.113C489.183 761.522 470.938 764.335 452.325 766.535C408.828 771.728 364.609 774.442 327.26 787.322C252.426 813.111 210.042 883.76 229 961.318" stroke="#5580C6" stroke-miterlimit="10"/>
<path d="M1720.32 49.6783C1664.62 36.1295 1611.78 35.0093 1557.9 33.6959C1518.64 32.7067 1480.78 34.0523 1445.28 39.3304C1380.68 48.7876 1323.28 71.265 1282.32 111.434C1269.34 124.076 1258.9 138.118 1251.17 153.377C1211.69 230.274 1239.98 327.557 1245.91 417.996C1252.89 530.132 1212.49 652.043 1071.22 671.055C1001.61 680.342 926.679 657.75 852.909 648.089C790.926 639.917 743.285 641.84 703.497 652.758C683.096 658.395 664.725 666.649 646.633 676.646C601.743 701.565 560.123 735.771 490.498 752.969C473.126 757.261 454.796 759.956 436.244 762.281C392.804 767.88 349.073 771.46 312.289 785.339C238.635 812.7 197.478 883.992 216.999 961.794" stroke="#5D7EC0" stroke-miterlimit="10"/>
<path d="M1726.57 52.4591C1670.24 39.4423 1616.6 38.0716 1562.14 36.8766C1522.31 36.0053 1484.02 37.4422 1448.09 42.816C1382.63 52.4629 1324.32 75.5723 1283.07 116.123C1269.96 129.085 1259.58 143.267 1251.73 158.848C1212.2 237.089 1241.86 335.718 1247.36 427.327C1253.36 541.049 1207.97 662.504 1064.72 680.702C994.837 689.633 919.807 667.447 845.682 657.011C783.981 648.347 735.572 649.044 694.65 658.132C673.51 662.822 654.536 670.101 635.558 678.91C588.186 701.054 543.791 732.003 473.751 748.608C456.22 752.66 437.815 755.511 419.325 757.964C375.867 763.846 332.636 768.569 296.405 783.175C224.007 812.235 184.139 884.02 204.299 962.192" stroke="#657DB9" stroke-miterlimit="10"/>
<path d="M1732.74 55.125C1675.79 42.6418 1621.42 41.1432 1566.17 39.973C1525.91 39.1907 1487.18 40.7192 1450.69 46.2181C1384.44 56.1783 1325.21 79.6451 1283.62 120.73C1270.43 133.86 1259.85 148.24 1252 164.115C1212.35 243.578 1243.46 343.677 1248.3 436.362C1253.97 551.954 1203.57 672.95 1058.34 690.33C988.253 698.753 913.064 677.126 838.66 666.038C777.243 656.88 728.201 656.32 686.009 663.601C664.264 667.312 644.341 673.551 624.686 681.262C574.831 700.624 527.733 728.431 457.205 744.32C439.589 748.254 421.172 751.109 402.607 753.718C359.207 760.008 316.402 765.753 280.801 781.21C209.66 811.972 171.159 884.374 191.673 962.698" stroke="#6D7BB3" stroke-miterlimit="10"/>
<path d="M1738.96 57.8966C1681.37 45.9487 1626.07 44.2281 1570.25 43.1768C1529.55 42.4837 1490.39 44.1037 1453.33 49.7278C1386.22 59.8781 1326.16 83.8252 1284.42 125.538C1271.17 138.836 1260.45 153.536 1252.53 169.582C1212.7 250.418 1245.39 351.957 1249.72 445.686C1254.84 563.052 1199.35 683.459 1052.22 700.143C981.796 708.086 906.449 687.021 831.903 675.249C770.637 665.626 720.963 663.805 677.774 669.218C655.499 672.071 634.763 677.237 614.357 683.725C562.017 700.298 512.214 724.955 441.274 740.249C423.436 744.094 405.071 746.8 386.506 749.689C343.091 756.264 300.789 763.156 265.818 779.465C195.729 811.837 158.597 884.854 179.811 963.39" stroke="#757AAD" stroke-miterlimit="10"/>
<path d="M1745.25 60.685C1687.03 49.273 1630.92 47.3006 1574.38 46.398C1533.18 45.6711 1493.52 47.5362 1456.02 53.257C1388.06 63.5991 1327.01 88.0594 1285.05 130.281C1271.73 143.748 1260.8 158.649 1252.89 174.989C1213.02 257.18 1247.08 360.075 1250.9 454.86C1255.33 574.044 1194.89 693.841 1045.84 709.83C975.149 717.415 899.63 696.635 824.804 684.207C763.822 674.088 713.303 670.911 669.051 674.604C646.17 676.474 624.619 680.566 603.399 685.981C548.57 699.761 496.057 721.264 424.626 735.838C406.629 739.442 388.189 742.305 369.613 745.198C326.181 752.06 284.379 760.102 249.965 777.144C181.136 811.226 145.299 884.741 167.017 963.679" stroke="#7E78A6" stroke-miterlimit="10"/>
<path d="M1751.64 63.4102C1692.87 52.6593 1635.82 50.4641 1578.84 49.6518C1537.2 49.0145 1497.11 50.9721 1459.04 56.8191C1390.29 67.4767 1328.4 92.4211 1286.01 135.058C1272.48 148.723 1261.7 163.888 1253.66 180.554C1213.6 264.128 1249.17 368.35 1252.48 464.189C1256.27 585.038 1190.81 704.374 1039.78 719.542C968.749 726.645 893.208 706.399 818.103 693.313C757.271 682.727 706.254 678.254 660.866 680.101C637.317 681.139 615.087 684.124 592.977 688.34C535.584 699.196 480.433 717.661 408.378 731.544C390.295 735.029 371.844 737.897 353.33 740.917C309.956 748.189 268.645 757.108 234.8 775.159C167.234 810.954 132.695 884.966 154.978 964.151" stroke="#8676A0" stroke-miterlimit="10"/>
<path d="M1757.92 66.1932C1698.51 55.9812 1640.66 53.5334 1582.96 52.8706C1540.89 52.3233 1500.36 54.3737 1461.73 60.3473C1392.11 71.1976 1329.37 96.6274 1286.77 139.775C1273.17 153.609 1262.18 168.975 1254.28 185.907C1214.1 270.716 1251.2 376.544 1253.99 473.441C1257.1 596.112 1186.61 714.988 1033.59 729.332C962.29 736.077 886.652 716.241 811.194 702.373C750.649 691.289 698.861 685.577 652.335 685.572C628.18 685.623 605.134 687.529 582.208 690.667C522.247 698.594 464.382 713.89 391.912 727.174C373.744 730.541 355.071 733.318 336.693 736.591C293.303 744.15 252.496 754.224 219.283 773.133C152.772 810.552 119.679 885.31 142.455 964.619" stroke="#8E7599" stroke-miterlimit="10"/>
<path d="M1764.11 68.8583C1704.07 59.1866 1645.42 56.4857 1587 55.9729C1544.49 55.5157 1503.4 57.6887 1464.33 63.7596C1393.93 74.9267 1330.13 100.748 1287.39 144.53C1273.72 158.534 1262.59 174.224 1254.63 191.329C1214.27 277.527 1252.87 384.687 1255.01 482.671C1257.56 607.136 1182.04 725.549 1026.9 739.098C955.398 745.329 879.466 726.089 803.866 711.531C743.473 699.978 690.977 692.87 643.387 691.134C618.625 690.196 594.7 691.174 571.157 693.048C508.763 698.009 448.12 710.283 375.235 722.967C356.908 726.09 338.297 728.996 319.845 732.426C276.515 740.397 236.138 751.505 203.485 771.151C138.241 810.29 106.449 885.546 129.866 965.225" stroke="#967393" stroke-miterlimit="10"/>
<path d="M1770.37 71.6251C1709.7 62.4951 1650.18 59.6942 1591.11 59.1782C1548.17 58.8115 1506.57 60.9538 1467.21 67.3703C1395.95 78.7311 1331.37 105.164 1288.34 149.334C1274.46 163.537 1263.4 179.369 1255.38 196.925C1214.98 284.485 1254.96 393.008 1256.66 492.177C1258.44 618.346 1178.02 736.264 1020.89 748.988C949.121 754.858 873.094 736.031 797.216 720.811C737.112 708.759 683.981 700.377 635.253 696.782C609.821 695.005 585.141 694.746 560.781 695.538C495.816 697.556 432.527 706.772 359.154 718.729C340.742 721.733 321.984 724.673 303.595 728.232C260.25 736.492 220.378 748.759 188.359 769.267C124.384 810.13 93.8955 885.885 117.743 965.841" stroke="#9E728D" stroke-miterlimit="10"/>
<path d="M1776.82 74.3776C1715.52 65.7903 1655.2 62.7357 1595.54 62.3408C1552.16 62.0649 1510.12 64.3009 1470.2 70.8454C1398.01 82.5547 1332.51 109.353 1289.26 154.038C1275.31 168.412 1264.12 184.571 1256.03 202.301C1215.44 291.26 1257.01 401.248 1258.12 501.359C1259.21 629.366 1173.6 746.854 1014.61 758.721C942.507 764.105 866.321 745.846 790.227 729.809C730.412 717.255 676.434 707.501 626.639 702.167C600.6 699.397 575.101 698.052 549.923 697.758C482.383 696.828 416.445 702.979 342.582 714.21C323.874 717 305.314 720.038 286.778 723.632C243.491 732.306 204.051 745.613 172.666 766.986C109.959 809.578 80.8495 885.96 105.265 966.167" stroke="#A67086" stroke-miterlimit="10"/>
<path d="M1782.71 77.0917C1720.78 69.0508 1659.67 65.7419 1599.31 65.497C1555.5 65.3113 1512.9 67.6689 1472.55 74.3084C1399.51 86.2065 1333.18 113.482 1289.67 158.816C1275.64 173.355 1264.25 189.71 1256.17 207.731C1215.47 297.897 1258.49 409.335 1259.15 510.596C1259.68 640.357 1169.19 757.302 1008.11 768.361C935.751 773.38 859.411 755.418 783.266 738.816C723.617 725.794 669.152 714.733 618.301 707.658C591.658 703.894 565.347 701.46 539.355 700.079C469.316 696.04 400.607 699.146 326.419 709.891C307.63 712.56 288.989 715.477 270.593 719.322C227.302 728.282 188.439 742.593 157.56 764.852C95.9282 809.062 68.2061 886.038 93.1858 966.462" stroke="#AE6E80" stroke-miterlimit="10"/>
<path d="M1787.82 79.568C1725.3 72.0772 1663.35 68.6681 1602.44 68.5418C1558.22 68.4451 1515.21 70.8917 1474.31 77.6501C1400.53 89.8507 1333.31 117.459 1289.61 163.256C1275.46 178.104 1264.14 194.583 1255.93 212.913C1215.21 304.348 1259.6 417.037 1259.75 519.254C1259.65 650.559 1164.03 766.936 1001.18 777.116C928.529 781.637 852.211 764.231 775.831 746.978C716.505 733.464 661.298 721.162 609.334 712.224C582.172 707.589 554.983 703.943 528.113 701.35C455.673 694.324 384.215 694.379 309.581 704.379C290.717 706.924 271.939 709.871 253.617 713.841C210.41 723.203 172.003 738.538 141.779 761.637C81.2461 807.434 54.8509 884.827 80.3894 965.413" stroke="#B66D7A" stroke-miterlimit="10"/>
<path d="M1792.99 82.1684C1729.94 75.3521 1667.15 71.5647 1605.69 71.557C1561.07 71.5492 1517.65 74.0847 1476.2 80.9617C1401.59 93.3403 1333.5 121.559 1289.54 167.694C1275.33 182.695 1263.81 199.358 1255.61 217.966C1214.74 310.698 1260.7 424.732 1260.2 527.932C1259.55 660.901 1159.07 776.648 994.19 786.007C921.451 790.126 844.808 773.211 768.256 755.153C709.117 741.178 653.368 727.449 600.23 716.802C572.339 711.204 544.556 706.564 516.945 702.729C442.031 692.592 367.899 689.72 292.82 698.975C273.808 701.271 255.104 704.342 236.72 708.466C193.524 718.106 155.646 734.589 126.078 758.529C66.9921 805.976 41.8617 883.937 67.9587 964.684" stroke="#BE6B73" stroke-miterlimit="10"/>
<path d="M1798.17 84.7658C1734.52 78.4999 1670.96 74.4583 1608.82 74.5988C1563.78 74.6799 1519.81 77.3341 1477.95 84.3002C1402.6 96.9811 1333.63 125.532 1289.34 172.159C1275.07 187.315 1263.42 204.286 1255.3 223.018C1214.41 317.019 1261.73 432.303 1260.72 536.458C1259.52 671.092 1154.12 786.365 987.264 794.749C914.228 798.372 837.607 782.012 760.82 763.304C701.869 748.866 645.577 733.712 591.401 721.326C562.916 714.734 534.33 709.005 505.914 704.082C428.6 690.958 351.72 685.034 276.195 693.545C257.109 695.717 238.194 698.693 219.883 702.941C176.773 712.984 139.351 730.491 110.363 755.147C52.3883 804.459 28.7961 882.929 55.4516 963.837" stroke="#C66A6D" stroke-miterlimit="10"/>
<path d="M1803.47 87.3316C1739.22 81.6161 1674.83 77.4742 1612.07 77.609C1566.62 77.7791 1522.24 80.5222 1479.83 87.6068C1403.66 100.466 1333.88 129.473 1289.47 176.686C1275 192.025 1263.43 209.12 1255.18 228.161C1214.07 323.333 1262.96 439.96 1261.51 545.193C1259.41 681.426 1149.17 796.347 980.401 803.601C907.216 806.976 830.408 791.077 753.376 771.44C694.822 756.636 637.716 740.115 582.427 725.866C553.35 718.28 524.096 711.434 494.74 705.452C414.952 689.217 335.325 680.242 259.503 688.255C240.343 690.303 221.428 693.279 203.054 697.682C159.955 708.002 123.063 726.657 94.5941 752.182C37.9926 803.02 15.7279 881.905 42.8052 963.003" stroke="#CE6867" stroke-miterlimit="10"/>
<path d="M1808.58 89.8198C1743.73 84.6546 1678.57 80.2587 1615.12 80.5416C1569.26 80.8006 1524.47 83.6326 1481.52 90.8359C1404.6 103.997 1333.87 133.49 1289.21 181.041C1274.67 196.534 1262.97 213.937 1254.74 233.256C1213.61 329.696 1263.94 447.696 1261.9 553.759C1259.25 691.656 1143.94 805.853 973.211 812.409C899.729 815.287 822.806 799.974 745.676 779.657C687.311 764.391 629.736 746.569 573.336 730.456C543.739 722.001 513.608 713.942 483.448 706.871C401.259 687.65 318.884 675.623 242.618 682.891C223.309 684.691 204.331 687.821 186.168 692.318C143.154 703.041 106.781 722.565 78.9048 749.085C23.6139 801.603 2.61409 881.057 30.3867 962.285" stroke="#D66760" stroke-miterlimit="10"/>
<path d="M1813.74 92.4046C1700.91 84.4524 1586.56 76.548 1483.47 94.2565C1380.39 111.965 1288.17 158.741 1254.62 238.39C1213.34 336.128 1265.16 455.349 1262.62 562.366C1259.2 701.835 1139.04 815.402 966.482 821.232C837.459 825.485 698.591 776.744 564.494 734.965C430.396 693.186 285.635 657.085 169.394 686.902C41.0798 720.037 -24.5727 839.046 17.8673 961.424" stroke="#295829" stroke-miterlimit="10"/>
<path d="M23.8226 958.556C-14.0662 844.74 42.7748 735.097 155.441 695.497C162.857 692.906 170.422 690.563 178.283 688.718C290.114 660.674 427.962 692.849 557.174 731.531C561.644 732.808 566.052 734.24 570.521 735.517C703.531 775.903 841.354 822.548 968.247 816.655C1137.98 808.494 1253.85 694.194 1259.76 556.414C1260.48 538.705 1259.87 520.581 1258.43 502.357C1251.34 412.196 1225.61 318.774 1261.98 240.109C1280.18 200.916 1312.86 169.956 1354.07 146.555C1393.93 124.008 1441.88 108.553 1492.19 99.8909C1594.63 82.0265 1707.53 88.1571 1817.13 93.1757" stroke="#D56960" stroke-miterlimit="10"/>
<path d="M29.6236 955.727C-6.36956 842.911 51.922 735.5 164.293 697.051C171.577 694.486 179.221 692.265 187.087 690.417C298.325 663.039 434.988 694.675 563.186 732.085C567.658 733.364 571.994 734.672 576.466 735.951C708.464 775.067 845.106 819.642 969.93 811.951C1136.97 801.423 1248.47 686.26 1256.83 550.321C1257.97 532.78 1257.59 515.008 1256.64 497.077C1252.1 408.505 1230.77 317.955 1269.35 241.815C1288.65 203.885 1321.81 173.911 1363.21 151.287C1403.2 129.393 1450.99 114.38 1501.04 105.485C1602.86 87.4633 1714.16 91.846 1820.6 94.0488" stroke="#CD6E67" stroke-miterlimit="10"/>
<path d="M35.5771 952.867C1.48215 841.054 61.4362 735.976 173.3 698.586C180.663 696.142 188.174 693.948 195.908 692.127C306.626 665.542 442.025 696.513 569.206 732.648C573.681 733.928 577.945 735.113 582.42 736.393C713.54 774.205 848.998 816.706 971.476 807.272C1135.83 794.373 1242.94 678.347 1253.75 544.253C1255.18 526.911 1255.29 509.433 1254.84 491.795C1252.79 404.692 1235.86 317.021 1276.51 243.442C1296.77 206.807 1330.62 177.919 1372.15 155.948C1412.33 134.834 1459.96 119.984 1509.55 111.041C1610.73 92.8616 1720.65 95.5872 1823.78 94.7189" stroke="#C4726D" stroke-miterlimit="10"/>
<path d="M41.3565 950.031C9.16159 839.218 70.57 736.379 182.202 699.989C189.432 697.571 197.022 695.498 204.761 693.675C314.96 667.883 449.098 698.189 575.337 733.172C579.74 734.328 584.081 735.639 588.347 736.825C718.379 773.238 852.729 813.785 973.134 802.545C1134.58 787.172 1237.39 670.4 1250.84 537.965C1252.64 520.947 1253.17 503.637 1253.3 486.417C1253.81 400.907 1241.2 315.992 1284.01 245.102C1305.38 209.734 1339.71 181.836 1381.29 160.674C1421.6 140.215 1469.06 125.808 1518.34 116.785C1618.89 98.4473 1727.21 99.417 1827.18 95.7196" stroke="#BC7773" stroke-miterlimit="10"/>
<path d="M47.3003 947.154C17.0079 837.345 79.8713 736.752 191.206 701.519C198.515 699.223 205.973 697.176 213.58 695.38C323.257 670.384 456.13 700.023 581.351 733.725C585.62 734.913 590.026 736.07 594.295 737.258C723.31 772.392 856.537 810.701 974.804 797.805C1133.55 780.049 1231.84 662.436 1247.88 531.82C1249.96 515.001 1251 497.985 1251.62 481.06C1254.69 397.146 1246.5 315.12 1291.3 246.675C1313.64 212.608 1348.59 185.673 1390.38 165.293C1430.8 145.49 1478.17 131.372 1527.13 122.27C1627.04 103.774 1733.9 102.954 1830.7 96.4208" stroke="#B37B7A" stroke-miterlimit="10"/>
<path d="M53.198 944.235C24.8105 835.43 89.2049 737.211 200.169 703.012C207.345 700.743 214.882 698.819 222.567 697.145C331.723 672.946 463.467 701.887 587.606 734.461C591.877 735.65 596.211 736.684 600.483 737.872C728.406 771.6 860.659 807.917 976.71 793.235C1132.76 773.089 1226.65 654.602 1245.15 525.837C1247.52 509.218 1248.91 492.527 1250.04 475.896C1255.61 393.456 1251.83 314.324 1298.71 248.454C1322.16 215.66 1357.52 189.875 1399.57 170.122C1440.12 150.978 1487.39 137.15 1535.97 128.124C1635.38 109.437 1740.5 106.883 1834.06 97.3827" stroke="#AB7F80" stroke-miterlimit="10"/>
<path d="M59.0132 941.403C32.5328 833.603 98.3854 737.638 209.114 704.446C216.369 702.298 223.773 700.401 231.464 698.725C340.097 675.325 470.647 703.721 593.691 734.885C597.89 735.949 602.227 736.984 606.501 738.174C733.543 770.588 864.471 804.842 978.441 788.34C1131.58 765.704 1221.14 646.465 1242.16 519.4C1244.82 502.98 1246.71 486.584 1248.34 470.248C1256.48 389.41 1257.04 313.053 1306.08 249.889C1330.64 218.37 1366.48 193.584 1408.52 174.519C1449.19 156.035 1496.3 142.652 1544.62 133.391C1643.32 114.419 1746.92 110.221 1837.43 97.842" stroke="#A28486" stroke-miterlimit="10"/>
<path d="M64.9375 938.503C40.3666 831.709 107.89 738.098 218.109 705.975C225.369 703.824 232.714 702.079 240.272 700.43C348.382 677.83 477.663 705.556 599.684 735.431C603.886 736.497 608.225 737.533 612.427 738.598C738.376 769.6 868.251 801.726 979.938 783.586C1130.37 758.548 1215.53 638.43 1239.01 513.221C1242.03 497.127 1244.35 480.901 1246.47 464.861C1257.33 385.598 1262.18 312.176 1313.36 251.444C1338.89 221.233 1375.43 197.541 1417.59 179.137C1458.45 161.439 1505.4 148.222 1553.26 138.911C1651.32 119.778 1753.45 113.777 1840.58 98.4467" stroke="#9A888D" stroke-miterlimit="10"/>
<path d="M70.8294 935.608C48.0954 829.69 117.157 738.461 227.005 707.377C234.207 705.379 241.482 703.506 249.119 701.979C356.707 680.18 484.721 707.234 605.796 735.945C609.926 736.887 614.131 737.953 618.398 738.865C743.329 768.577 872.155 798.573 981.622 778.632C1129.35 751.185 1209.97 630.207 1236.04 506.822C1239.35 490.927 1242.18 474.996 1244.87 459.377C1258.23 381.591 1267.52 311.077 1320.86 253.058C1347.5 224.126 1384.52 201.435 1426.88 183.817C1467.87 166.781 1514.65 154.01 1562.2 144.617C1659.62 125.321 1760.22 117.668 1844.23 99.318" stroke="#918C93" stroke-miterlimit="10"/>
<path d="M76.5264 932.6C55.7809 827.817 126.305 738.855 235.917 708.784C243.123 706.782 250.34 705.062 257.918 703.689C364.907 682.568 491.723 709.074 611.774 736.491C615.907 737.434 620.039 738.376 624.171 739.318C748.006 767.611 875.789 795.752 983.094 773.852C1128.12 744.272 1204.17 622.157 1232.86 500.603C1236.59 484.879 1239.64 469.305 1242.98 453.952C1258.92 377.777 1272.42 310.084 1327.99 254.632C1355.61 227.014 1393.18 205.453 1435.66 188.498C1476.78 172.126 1523.47 159.647 1570.69 150.173C1667.47 130.715 1766.61 121.25 1847.22 99.9336" stroke="#899199" stroke-miterlimit="10"/>
<path d="M82.4037 929.651C63.5744 825.875 135.564 739.182 244.877 710.281C252.024 708.433 259.383 706.68 266.829 705.335C373.293 685.018 498.836 710.85 617.938 737.096C622.072 738.039 626.133 738.857 630.268 739.8C753.08 766.798 879.81 792.796 984.888 769.087C1127.12 736.961 1198.84 614.079 1229.91 494.262C1234.01 478.864 1237.49 463.461 1241.19 448.435C1259.72 373.871 1277.66 309.1 1335.32 256.249C1364.05 229.917 1402.11 209.362 1444.79 193.198C1486.03 177.49 1532.69 165.429 1579.45 155.905C1675.6 136.283 1773.12 125.031 1850.68 100.806" stroke="#8095A0" stroke-miterlimit="10"/>
<path d="M88.4876 926.741C71.5773 823.995 145.099 739.722 254.027 711.876C261.178 710.025 268.478 708.426 275.927 707.079C381.855 687.575 506.186 712.852 624.176 737.669C628.239 738.487 632.375 739.431 636.438 740.249C758.353 765.913 883.878 789.791 986.578 764.305C1126.08 729.761 1193.23 606.041 1226.91 488.086C1231.3 472.893 1235.28 457.79 1239.48 443.066C1260.51 370.006 1282.9 308.176 1342.65 257.945C1372.49 232.908 1411.1 213.492 1453.9 197.997C1495.47 183.056 1541.68 171.225 1588.26 161.592C1683.75 141.811 1779.79 128.742 1853.94 101.541" stroke="#789AA6" stroke-miterlimit="10"/>
<path d="M94.8567 923.925C79.8677 822.26 154.968 740.296 263.486 713.522C270.576 711.826 277.878 710.225 285.191 708.907C390.559 690.229 513.714 714.787 630.504 738.319C634.568 739.137 638.631 739.956 642.694 740.774C763.473 764.998 887.767 786.744 988.415 759.559C1125.02 722.642 1187.71 598.114 1223.99 482.08C1228.67 467.099 1233.15 452.304 1237.85 437.888C1261.46 366.496 1288.21 307.517 1350.11 260.06C1380.91 236.363 1420.13 217.941 1462.98 203.282C1504.66 189.021 1550.83 177.62 1596.93 167.943C1691.76 148.015 1786.16 133.164 1857.23 103.063" stroke="#003800" stroke-miterlimit="10"/>
<path d="M101.382 921.025C88.3154 820.447 164.855 740.829 273.034 715.257C280.126 713.559 287.367 712.114 294.682 710.795C399.486 692.944 521.324 716.811 637.123 739.152C641.188 739.971 645.178 740.663 649.242 741.482C768.956 764.39 892.152 783.969 990.532 754.989C1124.37 715.669 1182.53 590.212 1221.47 476.234C1226.44 461.466 1231.28 447.01 1236.7 432.999C1262.89 363.281 1294.01 307.158 1358.11 262.326C1390.03 239.941 1429.79 222.673 1472.67 208.569C1514.46 194.989 1560.38 183.922 1606.14 174.172C1700.29 154.098 1793.19 137.434 1860.96 104.337" stroke="#66A2B3" stroke-miterlimit="10"/>
<path d="M107.905 918.13C96.7617 818.641 174.816 741.499 282.506 716.878C289.536 715.336 296.779 713.889 304.033 712.726C408.273 695.704 528.792 718.879 643.524 739.901C647.515 740.594 651.505 741.287 655.433 742.136C774.007 763.599 896.177 781.137 992.288 750.359C1123.28 708.508 1176.91 582.406 1218.38 470.235C1223.71 455.806 1228.98 441.534 1234.76 427.863C1263.46 359.695 1299.1 306.685 1365.27 264.511C1398.29 243.44 1438.38 227.23 1481.58 213.904C1523.48 201.007 1569.29 190.246 1614.72 180.423C1708.19 160.203 1799.51 141.881 1863.98 105.783" stroke="#5EA7B9" stroke-miterlimit="10"/>
<path d="M114.27 915.248C105.051 816.847 184.546 742.056 292.035 718.608C299.067 717.065 306.248 715.774 313.504 714.609C417.18 698.418 536.381 720.9 650.121 740.729C654.112 741.422 657.967 742.145 661.884 742.712C779.53 762.825 900.252 778.126 994.304 745.645C1122.38 701.416 1171.56 574.508 1215.63 464.269C1221.25 450.055 1227.02 436.093 1233.3 422.731C1264.58 356.239 1304.58 306.092 1372.83 266.578C1406.82 246.852 1447.52 231.642 1490.77 219.155C1532.85 207.067 1578.54 196.611 1623.49 186.745C1716.29 166.379 1805.97 146.269 1867.35 107.264" stroke="#55ABC0" stroke-miterlimit="10"/>
<path d="M120.806 912.334C113.65 814.997 194.584 742.563 301.519 720.226C308.49 718.838 315.673 717.546 322.793 716.411C425.902 701.051 543.781 722.839 656.451 741.346C660.37 741.913 664.225 742.637 668.143 743.204C784.646 761.868 904.341 775.122 995.982 740.871C1121.21 694.108 1166 566.526 1212.52 458.258C1218.44 444.257 1224.71 430.606 1231.49 417.556C1265.28 352.618 1309.73 305.465 1380.12 268.743C1415.21 250.334 1456.46 236.282 1499.82 224.479C1542.01 213.075 1587.45 202.955 1632.06 193.017C1724.32 172.475 1812.35 150.577 1870.29 108.597" stroke="#4DB0C6" stroke-miterlimit="10"/>
<path d="M127.312 909.378C122.081 813.134 204.531 743.184 311.05 721.928C318.022 720.539 325.069 719.277 332.266 718.267C434.947 703.709 551.441 724.959 662.968 742.017C666.887 742.584 670.668 743.182 674.588 743.749C790.022 761.091 908.616 772.169 997.984 736.116C1120.44 686.939 1160.62 558.585 1209.75 452.257C1216.16 438.567 1222.58 425.16 1230.01 412.391C1266.38 349.135 1315.27 304.978 1387.67 270.797C1423.73 253.736 1465.58 240.686 1509.12 229.694C1551.42 218.975 1596.82 209.288 1641.09 199.277C1732.6 178.462 1819.06 154.901 1873.91 110.007" stroke="#44B4CC" stroke-miterlimit="10"/>
<path d="M133.671 906.41C130.368 811.266 214.256 743.681 320.569 723.604C327.543 722.214 334.528 721.108 341.801 720.224C443.838 706.374 559.083 727.055 669.611 742.914C673.532 743.481 677.239 743.953 681.159 744.52C795.447 760.41 912.799 769.341 1000.1 731.581C1119.56 679.897 1155.35 550.873 1207 446.366C1213.7 432.892 1220.63 419.797 1228.49 407.496C1267.45 345.927 1320.72 304.645 1395.19 273.136C1432.35 257.396 1474.61 245.537 1518.26 235.231C1560.66 225.199 1605.81 215.849 1649.74 205.766C1740.57 184.806 1825.51 159.424 1876.91 111.551" stroke="#3CB8D3" stroke-miterlimit="10"/>
<path d="M140.16 903.434C138.784 809.384 224.189 744.288 330.011 725.168C336.924 723.934 343.911 722.827 351.047 721.973C452.518 708.956 566.44 728.942 675.899 743.475C679.607 743.947 683.528 744.514 687.237 744.985C800.456 759.55 916.556 766.047 1001.81 726.861C1118.34 672.506 1149.8 542.93 1203.92 440.396C1210.91 427.136 1218.34 414.353 1226.71 402.364C1268.18 342.353 1325.9 304.073 1402.65 275.332C1440.93 260.913 1483.66 250.089 1527.49 240.596C1570 231.249 1615.1 222.333 1658.7 212.177C1748.85 191.071 1832.14 163.895 1880.45 113.102" stroke="#33BDD9" stroke-miterlimit="10"/>
<path d="M146.563 900.456C147.116 807.512 233.958 744.79 339.432 726.884C346.346 725.65 353.272 724.699 360.41 723.844C461.307 711.664 574.039 730.922 682.283 744.158C685.992 744.629 689.84 745.07 693.549 745.541C805.831 758.748 920.547 763.123 1003.52 722.134C1117.13 665.396 1144.11 535.031 1200.83 434.454C1208.19 421.537 1216.04 408.94 1224.91 397.265C1268.96 338.947 1331.13 303.677 1409.89 277.489C1449.13 264.425 1492.54 254.734 1536.4 245.802C1579.09 237.271 1624.01 228.537 1667.12 218.34C1756.59 197.09 1838.44 168.218 1883.23 114.316" stroke="#2BC1DF" stroke-miterlimit="10"/>
<path d="M153.063 897.402C155.545 805.564 244.038 745.312 349.092 728.494C355.944 727.416 362.87 726.464 369.872 725.639C470.198 714.297 581.601 732.856 688.845 744.89C692.555 745.361 696.328 745.676 700.038 746.147C811.171 757.897 924.854 760.215 1005.54 717.42C1116.37 658.265 1138.88 527.107 1197.99 428.391C1205.63 415.691 1213.85 403.437 1223.36 392.044C1270 335.42 1336.55 303.035 1417.45 279.654C1457.87 268.042 1501.68 259.262 1545.58 251.176C1588.38 243.333 1633.11 235.065 1675.81 224.669C1764.59 203.275 1844.79 172.608 1886.48 115.786" stroke="#0A810A" stroke-miterlimit="10"/>
<path d="M159.534 894.263C163.945 803.533 253.877 745.659 358.508 729.93C365.362 728.851 372.226 728.056 379.229 727.23C478.982 716.726 589.056 734.586 695.223 745.29C698.859 745.635 702.495 745.98 706.344 746.421C816.401 756.84 928.763 756.875 1007.38 712.37C1115.21 650.701 1133.31 518.878 1195.02 422.121C1202.96 409.638 1211.75 397.824 1221.55 386.649C1270.84 331.564 1341.7 302.224 1424.68 281.526C1466.21 271.24 1510.42 263.656 1554.57 256.23C1597.47 249.077 1642.09 241.118 1684.52 230.777C1772.62 209.238 1851.3 176.745 1889.54 116.936" stroke="#189418" stroke-miterlimit="10"/>
<path d="M165.86 891.191C172.201 801.568 263.573 746.072 367.857 731.56C374.649 730.637 381.515 729.842 388.594 729.142C487.775 719.477 596.594 736.765 701.685 746.137C705.322 746.482 708.959 746.827 712.659 747.015C821.566 755.976 932.894 753.949 1009.23 707.635C1114.27 643.544 1127.76 510.956 1192.21 416.128C1200.43 403.862 1209.73 392.362 1220.1 381.627C1271.98 328.238 1347.3 301.914 1432.36 283.902C1474.85 274.974 1519.67 268.4 1564 261.79C1607.01 255.327 1651.37 247.707 1693.46 237.294C1780.88 215.611 1857.9 181.32 1893.04 118.585" stroke="#2A982A" stroke-miterlimit="10"/>
<path d="M172.387 888.103C180.658 799.594 273.542 746.61 377.464 733.032C384.257 732.109 391.199 731.44 398.003 730.801C496.608 721.977 604.094 738.564 708.244 746.573C711.807 746.791 715.444 747.136 719.007 747.354C826.973 754.952 937.051 750.765 1010.96 702.675C1113.21 636.166 1122.21 502.792 1189.13 409.963C1197.72 398.042 1207.44 386.729 1218.32 376.31C1272.79 324.622 1352.49 301.193 1439.61 285.87C1483.22 278.272 1528.58 272.865 1572.87 266.977C1616.06 261.332 1660.3 254.023 1702.05 243.539C1788.78 221.712 1864.28 185.595 1895.97 119.87" stroke="#284D28" stroke-miterlimit="10"/>
<path d="M178.898 884.969C189.1 797.577 283.559 746.95 386.991 734.623C490.424 722.297 604.524 740.015 714.581 747.156C824.851 754.394 938.679 749.381 1012.75 697.799C1124.95 620.041 1116.29 459.259 1216.58 371.082C1301.99 296.074 1448.44 287.6 1581.93 272.234C1715.42 256.868 1856.82 222.846 1899.08 121.225" stroke="#267626" stroke-miterlimit="10"/>
</svg>
