<svg width="32" height="32" viewBox="0 0 32 32" fill="none" xmlns="http://www.w3.org/2000/svg">
<path fill-rule="evenodd" clip-rule="evenodd" d="M1.33337 14.6673C1.33337 7.30352 7.30291 1.33398 14.6667 1.33398C22.0304 1.33398 28 7.30352 28 14.6673C28 17.8691 26.8715 20.8072 24.9906 23.1056L30.6667 28.7817L28.7811 30.6673L23.105 24.9912C20.8066 26.8721 17.8684 28.0007 14.6667 28.0007C7.30291 28.0007 1.33337 22.0311 1.33337 14.6673ZM14.6667 4.00065C8.77567 4.00065 4.00004 8.77628 4.00004 14.6673C4.00004 20.5584 8.77567 25.334 14.6667 25.334C20.5578 25.334 25.3334 20.5584 25.3334 14.6673C25.3334 8.77628 20.5578 4.00065 14.6667 4.00065Z" fill="#BD7500"/>
</svg>
