<svg width="28" height="21" viewBox="0 0 28 21" fill="none" xmlns="http://www.w3.org/2000/svg">
<path d="M13.9289 13.3772C15.6403 13.3864 16.9911 12.002 16.9881 10.2356C16.985 8.46913 15.6465 7.07249 13.9411 7.0572C12.2817 7.04192 10.9034 8.49052 10.9064 10.2478C10.9095 11.9898 12.2419 13.3681 13.9289 13.3772ZM13.9778 14.181C11.8997 14.2238 10.1913 12.491 10.1455 10.2997C10.1057 8.12073 11.811 6.27484 13.8922 6.25039C15.9918 6.21983 17.7185 7.98015 17.7582 10.1805C17.798 12.3657 16.1232 14.1382 13.9778 14.181Z" fill="#16799A"/>
<path d="M21.8168 20.1609L22.0583 20.1547C22.0644 20.1547 22.0705 20.1517 22.0736 20.1456C22.2111 19.9255 22.4342 19.7147 22.4617 19.4793C22.5045 19.134 22.26 18.914 21.9085 18.9262C21.5662 18.9384 21.3156 19.1554 21.3737 19.5038C21.4165 19.7391 21.6518 19.9378 21.8016 20.1547C21.8046 20.1609 21.8107 20.1609 21.8168 20.1609ZM20.8328 8.54764C20.1604 9.14358 19.4881 9.73952 18.8127 10.3324C18.8066 10.3385 18.7974 10.3385 18.7882 10.3324L18.6813 10.2499C18.6721 10.2407 18.6721 10.2316 18.6752 10.2254C18.7516 10.0604 18.7974 9.85871 18.9197 9.74563C19.5553 9.14969 20.2124 8.5782 20.9031 7.96086C20.9092 7.9517 20.9214 7.95475 20.9306 7.96086C21.6304 8.79824 22.315 9.60811 22.9965 10.4241C23.5497 11.0873 24.0875 11.7688 24.6499 12.4258C24.8638 12.6734 24.9005 12.8843 24.7691 13.196C24.0661 14.8371 23.3846 16.4905 22.6909 18.1347C22.5625 18.4403 22.477 18.6756 22.7092 19.0209C23.0362 19.5038 22.7612 20.1731 22.2416 20.3992C21.7741 20.6009 21.2117 20.3137 21.0528 19.7911C20.8756 19.2135 21.1965 18.6939 21.7649 18.5258C21.9697 18.4678 22.208 18.2783 22.2936 18.0827C22.9935 16.4813 23.6658 14.8677 24.3229 13.2479C24.3931 13.0768 24.3993 12.7712 24.3015 12.6459C23.2165 11.2951 22.1041 9.96873 20.9978 8.63932C20.9642 8.59959 20.9122 8.58125 20.8572 8.54764C20.8481 8.54153 20.8389 8.54153 20.8328 8.54764Z" fill="#003800"/>
<path d="M18.9442 0.259923L18.7272 0.256866C18.7211 0.256866 18.715 0.259923 18.7119 0.262979C18.553 0.498299 18.2627 0.742788 18.281 0.956716C18.3024 1.18592 18.6111 1.38152 18.8036 1.59239C18.8128 1.5985 18.8219 1.5985 18.828 1.59239C19.0267 1.39068 19.3415 1.2012 19.369 0.978108C19.3934 0.761124 19.1123 0.507468 18.9595 0.269091C18.9564 0.262979 18.9503 0.259923 18.9442 0.259923ZM21.9544 1.57711C21.9667 1.58016 21.9728 1.58933 21.9697 1.5985C21.8108 2.58257 21.6702 3.4994 21.5083 4.41318C21.4807 4.56293 21.3768 4.74018 21.2546 4.82269C20.1177 5.58367 18.9686 6.3263 17.8348 7.06893C17.8256 7.07505 17.8165 7.07199 17.8104 7.06893C16.7224 6.21017 16.1509 5.47365 16.3495 5.04273C16.3556 5.03051 16.3709 5.03051 16.3801 5.03968C16.6215 5.31167 16.8569 5.55922 17.0708 5.8251C17.2908 6.10015 17.4925 6.39048 17.7003 6.67164C17.7065 6.68081 17.7156 6.68081 17.7248 6.6747C18.8983 5.90761 19.9191 5.24444 20.9306 4.57209C21.0315 4.50486 21.1354 4.38261 21.1568 4.27259C21.2974 3.49329 21.4166 2.71092 21.548 1.898C21.548 1.88883 21.5419 1.8766 21.5327 1.8766C20.9795 1.72686 20.4753 1.57405 19.9649 1.4732C19.8243 1.44569 19.6257 1.54043 19.5065 1.64128C19.1398 1.95301 18.7639 2.05386 18.3452 1.78798C17.9387 1.53432 17.7951 1.0973 17.9784 0.703058C18.1129 0.409672 18.4552 0.122397 18.7578 0.0429388C19.2162 -0.0823615 19.5279 0.23853 19.7235 0.696946C19.7938 0.868088 19.9924 1.04229 20.1697 1.0973C20.7351 1.28066 21.3188 1.41208 21.9544 1.57711Z" fill="#003800"/>
<path d="M21.1688 17.6633C21.1688 17.6694 21.1658 17.6755 21.1627 17.6786C20.9733 17.81 20.7746 18.0484 20.6065 18.027C20.4293 18.0025 20.2826 17.7367 20.1237 17.5686C20.1175 17.5625 20.1175 17.5502 20.1237 17.5441C20.2826 17.376 20.4323 17.1102 20.6065 17.0888C20.7777 17.0704 20.9763 17.3119 21.1627 17.4463C21.1688 17.4494 21.1719 17.4555 21.1719 17.4616C21.1688 17.5288 21.1688 17.5961 21.1688 17.6633ZM22.2538 13.7423C22.3088 13.5742 22.3118 13.2961 22.214 13.18C21.5692 12.419 20.8877 11.6886 20.2031 10.9307C20.197 10.9215 20.1848 10.9215 20.1756 10.9307C19.5247 11.5694 18.9104 12.1623 18.3144 12.7735C18.238 12.8499 18.2411 13.0089 18.2105 13.1372C18.2075 13.1464 18.2136 13.1556 18.2197 13.1586C18.2655 13.18 18.3114 13.1983 18.3572 13.2167C18.3633 13.2197 18.3725 13.2197 18.3786 13.2136C18.9562 12.6544 19.5369 12.092 20.1634 11.4869C20.1726 11.4808 20.1817 11.4808 20.1909 11.4869C20.7318 12.089 21.2575 12.6421 21.7434 13.232C21.8504 13.3634 21.8779 13.6537 21.8198 13.8279C21.557 14.6194 21.2361 15.3926 20.9641 16.1842C20.8663 16.4714 20.7654 16.6548 20.4323 16.7312C19.977 16.8382 19.7478 17.3974 19.9128 17.8192C20.0931 18.2837 20.5668 18.4976 20.9916 18.3112C21.4408 18.1126 21.5722 17.6114 21.3705 17.104C21.285 16.8871 21.2483 16.5876 21.3186 16.3736C21.6059 15.4874 21.9543 14.6255 22.2538 13.7423Z" fill="#003800"/>
<path d="M26.5903 13.9136C26.3886 13.8891 26.2175 13.5804 26.0341 13.3879C26.028 13.3787 26.028 13.3665 26.0341 13.3604C26.2205 13.1679 26.3917 12.8592 26.5934 12.8378C26.789 12.8164 27.0182 13.0945 27.2321 13.2473C27.2382 13.2504 27.2413 13.2565 27.2413 13.2626C27.2413 13.3421 27.2413 13.4185 27.2382 13.4979C27.2382 13.504 27.2352 13.5102 27.2321 13.5132C27.0151 13.663 26.7859 13.938 26.5903 13.9136ZM27.2382 12.8256C26.9387 12.5139 26.9418 12.2082 27.0396 11.8415C27.1588 11.4014 27.0854 11.0469 26.7064 10.7352C26.2603 10.3715 25.8721 9.93145 25.4534 9.52498C24.1577 8.25975 22.8619 6.99758 21.5538 5.72318C21.5477 5.71707 21.5355 5.71402 21.5294 5.72013C20.4628 6.49332 19.4237 7.23596 18.3969 7.99999C18.3144 8.06111 18.3205 8.2567 18.2869 8.39117C18.3266 8.40645 18.3694 8.42479 18.4122 8.44007C18.4183 8.44312 18.4244 8.44312 18.4305 8.43701C19.4451 7.70354 20.4598 6.97008 21.4988 6.22133C21.5049 6.21522 21.5172 6.21522 21.5233 6.22133C23.14 7.8044 24.7322 9.35995 26.3244 10.9186C26.8623 11.4442 26.7829 12.196 26.1808 12.6392C25.7804 12.9356 25.6888 13.4307 25.9669 13.8372C26.2144 14.2008 26.737 14.2895 27.0946 14.0266C27.4735 13.7455 27.5744 13.1801 27.2382 12.8256Z" fill="#003800"/>
<path d="M6.16657 19.6107C6.16657 19.5342 6.16657 19.4548 6.16657 19.3784C6.16657 19.3692 6.16351 19.3662 6.16046 19.36C5.94347 19.2103 5.71732 18.9291 5.51867 18.9536C5.31697 18.975 5.14583 19.2836 4.96246 19.4762C4.95635 19.4823 4.95635 19.4945 4.96246 19.5006C5.14583 19.6962 5.31391 20.0018 5.51867 20.0293C5.71121 20.0538 5.94347 19.7757 6.1574 19.629C6.16351 19.6259 6.16657 19.6168 6.16657 19.6107ZM6.56081 8.51392C6.55164 8.5078 6.54247 8.5078 6.5333 8.51697C5.37504 9.91361 4.23511 11.2766 3.11657 12.658C3.02794 12.765 3.02183 13.0217 3.0799 13.1653C3.76141 14.837 4.45515 16.5026 5.16722 18.1559C5.24057 18.321 5.45755 18.4829 5.63175 18.5257C6.08405 18.6327 6.3591 18.8864 6.41717 19.357C6.47218 19.8276 6.27964 20.173 5.86707 20.3808C5.4545 20.5886 5.09387 20.4327 4.82494 20.121C4.53155 19.7757 4.54989 19.3692 4.74242 18.9444C4.82799 18.7549 4.86467 18.4738 4.79132 18.2904C4.11592 16.6187 3.42218 14.9531 2.71011 13.2967C2.55425 12.9392 2.55425 12.6947 2.82319 12.3799C4.05785 10.9282 5.26502 9.45214 6.51191 7.94242C6.52108 7.93325 6.5333 7.93325 6.54247 7.94242C7.24232 8.68811 8.06441 9.25349 8.69092 10.0114C8.55033 10.155 8.60534 10.1 8.46476 10.2437C7.83826 9.67524 7.21176 9.1068 6.56081 8.51392Z" fill="#003800"/>
<path d="M0.772439 12.8388C0.971086 12.8174 1.19724 13.0955 1.41117 13.2483C1.41728 13.2513 1.42033 13.2574 1.42033 13.2636C1.42033 13.343 1.42033 13.4225 1.42033 13.4989C1.42033 13.505 1.41728 13.5111 1.41117 13.5142C1.19724 13.6639 0.964974 13.939 0.769383 13.9145C0.567679 13.8901 0.399593 13.5814 0.216226 13.3889C0.207059 13.3797 0.207059 13.3705 0.216226 13.3614C0.399593 13.1688 0.570735 12.8601 0.772439 12.8388ZM8.9567 7.97649C8.03681 7.27969 7.09553 6.6104 6.17564 5.91056C5.94338 5.7333 5.81502 5.77303 5.62248 5.96251C3.99358 7.56697 2.36467 9.17142 0.70826 10.7453C0.356808 11.0815 0.277349 11.4299 0.396537 11.8547C0.506557 12.2367 0.479052 12.5331 0.191777 12.8418C-0.119945 13.178 -0.0313182 13.7311 0.310966 14.0031C0.781607 14.379 1.57925 14.1315 1.59453 13.398C1.6037 13.0924 1.46006 12.8051 1.2278 12.6187C0.592128 12.0992 0.564623 11.4268 1.16362 10.8523C1.5273 10.5039 1.89097 10.1524 2.25465 9.79793C3.46793 8.61521 4.6812 7.42944 5.91281 6.22534C5.92198 6.21922 5.93115 6.21922 5.93726 6.22534C6.97634 6.98325 7.98486 7.72588 8.99643 8.46546C9.00254 8.46852 9.00865 8.47158 9.01477 8.46852C9.06672 8.44407 9.11867 8.41962 9.17063 8.39517C9.1798 8.38906 9.18285 8.37684 9.1798 8.36767C9.1095 8.23014 9.06366 8.05594 8.9567 7.97649Z" fill="#003800"/>
<path d="M6.73788 17.0224C6.93347 17.001 7.16268 17.2791 7.37661 17.4288C7.38272 17.4319 7.38578 17.4411 7.38578 17.4472C7.38272 17.5236 7.38272 17.603 7.38272 17.6794C7.38272 17.6886 7.37966 17.6917 7.37661 17.6978C7.15962 17.8445 6.93042 18.1226 6.73482 18.0981C6.53312 18.0706 6.36198 17.765 6.17861 17.5694C6.1725 17.5633 6.1725 17.5511 6.17861 17.545C6.36198 17.3524 6.53618 17.0407 6.73788 17.0224ZM7.25742 10.9346C7.24825 10.9254 7.23908 10.9254 7.22991 10.9346C6.56063 11.6803 5.9494 12.3863 5.31068 13.0586C5.0723 13.3092 5.07536 13.5201 5.19149 13.8226C5.5246 14.6692 5.83938 15.5249 6.12666 16.3928C6.19084 16.5915 6.16639 16.8696 6.08082 17.0652C5.86383 17.5694 5.97385 18.0676 6.41088 18.2876C6.85401 18.5138 7.33993 18.3029 7.52941 17.8017C7.6975 17.3524 7.43773 16.8879 6.93958 16.6954C6.79289 16.6373 6.61258 16.5181 6.55757 16.3806C6.21223 15.5157 5.89439 14.6417 5.58878 13.7615C5.54294 13.6301 5.55211 13.4009 5.63463 13.3062C6.145 12.698 6.68593 12.1112 7.24519 11.4847C7.25131 11.4786 7.26659 11.4786 7.2727 11.4847C7.80752 12.0104 8.30261 12.5085 8.81909 12.9822C8.91689 13.0739 9.09414 13.0769 9.23778 13.1136C9.24695 13.1167 9.25611 13.1106 9.25917 13.1014C9.27751 13.0525 9.29584 13.0005 9.31418 12.9486C9.31418 12.9425 9.31418 12.9333 9.30807 12.9272C8.63572 12.2762 7.96338 11.6222 7.25742 10.9346Z" fill="#003800"/>
<path d="M8.47696 0.262862C8.54725 0.259806 8.61754 0.25675 8.68783 0.253694C8.69394 0.253694 8.70005 0.25675 8.70311 0.259806C8.87119 0.489014 9.16764 0.727391 9.15541 0.944375C9.13708 1.17053 8.83452 1.37834 8.64504 1.59227C8.63893 1.59838 8.6267 1.59838 8.62059 1.59227C8.41889 1.39362 8.10105 1.21637 8.07049 0.993273C8.04299 0.776289 8.31498 0.513464 8.46168 0.272031C8.46473 0.265919 8.47084 0.262862 8.47696 0.262862ZM11.2947 5.18626C11.1602 5.2107 10.986 5.18931 10.8974 5.27183C10.5429 5.60494 10.2037 5.9564 9.88277 6.32313C9.68718 6.55234 9.52826 6.57373 9.27766 6.40259C8.38527 5.79748 7.47761 5.21987 6.58217 4.62087C6.45687 4.5353 6.31017 4.39167 6.28267 4.25109C6.13598 3.49011 6.02596 2.72609 5.88843 1.89483C5.88843 1.88566 5.89454 1.87343 5.90371 1.87343C6.41103 1.73591 6.85111 1.632 7.28202 1.50059C7.56318 1.41502 7.76794 1.42418 8.00937 1.67173C8.41889 2.09042 9.03317 2.00179 9.351 1.54337C9.66578 1.09412 9.53131 0.418724 9.07901 0.143674C8.58086 -0.161937 7.97575 0.0305982 7.76794 0.620427C7.64875 0.962712 7.45927 1.09107 7.14755 1.1583C6.6005 1.27749 6.05652 1.4303 5.4728 1.58005C5.46363 1.58005 5.45752 1.59227 5.45752 1.60144C5.61949 2.56411 5.76619 3.49623 5.94038 4.42223C5.97095 4.5842 6.10541 4.77062 6.24294 4.85925C7.36453 5.61105 8.49835 6.34146 9.61688 7.07188C9.623 7.07799 9.63216 7.07493 9.63828 7.06882C10.2067 6.48205 10.7568 5.91055 11.31 5.34212C11.313 5.33601 11.3161 5.32989 11.3161 5.32378L11.2947 5.18626Z" fill="#003800"/>
<path d="M17.7582 10.1822C17.7582 12.4071 16.0468 14.2071 13.932 14.2071C11.8202 14.2071 10.1057 12.4071 10.1057 10.1822C10.1057 7.9574 11.8202 6.1543 13.932 6.1543C16.0468 6.1543 17.7582 7.9574 17.7582 10.1822Z" fill="#003800"/>
<path d="M15.5059 8.57595C15.5487 8.62179 15.5792 8.67986 15.619 8.72265C15.6526 8.76237 15.7045 8.78988 15.7381 8.83572C15.8054 8.93352 15.8359 9.07715 15.9001 9.18412C15.9521 9.2758 16.0651 9.33998 16.0927 9.44389C16.1385 9.61197 16.1202 9.63948 16.273 9.49584C16.3035 9.46528 16.328 9.44389 16.3646 9.39805C16.4013 9.34304 16.4594 9.30025 16.5022 9.25135C16.5663 9.18412 16.6428 9.12911 16.6672 9.04965C16.6794 9.00686 16.7039 8.79905 16.6916 8.75321C16.6794 8.70431 16.5877 8.64013 16.5327 8.65541C16.5175 8.61568 16.4899 8.5729 16.4655 8.53928C16.4135 8.58206 16.4288 8.63707 16.3524 8.6493C16.2668 8.66458 16.2393 8.6004 16.2027 8.53928C16.1415 8.4476 16.0468 8.33758 16.0407 8.23367C16.1171 8.25506 16.1843 8.27645 16.2393 8.33452C16.276 8.37425 16.2944 8.43232 16.3433 8.45982C16.3983 8.49038 16.4961 8.49955 16.5388 8.44148C16.5786 8.53928 16.655 8.58512 16.7589 8.55762C16.8231 8.54234 16.8842 8.45065 16.9545 8.51177C16.9942 8.54539 17.0248 8.66152 17.0706 8.71042C17.254 8.91518 17.3243 9.16578 17.3915 9.43472C17.4159 9.52946 17.4496 9.62725 17.4557 9.72505C17.4587 9.78311 17.4373 9.84729 17.4587 9.9023C17.6146 9.88702 17.4679 9.23913 17.4435 9.15661C17.4037 9.00075 17.3976 8.91212 17.4129 8.74709C17.419 8.6768 17.4251 8.60346 17.4221 8.53011C16.93 7.37796 15.9368 6.51613 14.7357 6.24414C14.7969 6.28693 14.8763 6.34194 14.8794 6.3725C14.8885 6.46418 14.7694 6.41223 14.7266 6.41223C14.6379 6.40917 14.6441 6.45196 14.5768 6.47946C14.5952 6.31443 14.2468 6.2747 14.1367 6.31443C14.0451 6.34805 13.9839 6.42445 13.9045 6.47029C13.7945 6.53447 13.6783 6.48863 13.5683 6.59254C13.6294 6.60476 13.6783 6.63532 13.7364 6.65366C13.77 6.66283 13.8128 6.65366 13.8372 6.672C13.8923 6.70867 13.877 6.77896 13.9564 6.74534C14.0084 6.72701 14.0481 6.63838 14.0603 6.60171C14.0664 6.58948 14.0451 6.57114 14.0603 6.54058C14.0726 6.52225 14.152 6.47946 14.1704 6.47335C14.1306 6.5742 14.207 6.62004 14.2895 6.59254C14.2834 6.63532 14.2498 6.64755 14.2284 6.69033C14.2101 6.72701 14.2193 6.78202 14.2009 6.80952C14.1429 6.89509 14.0878 6.80646 14.0237 6.81258C13.9473 6.81869 13.935 6.89204 13.8434 6.85536C13.7853 6.83091 13.7364 6.76368 13.6967 6.72089C13.66 6.75757 13.663 6.81258 13.6233 6.85536C13.5652 6.91343 13.4888 6.93177 13.4155 6.95621C13.2994 6.99289 13.1527 7.02039 13.0274 7.04179C12.9693 7.15181 13.1404 7.13347 13.1313 7.24043C13.1282 7.28016 13.1191 7.27099 13.1007 7.2985C13.0946 7.30767 13.0151 7.36573 12.9968 7.38101C12.951 7.32906 12.9051 7.31072 12.841 7.31684C12.7982 7.31989 12.682 7.33823 12.6454 7.36268C12.5078 7.4513 12.5873 7.63773 12.5842 7.76303C12.6545 7.78748 12.7034 7.75997 12.7707 7.75691C12.8012 7.75386 12.8104 7.74163 12.8379 7.74469C12.8593 7.74775 12.8715 7.78136 12.8929 7.78748C12.9601 7.79359 13.0427 7.72635 13.0824 7.68051C13.1282 7.63161 13.1496 7.52465 13.1985 7.48798C13.2321 7.46353 13.2352 7.47881 13.2749 7.46658C13.3208 7.4513 13.4705 7.43908 13.4063 7.3474C13.4766 7.36268 13.6478 7.40852 13.6417 7.28016C13.7181 7.26488 13.8342 7.45742 13.8831 7.51548C13.9381 7.58272 14.0481 7.62856 14.0114 7.73552C14.0451 7.7019 14.0603 7.64078 14.0665 7.59188C14.0756 7.51243 14.094 7.53382 14.0237 7.48492C13.987 7.46047 13.6692 7.3474 13.8403 7.25877C13.8984 7.23126 13.9962 7.326 14.0542 7.33823C14.152 7.35656 14.2162 7.34128 14.2712 7.45742C14.2987 7.51854 14.3048 7.60105 14.3201 7.66523C14.3568 7.79359 14.3873 7.77831 14.5096 7.75691C14.4057 7.7233 14.4026 7.57966 14.5004 7.5491C14.5249 7.53993 14.6379 7.55521 14.6685 7.58577C14.696 7.61328 14.6777 7.66523 14.7021 7.69579C14.7388 7.74775 14.8121 7.74775 14.8641 7.77525C14.9008 7.79359 14.9344 7.83637 14.9772 7.84249C15.0597 7.85471 15.1147 7.7233 15.1697 7.70496C15.2981 7.66523 15.2767 7.81498 15.2583 7.925C15.24 8.03502 15.133 8.16338 15.0261 8.18171C14.9344 8.19394 14.806 8.15727 14.7174 8.14198C14.6074 8.12059 14.5188 8.06558 14.421 8.02585C14.2651 7.96473 14.3109 8.0503 14.3201 8.16338C14.2284 8.14198 14.1459 8.07781 14.0542 8.05336C13.9962 8.03808 13.9442 8.03196 13.8861 8.01363C13.8403 7.99529 13.7639 7.99224 13.7242 7.9739C13.6203 7.92806 13.6905 7.94639 13.6814 7.8486C13.6753 7.75997 13.6753 7.7997 13.5928 7.77831C13.5286 7.75997 13.4675 7.72635 13.3941 7.73552C13.2933 7.74469 13.2016 7.80276 13.1038 7.80887C12.951 7.81498 12.8226 7.8272 12.6759 7.86388C12.5842 7.88527 12.5812 7.94028 12.5292 8.04113C12.4987 8.09614 12.4681 8.1267 12.4223 8.16643C12.3489 8.23367 12.3122 8.30396 12.242 8.38342C12.2083 8.42315 12.1533 8.52705 12.1167 8.55456C12.08 8.58512 12.0402 8.56067 11.9975 8.58206C11.9272 8.61568 11.8691 8.78682 11.8324 8.85406C11.7866 8.9488 11.7194 9.04659 11.7194 9.15661C11.7224 9.29108 11.7591 9.38888 11.7255 9.51418C11.7071 9.5753 11.6705 9.58141 11.6949 9.66698C11.7316 9.78617 11.7896 9.75867 11.8661 9.81368C11.9608 9.88397 11.9272 10.0276 12.0372 10.1285C12.1411 10.2201 12.2022 10.2965 12.3275 10.2782C12.4131 10.266 12.465 10.2568 12.5537 10.2721C12.6454 10.2843 12.6423 10.2874 12.737 10.2538C12.8929 10.1987 13.0702 10.1468 13.2352 10.1896C13.336 10.2171 13.3635 10.3118 13.443 10.3607C13.5286 10.4157 13.5928 10.3974 13.5836 10.5502C13.5683 10.5563 13.5622 10.5563 13.5469 10.5624C13.5377 10.7305 13.5469 10.923 13.6478 11.0667C13.7425 11.2011 13.877 11.25 13.8953 11.4304C13.9045 11.522 13.8984 11.5893 13.8739 11.681C13.8617 11.736 13.8158 11.8368 13.8036 11.901C13.7914 11.9591 13.7883 12.118 13.8189 12.1669C13.8525 12.2158 13.9167 12.2311 13.9442 12.2983C13.9595 12.3411 13.9748 12.4175 13.9839 12.4572C14.0145 12.6131 14.0237 12.7445 14.1031 12.8912C14.1734 13.0256 14.2712 13.0837 14.3048 13.2335C14.4393 13.2457 14.5982 13.209 14.7266 13.1846C14.7419 13.1815 14.8335 13.1723 14.8396 13.1632C14.8733 13.1326 14.8519 13.0745 14.8855 13.0409C14.9099 13.0134 14.9466 13.0409 14.9711 13.0195C14.9986 12.9981 15.0108 12.9554 15.0291 12.9248C15.078 12.827 15.1086 12.7231 15.185 12.6436C15.2553 12.5672 15.347 12.4939 15.4081 12.4083C15.4417 12.3655 15.4723 12.3136 15.4998 12.2738C15.5181 12.2463 15.5364 12.2677 15.5517 12.2311C15.567 12.1852 15.515 12.0844 15.5028 12.0416C15.5914 12.008 15.6556 12.0019 15.7198 11.9224C15.7534 11.8766 15.7626 11.8215 15.784 11.7757C15.8023 11.7451 15.8298 11.7115 15.8421 11.681C15.8848 11.5771 15.8909 11.4456 15.8634 11.3356C15.8359 11.2317 15.787 11.1614 15.8054 11.0483C15.8268 10.8925 15.9276 10.7886 16.004 10.6602C16.0438 10.593 16.0621 10.5502 16.1171 10.5105C16.1813 10.4616 16.2271 10.4463 16.276 10.3699C16.4013 10.1743 16.5602 9.89925 16.5297 9.65476C16.4686 9.60892 16.4594 9.66393 16.4074 9.68532C16.3463 9.71588 16.1385 9.777 16.0774 9.75561C15.9887 9.72505 16.0132 9.64253 15.9735 9.5753C15.9307 9.50195 15.8298 9.43777 15.7748 9.36443C15.7106 9.28191 15.6251 9.20245 15.5823 9.10772C15.5303 9.00075 15.5181 8.89073 15.4448 8.79905C15.3378 8.66764 15.2431 8.51789 15.2583 8.33146C15.3408 8.40787 15.4295 8.49038 15.5059 8.57595Z" fill="#BD7500"/>
<path d="M14.8121 7.23774C14.696 7.07576 14.7204 7.45472 14.7204 7.50362C14.7815 7.48834 14.7999 7.45472 14.8702 7.44861C14.8885 7.44861 14.9374 7.45778 14.9588 7.45778C14.9771 7.45778 14.9955 7.43333 15.023 7.43333C15.0627 7.43638 15.1208 7.47917 15.1605 7.48834C15.2002 7.49751 15.295 7.54029 15.3225 7.53724C15.3958 7.52807 15.3989 7.46389 15.3439 7.43027C15.2736 7.38443 15.2094 7.43333 15.1513 7.35081C15.1116 7.28969 15.0566 6.98408 14.9924 7.22246C14.9741 7.28358 15.0107 7.33859 14.9221 7.32025C14.8977 7.3172 14.8549 7.26219 14.8121 7.23774Z" fill="#BD7500"/>
<path d="M15.6342 7.19632C15.6006 7.19632 15.5365 7.22077 15.5273 7.2605C15.512 7.32162 15.5517 7.31246 15.5884 7.34302C15.6495 7.39192 15.7137 7.45609 15.7443 7.53555C15.7595 7.56917 15.7718 7.61195 15.784 7.64557C15.7901 7.66697 15.8023 7.74948 15.8146 7.7617C15.836 7.7831 16.0224 7.7831 16.059 7.79227C16.0713 7.69447 15.9215 7.65168 15.891 7.57223C15.8818 7.54472 15.9032 7.49582 15.891 7.47443C15.8696 7.44387 15.8237 7.44693 15.7932 7.42553C15.7534 7.39803 15.6679 7.32774 15.6618 7.27578C15.6587 7.23605 15.7107 7.23911 15.7015 7.20244C15.6893 7.15965 15.6495 7.16576 15.6342 7.19632Z" fill="#BD7500"/>
<path d="M16.3432 11.631C16.2882 11.6279 16.2852 11.686 16.2699 11.7318C16.2668 11.7441 16.2515 11.8174 16.2454 11.8205C16.2149 11.8418 16.2118 11.8021 16.1874 11.8113C16.1415 11.8235 16.0223 11.8418 15.9918 11.8755C15.9123 11.9702 16.0284 11.9947 16.0407 12.0711C16.059 12.1872 15.9459 12.1444 15.9001 12.2116C15.8787 12.2453 15.8604 12.4347 15.8726 12.4745C16.0834 12.5753 16.1446 12.2116 16.2057 12.0772C16.2393 12.0038 16.4196 11.6432 16.3432 11.631Z" fill="#BD7500"/>
<path d="M10.9859 12.6305C10.9553 12.5388 10.8422 12.4869 10.7964 12.4044C10.7597 12.3341 10.7292 12.1996 10.723 12.1201C10.8239 12.1079 10.8697 12.0437 10.8331 11.9521C10.7964 11.8512 10.7353 11.7595 10.7322 11.6464C10.7261 11.5548 10.7383 11.46 10.7292 11.3622C10.7261 11.298 10.7322 11.2461 10.7536 11.185C10.775 11.1238 10.8239 11.0688 10.8056 10.9985C10.7781 10.8885 10.6589 10.7968 10.5764 10.7357C10.5061 10.6777 10.4174 10.6318 10.3777 10.5432C10.3349 10.4484 10.3349 10.3293 10.3044 10.2284C10.286 10.1734 10.2463 10.1306 10.231 10.0756C10.2035 9.98087 10.2341 9.89224 10.2035 9.79444C10.1821 9.73026 10.1607 9.6722 10.1454 9.61719C10.121 9.80055 10.1057 9.99003 10.1057 10.1826C10.1057 11.1605 10.4388 12.059 10.992 12.7589C10.9889 12.7161 10.9981 12.6672 10.9859 12.6305Z" fill="#BD7500"/>
<path d="M14.8182 14.0432C12.6576 14.0432 10.9064 12.2003 10.9064 9.92659C10.9064 8.33741 11.7621 6.95911 13.0151 6.27148C11.3465 6.70545 10.1057 8.29157 10.1057 10.1833C10.1057 12.4082 11.8202 14.2082 13.932 14.2082C14.3201 14.2082 14.696 14.1471 15.0474 14.0371C14.971 14.0401 14.8946 14.0432 14.8182 14.0432Z" fill="#003800"/>
</svg>
