<svg width="249" height="648" viewBox="0 0 249 648" fill="none" xmlns="http://www.w3.org/2000/svg">
<path d="M42.1877 604.283C41.2445 604.283 40.5623 604.965 40.5623 605.9C40.5623 606.844 41.2445 607.526 42.1793 607.526C43.1226 607.526 43.7964 606.844 43.8048 605.909C43.8048 604.965 43.131 604.283 42.1877 604.283Z" fill="url(#paint0_linear_1_7292)"/>
<path d="M58.4086 604.284C57.4653 604.267 56.7579 604.932 56.741 605.867C56.7242 606.81 57.398 607.518 58.3244 607.534C59.2677 607.551 59.9667 606.886 59.9836 605.951C60.0088 604.999 59.3435 604.3 58.4086 604.284Z" fill="url(#paint1_linear_1_7292)"/>
<path d="M74.5709 604.283C73.6276 604.275 72.937 604.957 72.9285 605.892C72.9201 606.835 73.6023 607.526 74.5372 607.534C75.4805 607.543 76.1627 606.869 76.1711 605.926C76.1795 604.974 75.5142 604.292 74.5709 604.283Z" fill="url(#paint2_linear_1_7292)"/>
<path d="M1.7104 615.629C2.65369 615.629 3.33589 614.955 3.33589 614.012C3.33589 613.069 2.66211 612.387 1.71882 612.387C0.775537 612.387 0.0933379 613.069 0.0933379 614.004C0.0849157 614.939 0.775538 615.621 1.7104 615.629Z" fill="url(#paint3_linear_1_7292)"/>
<path d="M17.8726 615.628C18.8159 615.636 19.5065 614.971 19.5234 614.028C19.5318 613.076 18.8664 612.385 17.9316 612.377C16.9883 612.369 16.2892 613.034 16.2808 613.969C16.264 614.912 16.9462 615.611 17.8726 615.628Z" fill="url(#paint4_linear_1_7292)"/>
<path d="M34.0687 612.377C33.1338 612.385 32.4516 613.076 32.46 614.019C32.4685 614.954 33.1675 615.636 34.1024 615.628C35.0457 615.62 35.711 614.929 35.7026 613.986C35.7026 613.042 35.012 612.369 34.0687 612.377Z" fill="url(#paint5_linear_1_7292)"/>
<path d="M50.3403 612.378C49.397 612.352 48.6811 613.009 48.6474 613.936C48.6222 614.879 49.2791 615.595 50.2055 615.629C51.1488 615.654 51.8647 614.997 51.89 614.071C51.9237 613.11 51.2752 612.403 50.3403 612.378Z" fill="url(#paint6_linear_1_7292)"/>
<path d="M66.4943 612.377C65.5511 612.369 64.852 613.042 64.8436 613.969C64.8352 614.912 65.5089 615.611 66.4438 615.62C67.3871 615.628 68.0777 614.954 68.0861 614.019C68.0946 613.076 67.4292 612.385 66.4943 612.377Z" fill="url(#paint7_linear_1_7292)"/>
<path d="M9.81262 623.722C10.7559 623.713 11.4297 623.031 11.4213 622.088C11.4213 621.144 10.7391 620.471 9.79577 620.471C8.85249 620.471 8.17871 621.161 8.17871 622.105C8.18713 623.039 8.87775 623.722 9.81262 623.722Z" fill="url(#paint8_linear_1_7292)"/>
<path d="M24.3749 621.979C24.3243 622.931 24.9644 623.664 25.8824 623.723C26.8257 623.773 27.5669 623.133 27.6174 622.215C27.6679 621.264 27.0363 620.531 26.1183 620.48C25.1581 620.421 24.4254 621.061 24.3749 621.979Z" fill="url(#paint9_linear_1_7292)"/>
<path d="M42.2464 620.471C41.3031 620.446 40.5873 621.095 40.562 622.03C40.5367 622.973 41.1936 623.689 42.1201 623.722C43.0634 623.748 43.7793 623.091 43.8045 622.164C43.8298 621.204 43.1813 620.497 42.2464 620.471Z" fill="url(#paint10_linear_1_7292)"/>
<path d="M58.3416 620.471C57.4068 620.479 56.733 621.178 56.7498 622.122C56.7582 623.056 57.4573 623.73 58.4006 623.722C59.3354 623.705 60.0008 623.014 59.9924 622.071C59.9755 621.128 59.2849 620.462 58.3416 620.471Z" fill="url(#paint11_linear_1_7292)"/>
<path d="M17.8981 631.815C18.8414 631.815 19.5151 631.141 19.5236 630.198C19.5236 629.254 18.8498 628.572 17.9065 628.572C16.9632 628.572 16.281 629.254 16.281 630.189C16.281 631.124 16.9632 631.815 17.8981 631.815Z" fill="url(#paint12_linear_1_7292)"/>
<path d="M34.0516 628.565C33.1167 628.582 32.4429 629.281 32.4598 630.224C32.4766 631.159 33.1757 631.833 34.119 631.816C35.0538 631.799 35.7192 631.108 35.7023 630.157C35.6939 629.213 35.0033 628.548 34.0516 628.565Z" fill="url(#paint13_linear_1_7292)"/>
<path d="M50.3066 628.565C49.3633 628.556 48.6643 629.23 48.6558 630.156C48.6474 631.1 49.3212 631.799 50.2561 631.807C51.1993 631.816 51.89 631.15 51.8984 630.207C51.9068 629.264 51.2415 628.573 50.3066 628.565Z" fill="url(#paint14_linear_1_7292)"/>
<path d="M25.9326 639.909C26.8759 639.935 27.5918 639.278 27.6171 638.351C27.6423 637.399 26.9938 636.692 26.0674 636.667C25.1241 636.641 24.4082 637.298 24.3745 638.225C24.3408 639.16 25.0062 639.876 25.9326 639.909Z" fill="url(#paint15_linear_1_7292)"/>
<path d="M42.2214 636.659C41.2781 636.642 40.5706 637.307 40.5538 638.242C40.5369 639.185 41.2107 639.893 42.1371 639.909C43.0804 639.926 43.7795 639.261 43.7963 638.326C43.8216 637.374 43.1562 636.675 42.2214 636.659Z" fill="url(#paint16_linear_1_7292)"/>
<path d="M34.0604 644.752C33.1255 644.769 32.4517 645.46 32.4686 646.403C32.4854 647.338 33.1845 648.012 34.1193 647.995C35.0542 647.978 35.7195 647.287 35.7111 646.344C35.6943 645.409 35.0037 644.735 34.0604 644.752Z" fill="url(#paint17_linear_1_7292)"/>
<path d="M17.9066 583.253C18.8499 583.253 19.5236 582.571 19.5236 581.619C19.5236 580.676 18.8414 580.002 17.8981 580.002C16.9549 580.002 16.2727 580.693 16.2811 581.627C16.2811 582.571 16.9717 583.253 17.9066 583.253Z" fill="url(#paint18_linear_1_7292)"/>
<path d="M35.7027 581.738C35.7533 580.786 35.1216 580.053 34.2036 580.003C33.2519 579.952 32.5191 580.592 32.4686 581.51C32.4181 582.454 33.0582 583.195 33.9762 583.245C34.9195 583.304 35.6606 582.656 35.7027 581.738Z" fill="url(#paint19_linear_1_7292)"/>
<path d="M50.3066 580.002C49.3633 579.994 48.6643 580.667 48.6558 581.594C48.6474 582.537 49.3212 583.236 50.2561 583.245C51.1993 583.253 51.89 582.588 51.8984 581.644C51.9068 580.701 51.2415 580.019 50.3066 580.002Z" fill="url(#paint20_linear_1_7292)"/>
<path d="M9.83807 591.348C10.7729 591.331 11.4383 590.641 11.4299 589.698C11.4214 588.763 10.7308 588.089 9.77912 588.106C8.84425 588.123 8.17048 588.813 8.18732 589.757C8.19574 590.683 8.89478 591.357 9.83807 591.348Z" fill="url(#paint21_linear_1_7292)"/>
<path d="M26.0253 588.096C25.0821 588.087 24.3914 588.753 24.3746 589.688C24.3662 590.631 25.0315 591.33 25.9664 591.338C26.9097 591.347 27.6003 590.681 27.6171 589.738C27.6256 588.803 26.9602 588.113 26.0253 588.096Z" fill="url(#paint22_linear_1_7292)"/>
<path d="M42.1962 588.096C41.2529 588.087 40.5623 588.761 40.5623 589.704C40.5539 590.648 41.2361 591.338 42.171 591.347C43.1143 591.355 43.7965 590.673 43.8049 589.738C43.8049 588.786 43.1395 588.104 42.1962 588.096Z" fill="url(#paint23_linear_1_7292)"/>
<path d="M58.3666 588.096C57.4233 588.096 56.7495 588.778 56.7495 589.721C56.7495 590.664 57.4401 591.347 58.375 591.338C59.3183 591.338 59.9921 590.656 59.9921 589.704C59.9836 588.769 59.3099 588.096 58.3666 588.096Z" fill="url(#paint24_linear_1_7292)"/>
<path d="M1.6936 599.441C2.63689 599.449 3.31909 598.775 3.32751 597.832C3.33593 596.889 2.66216 596.198 1.72729 596.19C0.784006 596.181 0.0933831 596.863 0.0849609 597.798C0.0849609 598.733 0.767161 599.432 1.6936 599.441Z" fill="url(#paint25_linear_1_7292)"/>
<path d="M17.8813 599.441C18.8246 599.449 19.5068 598.775 19.5153 597.832C19.5237 596.889 18.8499 596.198 17.915 596.19C16.9717 596.181 16.2811 596.863 16.2727 597.798C16.2727 598.733 16.9549 599.432 17.8813 599.441Z" fill="url(#paint26_linear_1_7292)"/>
<path d="M34.1528 596.19C33.2095 596.165 32.4936 596.822 32.4599 597.748C32.4347 598.692 33.0916 599.407 34.018 599.441C34.9613 599.475 35.6772 598.809 35.7025 597.883C35.7362 596.923 35.0877 596.224 34.1528 596.19Z" fill="url(#paint27_linear_1_7292)"/>
<path d="M50.2812 596.189C49.338 596.189 48.6558 596.872 48.6558 597.807C48.6558 598.75 49.338 599.432 50.2728 599.44C51.2161 599.44 51.8983 598.767 51.8983 597.823C51.8983 596.872 51.2245 596.189 50.2812 596.189Z" fill="url(#paint28_linear_1_7292)"/>
<path d="M66.4774 596.19C65.5341 596.181 64.8435 596.863 64.835 597.798C64.8266 598.741 65.5088 599.432 66.4437 599.441C67.387 599.449 68.0692 598.767 68.0776 597.832C68.086 596.88 67.4207 596.198 66.4774 596.19Z" fill="url(#paint29_linear_1_7292)"/>
<path d="M9.74537 607.535C10.6887 607.569 11.4045 606.903 11.4298 605.977C11.4551 605.025 10.8066 604.318 9.88012 604.284C8.93683 604.259 8.22095 604.916 8.18726 605.842C8.15357 606.785 8.81892 607.501 9.74537 607.535Z" fill="url(#paint30_linear_1_7292)"/>
<path d="M26.017 604.283C25.0738 604.275 24.3747 604.949 24.3663 605.883C24.3579 606.827 25.0316 607.526 25.9665 607.534C26.9098 607.543 27.6004 606.869 27.6088 605.934C27.6257 604.982 26.9603 604.292 26.017 604.283Z" fill="url(#paint31_linear_1_7292)"/>
<path d="M248.97 36.485H176L212.485 0L248.97 36.485Z" fill="#FFC200"/>
<defs>
<linearGradient id="paint0_linear_1_7292" x1="40.3421" y1="603.722" x2="43.9593" y2="608.701" gradientUnits="userSpaceOnUse">
<stop stop-color="#F7BD5F"/>
<stop offset="1" stop-color="#003800"/>
</linearGradient>
<linearGradient id="paint1_linear_1_7292" x1="56.5205" y1="603.72" x2="60.1506" y2="608.705" gradientUnits="userSpaceOnUse">
<stop stop-color="#F7BD5F"/>
<stop offset="1" stop-color="#003800"/>
</linearGradient>
<linearGradient id="paint2_linear_1_7292" x1="72.7083" y1="603.72" x2="76.338" y2="608.704" gradientUnits="userSpaceOnUse">
<stop stop-color="#F7BD5F"/>
<stop offset="1" stop-color="#003800"/>
</linearGradient>
<linearGradient id="paint3_linear_1_7292" x1="-0.126917" y1="611.825" x2="3.4903" y2="616.805" gradientUnits="userSpaceOnUse">
<stop stop-color="#F7BD5F"/>
<stop offset="1" stop-color="#003800"/>
</linearGradient>
<linearGradient id="paint4_linear_1_7292" x1="16.0603" y1="611.814" x2="19.69" y2="616.798" gradientUnits="userSpaceOnUse">
<stop stop-color="#F7BD5F"/>
<stop offset="1" stop-color="#003800"/>
</linearGradient>
<linearGradient id="paint5_linear_1_7292" x1="32.2398" y1="611.814" x2="35.8695" y2="616.798" gradientUnits="userSpaceOnUse">
<stop stop-color="#F7BD5F"/>
<stop offset="1" stop-color="#003800"/>
</linearGradient>
<linearGradient id="paint6_linear_1_7292" x1="48.4264" y1="611.814" x2="52.0573" y2="616.8" gradientUnits="userSpaceOnUse">
<stop stop-color="#F7BD5F"/>
<stop offset="1" stop-color="#003800"/>
</linearGradient>
<linearGradient id="paint7_linear_1_7292" x1="64.6233" y1="611.815" x2="68.2407" y2="616.795" gradientUnits="userSpaceOnUse">
<stop stop-color="#F7BD5F"/>
<stop offset="1" stop-color="#003800"/>
</linearGradient>
<linearGradient id="paint8_linear_1_7292" x1="7.95853" y1="619.908" x2="11.588" y2="624.891" gradientUnits="userSpaceOnUse">
<stop stop-color="#F7BD5F"/>
<stop offset="1" stop-color="#003800"/>
</linearGradient>
<linearGradient id="paint9_linear_1_7292" x1="24.1515" y1="619.914" x2="27.7764" y2="624.903" gradientUnits="userSpaceOnUse">
<stop stop-color="#F7BD5F"/>
<stop offset="1" stop-color="#003800"/>
</linearGradient>
<linearGradient id="paint10_linear_1_7292" x1="40.341" y1="619.907" x2="43.9721" y2="624.893" gradientUnits="userSpaceOnUse">
<stop stop-color="#F7BD5F"/>
<stop offset="1" stop-color="#003800"/>
</linearGradient>
<linearGradient id="paint11_linear_1_7292" x1="56.5293" y1="619.908" x2="60.1589" y2="624.892" gradientUnits="userSpaceOnUse">
<stop stop-color="#F7BD5F"/>
<stop offset="1" stop-color="#003800"/>
</linearGradient>
<linearGradient id="paint12_linear_1_7292" x1="16.0608" y1="628.011" x2="19.6781" y2="632.99" gradientUnits="userSpaceOnUse">
<stop stop-color="#F7BD5F"/>
<stop offset="1" stop-color="#003800"/>
</linearGradient>
<linearGradient id="paint13_linear_1_7292" x1="32.2393" y1="628.001" x2="35.8695" y2="632.986" gradientUnits="userSpaceOnUse">
<stop stop-color="#F7BD5F"/>
<stop offset="1" stop-color="#003800"/>
</linearGradient>
<linearGradient id="paint14_linear_1_7292" x1="48.4356" y1="628.003" x2="52.053" y2="632.983" gradientUnits="userSpaceOnUse">
<stop stop-color="#F7BD5F"/>
<stop offset="1" stop-color="#003800"/>
</linearGradient>
<linearGradient id="paint15_linear_1_7292" x1="24.153" y1="636.104" x2="27.7716" y2="641.087" gradientUnits="userSpaceOnUse">
<stop stop-color="#F7BD5F"/>
<stop offset="1" stop-color="#003800"/>
</linearGradient>
<linearGradient id="paint16_linear_1_7292" x1="40.3332" y1="636.095" x2="43.9633" y2="641.08" gradientUnits="userSpaceOnUse">
<stop stop-color="#F7BD5F"/>
<stop offset="1" stop-color="#003800"/>
</linearGradient>
<linearGradient id="paint17_linear_1_7292" x1="32.2481" y1="644.19" x2="35.8661" y2="649.171" gradientUnits="userSpaceOnUse">
<stop stop-color="#F7BD5F"/>
<stop offset="1" stop-color="#003800"/>
</linearGradient>
<linearGradient id="paint18_linear_1_7292" x1="16.0608" y1="579.439" x2="19.6903" y2="584.423" gradientUnits="userSpaceOnUse">
<stop stop-color="#F7BD5F"/>
<stop offset="1" stop-color="#003800"/>
</linearGradient>
<linearGradient id="paint19_linear_1_7292" x1="32.2458" y1="579.437" x2="35.8735" y2="584.417" gradientUnits="userSpaceOnUse">
<stop stop-color="#F7BD5F"/>
<stop offset="1" stop-color="#003800"/>
</linearGradient>
<linearGradient id="paint20_linear_1_7292" x1="48.4356" y1="579.44" x2="52.053" y2="584.42" gradientUnits="userSpaceOnUse">
<stop stop-color="#F7BD5F"/>
<stop offset="1" stop-color="#003800"/>
</linearGradient>
<linearGradient id="paint21_linear_1_7292" x1="7.96681" y1="587.544" x2="11.5845" y2="592.524" gradientUnits="userSpaceOnUse">
<stop stop-color="#F7BD5F"/>
<stop offset="1" stop-color="#003800"/>
</linearGradient>
<linearGradient id="paint22_linear_1_7292" x1="24.1543" y1="587.534" x2="27.7717" y2="592.514" gradientUnits="userSpaceOnUse">
<stop stop-color="#F7BD5F"/>
<stop offset="1" stop-color="#003800"/>
</linearGradient>
<linearGradient id="paint23_linear_1_7292" x1="40.3421" y1="587.533" x2="43.9718" y2="592.516" gradientUnits="userSpaceOnUse">
<stop stop-color="#F7BD5F"/>
<stop offset="1" stop-color="#003800"/>
</linearGradient>
<linearGradient id="paint24_linear_1_7292" x1="56.5293" y1="587.534" x2="60.1467" y2="592.514" gradientUnits="userSpaceOnUse">
<stop stop-color="#F7BD5F"/>
<stop offset="1" stop-color="#003800"/>
</linearGradient>
<linearGradient id="paint25_linear_1_7292" x1="-0.135217" y1="595.626" x2="3.49452" y2="600.61" gradientUnits="userSpaceOnUse">
<stop stop-color="#F7BD5F"/>
<stop offset="1" stop-color="#003800"/>
</linearGradient>
<linearGradient id="paint26_linear_1_7292" x1="16.0525" y1="595.626" x2="19.6823" y2="600.61" gradientUnits="userSpaceOnUse">
<stop stop-color="#F7BD5F"/>
<stop offset="1" stop-color="#003800"/>
</linearGradient>
<linearGradient id="paint27_linear_1_7292" x1="32.2389" y1="595.626" x2="35.8706" y2="600.613" gradientUnits="userSpaceOnUse">
<stop stop-color="#F7BD5F"/>
<stop offset="1" stop-color="#003800"/>
</linearGradient>
<linearGradient id="paint28_linear_1_7292" x1="48.4356" y1="595.626" x2="52.0651" y2="600.61" gradientUnits="userSpaceOnUse">
<stop stop-color="#F7BD5F"/>
<stop offset="1" stop-color="#003800"/>
</linearGradient>
<linearGradient id="paint29_linear_1_7292" x1="64.6148" y1="595.626" x2="68.2445" y2="600.61" gradientUnits="userSpaceOnUse">
<stop stop-color="#F7BD5F"/>
<stop offset="1" stop-color="#003800"/>
</linearGradient>
<linearGradient id="paint30_linear_1_7292" x1="7.96573" y1="603.72" x2="11.5974" y2="608.706" gradientUnits="userSpaceOnUse">
<stop stop-color="#F7BD5F"/>
<stop offset="1" stop-color="#003800"/>
</linearGradient>
<linearGradient id="paint31_linear_1_7292" x1="24.146" y1="603.72" x2="27.7756" y2="608.704" gradientUnits="userSpaceOnUse">
<stop stop-color="#F7BD5F"/>
<stop offset="1" stop-color="#003800"/>
</linearGradient>
</defs>
</svg>
