<svg width="221" height="552" viewBox="0 0 221 552" fill="none" xmlns="http://www.w3.org/2000/svg">
<path d="M72.0088 551.455C72.0088 511.119 39.7744 478.414 0 478.414V507.09C24.1547 507.09 43.7383 526.954 43.7383 551.455H72.0088Z" fill="#FF9D00"/>
<path d="M137.839 23.6626C144.281 23.6626 149.504 18.3655 149.504 11.8313C149.504 5.29706 144.281 0 137.839 0C131.397 0 126.175 5.29706 126.175 11.8313C126.175 18.3655 131.397 23.6626 137.839 23.6626Z" fill="#FFC200"/>
<path d="M194.254 11.8054L200.014 5.9539L198.319 4.23438L190.855 11.8054L198.319 19.3764L200.014 17.6483L194.254 11.8054Z" fill="#FF9D00"/>
<path d="M204.316 11.8054L210.076 5.9539L208.381 4.23438L200.917 11.8054L208.381 19.3764L210.076 17.6483L204.316 11.8054Z" fill="#FF9D00"/>
<path d="M214.495 11.8054L220.264 5.9539L218.56 4.23438L211.105 11.8054L218.56 19.3764L220.264 17.6483L214.495 11.8054Z" fill="#FF9D00"/>
<path d="M174.012 11.8054L179.773 5.9539L178.078 4.23438L170.614 11.8054L178.078 19.3764L179.773 17.6483L174.012 11.8054Z" fill="#FF9D00"/>
<path d="M184.074 11.8054L189.835 5.9539L188.139 4.23438L180.675 11.8054L188.139 19.3764L189.835 17.6483L184.074 11.8054Z" fill="#FF9D00"/>
</svg>
